<svg data-name="Layer 1" xmlns="http://www.w3.org/2000/svg" viewBox="0 0 257.2 273"><path d="M136 0h118.9a2.26 2.26 0 012.3 2.3v124.5a2.26 2.26 0 01-2.3 2.3H136a2.26 2.26 0 01-2.3-2.3V2.3A2.26 2.26 0 01136 0zm0 141.3h118.9a2.26 2.26 0 012.3 2.3v127.1a2.26 2.26 0 01-2.3 2.3H136a2.26 2.26 0 01-2.3-2.3V143.6a2.26 2.26 0 012.3-2.3zM2.3 0h118.9a2.26 2.26 0 012.3 2.3v124.5a2.26 2.26 0 01-2.3 2.3H2.3a2.26 2.26 0 01-2.3-2.3V2.3A2.26 2.26 0 012.3 0zm0 141.3h118.9a2.26 2.26 0 012.3 2.3v127.1a2.26 2.26 0 01-2.3 2.3H2.3a2.26 2.26 0 01-2.3-2.3V143.6a2.26 2.26 0 012.3-2.3z" fill="#8c8cf9"/></svg>