<svg id="Layer_1" data-name="Layer 1" xmlns="http://www.w3.org/2000/svg" viewBox="0 0 512 512"><defs><style>.cls-1{fill:#8c8cf9}</style></defs><path class="cls-1" d="M500.09 429.8H299.15a10 10 0 00-10 10 16.69 16.69 0 01-16.66 16.66h-33.24a16.69 16.69 0 01-16.66-16.66 10 10 0 00-10-10H56.47v-257A20.87 20.87 0 0177.31 152H202l.09.87-20.78 19.61-.21.21a95.53 95.53 0 00-28.16 68v44.65a10 10 0 0016.7 7.43l43.76-39.48a10 10 0 005.79 4.55 129.17 129.17 0 0036.18 5.29h.44a129.31 129.31 0 0036.61-5.29 10 10 0 005.89-4.76l44 39.69a10 10 0 0016.7-7.42v-44.67a95.53 95.53 0 00-28.16-68l-19.22-19.22.19-1.47h122.87a20.86 20.86 0 0120.84 20.83v183.36a10 10 0 1020 0V172.84A40.89 40.89 0 00434.69 132H314.15A166.16 166.16 0 00271.54 7.54l-1.76-1.94A17.1 17.1 0 00257.14 0H257a17.12 17.12 0 00-12.69 5.79L241 9.56A166.86 166.86 0 00200 132H77.31a40.88 40.88 0 00-40.83 40.84v257H11.91a10 10 0 00-10 10v15.59A56.68 56.68 0 0058.52 512h395a56.68 56.68 0 0056.61-56.61V439.8a10 10 0 00-10.04-10zM303.71 216.46l4.77-37.87 8.25 8.24A75.69 75.69 0 01339 240.69v22.16l-37-33.36zM256 22.77l1.15-1.3a146.21 146.21 0 0136.35 116.11l-2.3 18.23-9.62 76.34-1 8.12a109.07 109.07 0 01-24.7 2.83h-.38a109.75 109.75 0 01-24.17-2.79l-7.88-76.05-.89-8.55-2.2-21.2A146.76 146.76 0 01256 22.77zm-46 206.62l-37 33.45v-22.16a75.65 75.65 0 0122.21-53.75l9.53-9zM453.48 492h-395a36.65 36.65 0 01-36.61-36.61v-5.59H204a36.72 36.72 0 0035.27 26.66h33.23a36.73 36.73 0 0035.28-26.66h182.31v5.59A36.65 36.65 0 01453.48 492z"/><path class="cls-1" d="M424.85 174.32h-50.34a10 10 0 000 20h40.34v193.74H100.51V194.32h31.71a10 10 0 000-20H90.51a10 10 0 00-10 10v213.74a10 10 0 0010 10h334.34a10 10 0 0010-10V184.32a10 10 0 00-10-10z"/><circle class="cls-1" cx="256" cy="105.57" r="10"/><circle class="cls-1" cx="465.53" cy="399.77" r="10"/><path class="cls-1" d="M230 277.65a10 10 0 00-10 10v40.71a10 10 0 0020 0v-40.71a10 10 0 00-10-10zm50.8-2.32a10 10 0 00-10 10v60a10 10 0 0020 0v-60a10 10 0 00-10-10z"/></svg>