<svg id="Layer_1" data-name="Layer 1" xmlns="http://www.w3.org/2000/svg" viewBox="0 0 464 464"><defs><style>.cls-2{fill:#4c616d}</style></defs><path d="M264 104V72h16a16 16 0 000-32h-96a16 16 0 000 32h16v32zM72 296c0 88 72 160 160 160s160-72 160-160-72-160-160-160S72 208 72 296zm160-128c70.4 0 128 57.6 128 128s-57.6 128-128 128-128-57.6-128-128 57.6-128 128-128z" fill="#8c8cf9"/><path class="cls-2" d="M32 264c0 110.4 89.6 200 200 200s200-89.6 200-200c0-60-27.2-114.4-69.6-151.2L376 99.2l10.4 10.4a7.73 7.73 0 0011.2 0 7.73 7.73 0 000-11.2l-32-32a7.92 7.92 0 00-11.2 11.2L364.8 88l-14.4 14.4A197.71 197.71 0 00272 68V48h8a23.57 23.57 0 0024-24 23.57 23.57 0 00-24-24h-96a23.57 23.57 0 00-24 24 23.57 23.57 0 0024 24h8v20a197.71 197.71 0 00-78.4 34.4L99.2 88l10.4-10.4a7.92 7.92 0 00-11.2-11.2L68 96.8a7.73 7.73 0 000 11.2 8.64 8.64 0 005.6 2.4 8.64 8.64 0 005.6-2.4l8.8-8.8 13.6 13.6C59.2 149.6 32 204 32 264zm384 0c0 101.6-82.4 184-184 184S48 365.6 48 264 130.4 80 232 80s184 82.4 184 184zM208 48h24a7.56 7.56 0 008-8 7.56 7.56 0 00-8-8h-48a7.56 7.56 0 01-8-8 7.56 7.56 0 018-8h96a7.56 7.56 0 018 8 7.56 7.56 0 01-8 8h-16a7.56 7.56 0 00-8 8v25.6c-8-.8-16-1.6-24-1.6s-16 .8-24 1.6z"/><path class="cls-2" d="M232 416a152 152 0 010-304 8 8 0 000-16 168 168 0 10168 168 8 8 0 00-16 0 151.93 151.93 0 01-152 152z"/><path class="cls-2" d="M232 128a7.56 7.56 0 00-8 8v32a8 8 0 0016 0v-24c62.4 4 112 56 112 120s-49.6 116-112 120v-24a8 8 0 00-16 0v32a7.56 7.56 0 008 8 136 136 0 000-272z"/><circle class="cls-2" cx="144" cy="176" r="8"/><circle class="cls-2" cx="112" cy="264" r="8"/><circle class="cls-2" cx="144" cy="352" r="8"/><path class="cls-2" d="M301.6 194.4a7.73 7.73 0 00-11.2 0l-36 36A43 43 0 00232 224a40 40 0 1040 40 43 43 0 00-6.4-22.4l36-36a7.73 7.73 0 000-11.2zM256 264a24 24 0 11-24-24 22.14 22.14 0 0110.4 2.4l-16 16a7.73 7.73 0 000 11.2 7.73 7.73 0 0011.2 0l16-16A22.14 22.14 0 01256 264z"/></svg>