<svg data-name="Layer 1" xmlns="http://www.w3.org/2000/svg" viewBox="0 0 180 170"><path d="M24.8 58.2h130.4M24.8 79.4h130.4M91.5 128H36.9a12.08 12.08 0 01-12.1-12.1V46.1A12.08 12.08 0 0136.9 34h106.2a12.08 12.08 0 0112.1 12.1v42.5M97.6 67.3v3m12.1-3v3m12.2-3v3m12.1-3v3" stroke="#4c626e" stroke-miterlimit="10" stroke-width="5" fill="none"/><path d="M143.1 146.2h-24.3a6.06 6.06 0 01-6.1-6.1v-18.2h36.4v18.2a6 6 0 01-6 6.1zm-28.8-28.1a16.7 16.7 0 1133.4 0" stroke="#8c8cf9" stroke-linecap="round" stroke-linejoin="round" stroke-width="4" fill="none"/></svg>