<svg id="Layer_1" data-name="Layer 1" xmlns="http://www.w3.org/2000/svg" viewBox="0 0 500 340"><defs><style>.cls-1{opacity:.2}.cls-2{fill:#cacaf9}.cls-3{fill:#fff}.cls-5{fill:#a3a3fa}.cls-7{fill:#babafb}.cls-8{fill:#8c8cf9}.cls-9{opacity:.3}</style></defs><g class="cls-1"><path class="cls-2" d="M450.78 310.22A194.26 194.26 0 00434 231a61.45 61.45 0 00-73.59-85.31 194 194 0 00-104.51-30.38q-7.18 0-14.24.52A50.19 50.19 0 00164.59 138a196 196 0 00-40.65 28.8 55.63 55.63 0 00-55.36 89.52 194.89 194.89 0 00-7.58 53.9z"/></g><g class="cls-1"><path class="cls-2" d="M397.47 310.22a141.56 141.56 0 00-283.12 0z"/></g><g class="cls-1"><path class="cls-2" d="M470.49 235.83a11.1 11.1 0 11-11.1-11.09 11.1 11.1 0 0111.1 11.09z"/></g><g class="cls-1"><circle class="cls-2" cx="298.47" cy="97.4" r="17.1" transform="rotate(-76.67 298.485 97.39)"/></g><g class="cls-1"><path class="cls-2" d="M142.34 139.17a7.33 7.33 0 11-7.33-7.33 7.33 7.33 0 017.33 7.33z"/></g><g class="cls-1"><circle class="cls-2" cx="365.68" cy="125.75" r="7.32"/></g><g class="cls-1"><path class="cls-2" d="M211.51 76.22a7.33 7.33 0 11-7.33-7.33 7.33 7.33 0 017.33 7.33z"/></g><g class="cls-1"><path class="cls-2" d="M458.39 262.68a3 3 0 11-3-3 3 3 0 013 3z"/></g><g class="cls-1"><path class="cls-2" d="M364.48 74a2.26 2.26 0 11-2.25-2.26 2.26 2.26 0 012.25 2.26z"/></g><g class="cls-1"><path class="cls-2" d="M140.85 85.2a2.94 2.94 0 11-2.93-2.93 2.93 2.93 0 012.93 2.93z"/></g><g class="cls-1"><path class="cls-2" d="M18.72 150.81a3.91 3.91 0 11-3.9-3.91 3.91 3.91 0 013.9 3.91z"/></g><g class="cls-1"><circle class="cls-2" cx="485.18" cy="179.44" r="3.91"/></g><g class="cls-1"><circle class="cls-2" cx="77.59" cy="135" r="16.57"/></g><g class="cls-1"><path class="cls-2" d="M32.73 255.81a3.91 3.91 0 11-3.91-3.91 3.91 3.91 0 013.91 3.91z"/></g><g class="cls-1"><path class="cls-2" d="M464.35 139.17a16.06 16.06 0 11-16.06-16.06 16.06 16.06 0 0116.06 16.06z"/></g><g class="cls-1"><path class="cls-2" d="M44.6 211.75A15.78 15.78 0 1128.82 196a15.78 15.78 0 0115.78 15.75z"/></g><path class="cls-3" d="M100.51 280.67h84.24v29.55h-84.24z"/><path fill="#dfdffb" d="M100.51 280.67h84.24v14.77h-84.24z"/><rect class="cls-3" x="57.56" y="175.38" width="172.5" height="107.38" rx="4.01"/><path class="cls-5" d="M226.05 175.38a4 4 0 014 4v79.32H57.56v-79.31a4 4 0 014-4z"/><path class="cls-7" d="M89.3 258.69h22.04l83.32-83.31h-22.04L89.3 258.69zm25.69-83.31l-57.43 57.43v25.88h20.18l83.31-83.31h-46.06z" opacity=".6"/><path class="cls-8" d="M225.88 284.48H61.39a5.72 5.72 0 01-5.71-5.72v-99.37a5.72 5.72 0 015.71-5.72h164.49a5.72 5.72 0 015.71 5.72v99.37a5.72 5.72 0 01-5.71 5.72zM61.39 177.09a2.3 2.3 0 00-2.29 2.3v99.37a2.3 2.3 0 002.29 2.29h164.49a2.3 2.3 0 002.29-2.29v-99.37a2.3 2.3 0 00-2.29-2.3z"/><path class="cls-8" d="M98.8 282.76h3.42v27.45H98.8zm84.24 0h3.42v27.45h-3.42z"/><path class="cls-8" d="M85.47 308.5h115.25v3.42H85.47zm-28.08-50.73h172.5v3.42H57.39z"/><g class="cls-9"><path class="cls-8" d="M200.72 306.79h-14.26v-24h39.42a5.71 5.71 0 005.71-5.71v-81.39h-85a2.93 2.93 0 00-2.92 2.93v91.52h-7.05a2.61 2.61 0 00-2 .95 2.65 2.65 0 00-.55 2.15l3.27 17h63.38z"/></g><path class="cls-5" d="M152.31 202.53h148.72v98.01H152.31z"/><path class="cls-7" d="M246.1 202.53h-16.6l-77.19 77.19v16.6l93.79-93.79zm-93.79 27.16v39.28l66.44-66.44h-39.28l-27.16 27.16z" opacity=".5"/><path class="cls-3" d="M305.89 310.22H146.41a.72.72 0 01-.71-.59l-3.42-17.77a.83.83 0 01.82-1H215l3.72 3.71h14.86l3.71-3.71h71.91a.82.82 0 01.81 1l-3.41 17.77a.72.72 0 01-.71.59z"/><path class="cls-8" d="M305.89 311.93H146.41a2.44 2.44 0 01-2.39-2l-3.41-17.77a2.53 2.53 0 012.49-3h72.61l3.72 3.71h13.44l3.71-3.71h72.62a2.53 2.53 0 012.49 3L308.28 310a2.43 2.43 0 01-2.39 1.93zm-158.67-3.43h157.85l3.06-15.91H238l-3.71 3.72H218l-3.72-3.72h-70.11z"/><path class="cls-8" d="M302.78 291.16h-3.42V205H152.94v86.2h-3.42v-86.82a2.84 2.84 0 012.83-2.84H300a2.84 2.84 0 012.83 2.84zm135.77-178.51h-86.89a1.71 1.71 0 010-3.42h86.89a1.71 1.71 0 010 3.42zM94.49 136.71H34.3a1.71 1.71 0 110-3.42h60.19a1.71 1.71 0 010 3.42zm72.15-23.23H66.15a1.71 1.71 0 010-3.42h100.49a1.71 1.71 0 110 3.42zm15.02 0h-8.17a1.71 1.71 0 010-3.42h8.17a1.71 1.71 0 110 3.42zm160.87-.83H335a1.71 1.71 0 010-3.42h7.54a1.71 1.71 0 110 3.42zm-18.78 0H314a1.71 1.71 0 110-3.42h9.75a1.71 1.71 0 110 3.42z"/><path class="cls-8" d="M318.87 117.53a1.72 1.72 0 01-1.71-1.71v-9.75a1.71 1.71 0 113.42 0v9.75a1.71 1.71 0 01-1.71 1.71zm154.19 131.39h-9.75a1.71 1.71 0 010-3.42h9.75a1.71 1.71 0 010 3.42z"/><path class="cls-8" d="M468.19 253.8a1.71 1.71 0 01-1.71-1.72v-9.75a1.71 1.71 0 113.42 0v9.75a1.72 1.72 0 01-1.71 1.72zM200.25 113.48h-9.75a1.71 1.71 0 110-3.42h9.75a1.71 1.71 0 110 3.42z"/><path class="cls-8" d="M195.37 118.36a1.72 1.72 0 01-1.71-1.71v-9.76a1.71 1.71 0 013.42 0v9.76a1.71 1.71 0 01-1.71 1.71zm205 45.12h-9.75a1.71 1.71 0 010-3.42h9.75a1.71 1.71 0 010 3.42z"/><path class="cls-8" d="M395.49 168.36a1.72 1.72 0 01-1.71-1.71v-9.75a1.71 1.71 0 113.42 0v9.75a1.71 1.71 0 01-1.71 1.71zM222.7 93.3a1.73 1.73 0 01-1.21-.5 1.71 1.71 0 010-2.42l6.9-6.9a1.73 1.73 0 012.42 0 1.71 1.71 0 010 2.42l-6.9 6.9a1.71 1.71 0 01-1.21.5z"/><path class="cls-8" d="M229.6 93.3a1.71 1.71 0 01-1.21-.5l-6.9-6.9a1.71 1.71 0 010-2.42 1.73 1.73 0 012.42 0l6.9 6.9a1.71 1.71 0 010 2.42 1.73 1.73 0 01-1.21.5zm-42.55 67.09a1.73 1.73 0 01-1.21-.5 1.71 1.71 0 010-2.42l6.9-6.9a1.71 1.71 0 012.42 2.42l-6.9 6.9a1.71 1.71 0 01-1.21.5z"/><path class="cls-8" d="M194 160.39a1.71 1.71 0 01-1.21-.5l-6.9-6.9a1.71 1.71 0 010-2.42 1.73 1.73 0 012.42 0l6.9 6.9a1.73 1.73 0 010 2.42 1.75 1.75 0 01-1.21.5zm-86.33-20.23a1.71 1.71 0 01-1.2-2.92l6.89-6.9a1.71 1.71 0 012.42 2.42l-6.9 6.9a1.71 1.71 0 01-1.21.5z"/><path class="cls-8" d="M114.57 140.16a1.71 1.71 0 01-1.21-.5l-6.89-6.9a1.71 1.71 0 012.41-2.42l6.9 6.9a1.71 1.71 0 010 2.42 1.73 1.73 0 01-1.21.5zm-77.59 36.92l-2.68 1.55-2.69-1.55v-3.1l2.69-1.55 2.68 1.55v3.1zm437.56 6.16l-2.69 1.55-2.68-1.55v-3.1l2.68-1.55 2.69 1.55v3.1zm-218.48-2.25l-2.68 1.55-2.69-1.55v-3.11l2.69-1.55 2.68 1.55v3.11zm18.68-93.9l-6.03 3.49-6.03-3.49v-6.96l6.03-3.48 6.03 3.48v6.96zM56.31 102.96l-3.96 2.28-3.96-2.28v-4.57l3.96-2.29 3.96 2.29v4.57zM401.43 90.5l-3.96 2.29-3.96-2.29v-4.57l3.96-2.29 3.96 2.29v4.57zm-95.25 71.59l-3.96 2.28-3.96-2.28v-4.57l3.96-2.29 3.96 2.29v4.57zM465.72 135h-80.19a1.71 1.71 0 110-3.42h80.19a1.71 1.71 0 010 3.42z"/><g class="cls-9"><path class="cls-8" d="M308.28 308.24l3.41-17.77a2.53 2.53 0 00-2.49-3h-6.42v-84.8a2.84 2.84 0 00-2.83-2.84h-43.62v39a9.63 9.63 0 004.31 8 9.58 9.58 0 00-4.48 8.09v45.67a9.62 9.62 0 009.61 9.61h40.12a2.44 2.44 0 002.39-1.96z"/></g><path class="cls-3" d="M318.29 248.75h-45.68a7.9 7.9 0 00-7.89 7.9v45.67a7.9 7.9 0 007.89 7.9h45a8.56 8.56 0 008.56-8.56v-45a7.9 7.9 0 00-7.88-7.91z"/><path class="cls-8" d="M317.62 311.93h-45a9.62 9.62 0 01-9.6-9.61v-45.67a9.62 9.62 0 019.6-9.61h45.68a9.62 9.62 0 019.6 9.61v45a10.29 10.29 0 01-10.28 10.28zm-45-61.47a6.19 6.19 0 00-6.18 6.19v45.67a6.18 6.18 0 006.18 6.18h45a6.85 6.85 0 006.85-6.84v-45a6.19 6.19 0 00-6.18-6.19z"/><path class="cls-5" d="M318.83 279.48a23.38 23.38 0 11-23.38-23.38 23.39 23.39 0 0123.38 23.38z"/><path class="cls-3" d="M298.35 279.48a2.9 2.9 0 11-2.9-2.9 2.9 2.9 0 012.9 2.9z"/><path class="cls-8" d="M295.45 284.1a4.62 4.62 0 114.61-4.62 4.62 4.62 0 01-4.61 4.62zm0-5.8a1.19 1.19 0 101.19 1.18 1.18 1.18 0 00-1.19-1.18z"/><path class="cls-8" d="M295.45 304.58a25.1 25.1 0 1125.09-25.1 25.12 25.12 0 01-25.09 25.1zm0-46.77a21.68 21.68 0 1021.67 21.67 21.7 21.7 0 00-21.67-21.67z"/><path class="cls-3" d="M301.5 274.74l-5-3.1a5.26 5.26 0 01-1.75-1.79l-5-8.48a.39.39 0 01.33-.59h10.46a1.52 1.52 0 011.51 1.51v12.14a.36.36 0 01-.55.31zm-10.66-1.41l-3.21 4.89a5.29 5.29 0 01-1.82 1.7l-8.6 4.85a.39.39 0 01-.58-.35l.24-10.45a1.51 1.51 0 011.54-1.48l12.14.28a.36.36 0 01.29.56zM289.19 284l4.81 3.32a5.15 5.15 0 011.66 1.87l4.65 8.7a.39.39 0 01-.36.58l-10.44-.48a1.51 1.51 0 01-1.44-1.58l.55-12.13a.37.37 0 01.57-.28zm10.58 1.84l3.43-4.73a5.4 5.4 0 011.9-1.62l8.82-4.45a.39.39 0 01.56.38l-.72 10.43a1.51 1.51 0 01-1.61 1.4l-12.15-.83a.36.36 0 01-.23-.58z"/><path class="cls-8" d="M301.69 276.5a2.06 2.06 0 01-1.1-.31l-5-3.1a7.14 7.14 0 01-2.31-2.36l-5-8.49a2.07 2.07 0 010-2.11 2.11 2.11 0 011.82-1.06h10.46a3.22 3.22 0 013.22 3.22v12.14a2.08 2.08 0 01-1.07 1.82 2.06 2.06 0 01-1.02.25zm-9.28-14l3.85 6.49a3.62 3.62 0 001.19 1.21l2.89 1.81v-9.51zM277 286.53a2.1 2.1 0 01-2.1-2.15l.23-10.45a3.23 3.23 0 013.3-3.15l12.14.28a2.07 2.07 0 011.68 3.21l-3.21 4.89a7.11 7.11 0 01-2.41 2.25l-8.6 4.85a2.11 2.11 0 01-1.03.27zm1.55-12.32l-.18 7.93 6.58-3.71a3.66 3.66 0 001.23-1.15l1.88-2.85zM300 300.13h-.09l-10.45-.49a3.23 3.23 0 01-3.07-3.36l.55-12.13a2.07 2.07 0 013.25-1.61l4.82 3.33a7 7 0 012.19 2.46l4.65 8.71a2.1 2.1 0 01-1.85 3.09zm-10.18-3.89l7.92.36-3.56-6.66a3.48 3.48 0 00-1.12-1.26l-2.81-1.94zm22.43-7.24H312l-12.11-.84a2 2 0 01-1.73-1.19 2.07 2.07 0 01.19-2.09l3.44-4.74a6.88 6.88 0 012.51-2.13l8.81-4.46a2.11 2.11 0 013.05 2l-.69 10.45a3.23 3.23 0 01-3.22 3zm-9.67-4.09l9.49.65.54-7.91-6.74 3.4a3.64 3.64 0 00-1.28 1.09zm-33.87-32.03h4.44v3.42h-4.44zm48.76 0h4.44v3.42h-4.44zm-48.76 48.95h4.44v3.42h-4.44zm48.76 0h4.44v3.42h-4.44z"/><path class="cls-3" d="M380.08 248.75h-45.67a7.9 7.9 0 00-7.9 7.9v45.67a7.9 7.9 0 007.9 7.9h45a8.57 8.57 0 008.56-8.56v-45a7.9 7.9 0 00-7.89-7.91z"/><path class="cls-8" d="M379.42 311.93h-45a9.62 9.62 0 01-9.61-9.61v-45.67a9.62 9.62 0 019.61-9.61h45.67a9.62 9.62 0 019.61 9.61v45a10.29 10.29 0 01-10.28 10.28zm-45-61.47a6.2 6.2 0 00-6.19 6.19v45.67a6.19 6.19 0 006.19 6.18h45a6.86 6.86 0 006.85-6.84v-45a6.2 6.2 0 00-6.19-6.19z"/><circle class="cls-5" cx="357.25" cy="279.48" r="23.38" transform="rotate(-45 357.246 279.484)"/><path class="cls-3" d="M360.15 279.48a2.91 2.91 0 11-2.9-2.9 2.9 2.9 0 012.9 2.9z"/><path class="cls-8" d="M357.24 284.1a4.62 4.62 0 114.62-4.62 4.62 4.62 0 01-4.62 4.62zm0-5.8a1.19 1.19 0 101.19 1.18 1.18 1.18 0 00-1.19-1.18z"/><path class="cls-8" d="M357.24 304.58a25.1 25.1 0 1125.1-25.1 25.13 25.13 0 01-25.1 25.1zm0-46.77a21.68 21.68 0 1021.68 21.67 21.71 21.71 0 00-21.68-21.67z"/><path class="cls-3" d="M363.29 274.74l-5-3.1a5.32 5.32 0 01-1.74-1.79l-5-8.48a.39.39 0 01.34-.59h10.45a1.52 1.52 0 011.52 1.51v12.14a.37.37 0 01-.57.31zm-10.65-1.41l-3.21 4.89a5.32 5.32 0 01-1.83 1.7l-8.6 4.85a.39.39 0 01-.58-.35l.24-10.45a1.51 1.51 0 011.55-1.48l12.13.28a.36.36 0 01.3.56zM351 284l4.81 3.32a5.34 5.34 0 011.66 1.87l4.65 8.7a.4.4 0 01-.36.58l-10.45-.48a1.52 1.52 0 01-1.44-1.58l.56-12.13a.36.36 0 01.57-.28zm10.57 1.84l3.43-4.73a5.31 5.31 0 011.9-1.62l8.81-4.45a.39.39 0 01.56.38l-.71 10.43a1.51 1.51 0 01-1.62 1.4l-12.11-.83a.36.36 0 01-.26-.58z"/><path class="cls-8" d="M363.49 276.5a2.09 2.09 0 01-1.11-.31l-4.95-3.1a7 7 0 01-2.31-2.36l-5.05-8.49a2.1 2.1 0 011.81-3.17h10.45a3.23 3.23 0 013.23 3.22v12.14a2.05 2.05 0 01-2.07 2.07zm-9.29-14l3.86 6.49a3.69 3.69 0 001.18 1.21l2.9 1.81v-9.51zm-15.39 24.03a2.1 2.1 0 01-2.1-2.15l.24-10.45a3.24 3.24 0 011-2.26 3.36 3.36 0 012.3-.89l12.13.28a2.08 2.08 0 011.79 1.1 2.1 2.1 0 01-.1 2.11l-3.21 4.89a7.24 7.24 0 01-2.42 2.25l-8.6 4.85a2.09 2.09 0 01-1.03.27zm1.56-12.32l-.18 7.93 6.57-3.71a3.69 3.69 0 001.24-1.15l1.87-2.85zm21.4 25.92h-.1l-10.44-.49a3.23 3.23 0 01-3.08-3.36l.56-12.13a2.07 2.07 0 011.15-1.76 2.11 2.11 0 012.1.15l4.81 3.33a7.13 7.13 0 012.2 2.46l4.65 8.71a2.1 2.1 0 01-1.85 3.09zm-10.19-3.89l7.93.36-3.51-6.66a3.67 3.67 0 00-1.12-1.26l-2.88-1.94zm22.47-7.24h-.23l-12.1-.84a2.07 2.07 0 01-1.54-3.28l3.43-4.74a7 7 0 012.52-2.13l8.81-4.46a2.12 2.12 0 012.12.14 2.08 2.08 0 01.92 1.89l-.72 10.42a3.22 3.22 0 01-3.21 3zm-9.67-4.09l9.48.65.55-7.91-6.74 3.4a3.67 3.67 0 00-1.29 1.09zm-33.87-32.03h4.44v3.42h-4.44zm48.75 0h4.44v3.42h-4.44zm-48.75 48.95h4.44v3.42h-4.44zm48.75 0h4.44v3.42h-4.44z"/><path class="cls-3" d="M441.54 248.75h-45.67a7.9 7.9 0 00-7.89 7.9v45.67a7.9 7.9 0 007.89 7.9h45a8.56 8.56 0 008.56-8.56v-45a7.9 7.9 0 00-7.89-7.91z"/><path class="cls-8" d="M440.88 311.93h-45a9.61 9.61 0 01-9.6-9.61v-45.67a9.61 9.61 0 019.6-9.61h45.67a9.62 9.62 0 019.61 9.61v45a10.29 10.29 0 01-10.28 10.28zm-45-61.47a6.19 6.19 0 00-6.18 6.19v45.67a6.18 6.18 0 006.18 6.18h45a6.85 6.85 0 006.85-6.84v-45a6.2 6.2 0 00-6.19-6.19z"/><path class="cls-5" d="M442.09 279.48a23.38 23.38 0 11-23.38-23.38 23.39 23.39 0 0123.38 23.38z"/><path class="cls-3" d="M421.61 279.48a2.9 2.9 0 11-2.9-2.9 2.9 2.9 0 012.9 2.9z"/><path class="cls-8" d="M418.71 284.1a4.62 4.62 0 114.61-4.62 4.61 4.61 0 01-4.61 4.62zm0-5.8a1.19 1.19 0 101.19 1.18 1.18 1.18 0 00-1.19-1.18z"/><path class="cls-8" d="M418.71 304.58a25.1 25.1 0 1125.09-25.1 25.13 25.13 0 01-25.09 25.1zm0-46.77a21.68 21.68 0 1021.67 21.67 21.7 21.7 0 00-21.67-21.67z"/><path class="cls-3" d="M424.75 274.74l-4.95-3.1a5.26 5.26 0 01-1.75-1.79l-5-8.48a.39.39 0 01.33-.59h10.42a1.52 1.52 0 011.51 1.51v12.14a.37.37 0 01-.56.31zm-10.65-1.41l-3.21 4.89a5.32 5.32 0 01-1.83 1.7l-8.6 4.85a.39.39 0 01-.58-.35l.24-10.45a1.52 1.52 0 011.55-1.48l12.13.28a.36.36 0 01.3.56zM412.45 284l4.81 3.32a5.34 5.34 0 011.66 1.87l4.65 8.7a.4.4 0 01-.36.58l-10.44-.48a1.52 1.52 0 01-1.45-1.58l.56-12.13a.36.36 0 01.57-.28zm10.55 1.84l3.43-4.73a5.4 5.4 0 011.9-1.62l8.81-4.45a.4.4 0 01.57.38l-.71 10.43a1.51 1.51 0 01-1.62 1.4l-12.1-.83a.36.36 0 01-.28-.58z"/><path class="cls-8" d="M425 276.5a2.09 2.09 0 01-1.11-.31l-4.95-3.1a7 7 0 01-2.31-2.36l-5.05-8.49a2.1 2.1 0 011.81-3.17h10.41a3.22 3.22 0 013.22 3.22v12.14a2.05 2.05 0 01-2.02 2.07zm-9.29-14l3.86 6.49a3.69 3.69 0 001.18 1.21l2.9 1.81v-9.51zm-15.43 24.03a2.07 2.07 0 01-1.08-.3 2.11 2.11 0 01-1-1.85l.24-10.45a3.24 3.24 0 011-2.26 3.34 3.34 0 012.3-.89l12.13.28a2.05 2.05 0 011.79 1.1 2.1 2.1 0 01-.1 2.11l-3.21 4.89a7.05 7.05 0 01-2.42 2.25l-8.59 4.85a2.11 2.11 0 01-1.06.27zm1.55-12.32l-.18 7.93 6.57-3.71a3.6 3.6 0 001.24-1.15l1.87-2.85zm21.4 25.92h-.09l-10.45-.49a3.2 3.2 0 01-3.07-3.36l.55-12.13a2.07 2.07 0 013.25-1.61l4.81 3.33a6.93 6.93 0 012.2 2.46l4.65 8.71a2.1 2.1 0 01-1.85 3.09zM413 296.24l7.93.36-3.56-6.66a3.67 3.67 0 00-1.12-1.26l-2.81-1.94zm22.51-7.24h-.22l-12.11-.84a2.07 2.07 0 01-1.54-3.28l3.44-4.74a6.88 6.88 0 012.51-2.13l8.81-4.46a2.12 2.12 0 012.11.13 2.09 2.09 0 01.93 1.9l-.72 10.42a3.21 3.21 0 01-3.21 3zm-9.67-4.09l9.49.65.54-7.91-6.74 3.4a3.55 3.55 0 00-1.28 1.09zm-33.87-32.03h4.43v3.42h-4.43zm48.76 0h4.44v3.42h-4.44zm-48.76 48.95h4.43v3.42h-4.43zm48.76 0h4.44v3.42h-4.44z"/><path class="cls-3" d="M318.45 187h-45.67a7.89 7.89 0 00-7.89 7.89v45.67a7.9 7.9 0 007.89 7.9h45a8.56 8.56 0 008.56-8.56v-45a7.9 7.9 0 00-7.89-7.9z"/><path class="cls-8" d="M317.79 250.16h-45a9.62 9.62 0 01-9.61-9.6v-45.68a9.62 9.62 0 019.61-9.6h45.67a9.62 9.62 0 019.61 9.6v45a10.29 10.29 0 01-10.28 10.28zm-45-61.46a6.18 6.18 0 00-6.18 6.18v45.68a6.18 6.18 0 006.18 6.18h45a6.86 6.86 0 006.85-6.85v-45a6.19 6.19 0 00-6.19-6.18z"/><path class="cls-5" d="M319 217.72a23.39 23.39 0 11-23.38-23.38A23.38 23.38 0 01319 217.72z"/><path class="cls-3" d="M298.52 217.72a2.9 2.9 0 11-2.9-2.9 2.9 2.9 0 012.9 2.9z"/><path class="cls-8" d="M295.62 222.33a4.61 4.61 0 114.61-4.61 4.62 4.62 0 01-4.61 4.61zm0-5.8a1.19 1.19 0 100 2.38 1.19 1.19 0 000-2.38z"/><path class="cls-8" d="M295.62 242.81a25.09 25.09 0 1125.09-25.09 25.13 25.13 0 01-25.09 25.09zm0-46.76a21.67 21.67 0 1021.67 21.67 21.69 21.69 0 00-21.67-21.67z"/><path class="cls-3" d="M301.66 213l-5-3.1a5.38 5.38 0 01-1.74-1.78l-5-8.49a.39.39 0 01.34-.59h10.46a1.52 1.52 0 011.51 1.52v12.13a.36.36 0 01-.57.31zM291 211.56l-3.21 4.89a5.23 5.23 0 01-1.83 1.7l-8.6 4.85a.39.39 0 01-.58-.34l.22-10.46a1.52 1.52 0 011.55-1.48l12.13.28a.37.37 0 01.32.56zm-1.64 10.62l4.81 3.33a5.39 5.39 0 011.66 1.86l4.65 8.71a.39.39 0 01-.36.57l-10.44-.48a1.52 1.52 0 01-1.45-1.58l.56-12.12a.36.36 0 01.57-.29zm10.58 1.9l3.43-4.74a5.37 5.37 0 011.9-1.61l8.81-4.45a.39.39 0 01.57.37l-.72 10.43a1.52 1.52 0 01-1.62 1.41l-12.1-.84a.36.36 0 01-.27-.57z"/><path class="cls-8" d="M301.86 214.74a2.1 2.1 0 01-1.11-.32l-4.95-3.1a7 7 0 01-2.31-2.36l-5.05-8.48a2.11 2.11 0 011.81-3.18h10.46a3.23 3.23 0 013.22 3.23v12.13a2.08 2.08 0 01-2.07 2.08zm-9.29-14l3.86 6.48a3.59 3.59 0 001.18 1.21l2.9 1.81v-9.5zm-15.39 24.02a2.1 2.1 0 01-2.1-2.14l.24-10.46a3.28 3.28 0 013.3-3.15l12.13.28a2.08 2.08 0 011.69 3.21l-3.21 4.89a7 7 0 01-2.42 2.25l-8.6 4.85a2.09 2.09 0 01-1.03.27zm1.56-12.32l-.18 7.93 6.57-3.71a3.5 3.5 0 001.24-1.15l1.87-2.85zm21.4 25.92H300l-10.43-.48a3.23 3.23 0 01-3.08-3.37l.56-12.12a2.1 2.1 0 011.15-1.77 2.08 2.08 0 012.1.16l4.81 3.32a6.93 6.93 0 012.2 2.46l4.65 8.71a2.1 2.1 0 01-1.85 3.09zM290 234.47l7.93.36-3.56-6.66a3.54 3.54 0 00-1.12-1.25l-2.86-1.92zm22.42-7.27h-.22l-12.11-.83a2.07 2.07 0 01-1.54-3.28l3.44-4.74a7 7 0 012.51-2.14l8.81-4.45a2.1 2.1 0 013 2l-.72 10.43a3.22 3.22 0 01-3.17 3.01zm-9.67-4.09l9.48.66.55-7.92-6.74 3.4a3.58 3.58 0 00-1.28 1.1zm-33.87-31.99h4.43v3.42h-4.43zm48.76 0h4.43v3.42h-4.43zm-48.76 48.95h4.43v3.42h-4.43zm48.76 0h4.43v3.42h-4.43z"/><path class="cls-3" d="M380.25 187h-45.67a7.9 7.9 0 00-7.9 7.89v45.67a7.9 7.9 0 007.9 7.9h45a8.56 8.56 0 008.56-8.56v-45a7.89 7.89 0 00-7.89-7.9z"/><path class="cls-8" d="M379.58 250.16h-45a9.62 9.62 0 01-9.61-9.6v-45.68a9.62 9.62 0 019.61-9.6h45.67a9.61 9.61 0 019.6 9.6v45a10.28 10.28 0 01-10.27 10.28zm-45-61.46a6.19 6.19 0 00-6.19 6.18v45.68a6.19 6.19 0 006.19 6.18h45a6.85 6.85 0 006.85-6.85v-45a6.18 6.18 0 00-6.18-6.18z"/><path class="cls-5" d="M380.79 217.72a23.38 23.38 0 11-23.38-23.38 23.38 23.38 0 0123.38 23.38z"/><path class="cls-3" d="M360.31 217.72a2.9 2.9 0 11-2.9-2.9 2.9 2.9 0 012.9 2.9z"/><path class="cls-8" d="M357.41 222.33a4.61 4.61 0 114.61-4.61 4.62 4.62 0 01-4.61 4.61zm0-5.8a1.19 1.19 0 101.19 1.19 1.19 1.19 0 00-1.19-1.19z"/><path class="cls-8" d="M357.41 242.81a25.09 25.09 0 1125.09-25.09 25.12 25.12 0 01-25.09 25.09zm0-46.76a21.67 21.67 0 1021.67 21.67 21.69 21.69 0 00-21.67-21.67z"/><path class="cls-3" d="M363.46 213l-5-3.1a5.38 5.38 0 01-1.74-1.78l-5.05-8.49a.39.39 0 01.33-.63h10.5a1.51 1.51 0 011.51 1.52v12.13a.36.36 0 01-.55.35zm-10.66-1.44l-3.21 4.89a5.2 5.2 0 01-1.82 1.7l-8.6 4.85a.39.39 0 01-.58-.34l.24-10.46a1.52 1.52 0 011.55-1.48l12.13.28a.36.36 0 01.29.56zm-1.65 10.62l4.82 3.33a5.39 5.39 0 011.66 1.86l4.65 8.71a.39.39 0 01-.36.57l-10.45-.48a1.52 1.52 0 01-1.44-1.58l.56-12.12a.36.36 0 01.56-.29zm10.58 1.9l3.44-4.74a5.25 5.25 0 011.89-1.61l8.82-4.45a.38.38 0 01.56.37l-.72 10.43a1.51 1.51 0 01-1.61 1.41l-12.11-.84a.36.36 0 01-.27-.57z"/><path class="cls-8" d="M363.65 214.74a2.1 2.1 0 01-1.1-.32l-5-3.1a6.93 6.93 0 01-2.3-2.36l-5.05-8.48a2.1 2.1 0 011.81-3.18h10.49a3.23 3.23 0 013.22 3.23v12.13a2.08 2.08 0 01-2.07 2.08zm-9.28-14l3.86 6.48a3.57 3.57 0 001.17 1.21l2.9 1.81v-9.5zM339 224.76a2.13 2.13 0 01-1.09-.3 2.08 2.08 0 01-1-1.84l.24-10.46a3.33 3.33 0 013.29-3.15l12.14.28a2.07 2.07 0 011.68 3.22l-3.26 4.88a6.93 6.93 0 01-2.41 2.25l-8.6 4.85a2.11 2.11 0 01-.99.27zm1.55-12.32l-.18 7.93 6.58-3.71a3.47 3.47 0 001.23-1.15l1.88-2.85zm21.39 25.92h-.11l-10.44-.48a3.23 3.23 0 01-3.07-3.37l.56-12.12a2.06 2.06 0 013.25-1.61l4.81 3.32a7.13 7.13 0 012.2 2.46l4.65 8.71a2.12 2.12 0 01-.09 2.12 2.07 2.07 0 01-1.76.97zm-10.19-3.89l7.92.36-3.55-6.66a3.57 3.57 0 00-1.13-1.25l-2.81-1.92zm22.46-7.27H374l-12.12-.83a2.07 2.07 0 01-1.53-3.28l3.43-4.74a7 7 0 012.51-2.14l8.82-4.45a2.08 2.08 0 012.11.13 2.11 2.11 0 01.93 1.89l-.72 10.43a3.23 3.23 0 01-3.22 2.99zm-9.66-4.09l9.48.66.54-7.92-6.73 3.4a3.61 3.61 0 00-1.29 1.1zm-33.87-31.99h4.43v3.42h-4.43zm48.75 0h4.44v3.42h-4.44zm-48.75 48.95h4.43v3.42h-4.43zm48.75 0h4.44v3.42h-4.44z"/><path class="cls-3" d="M441.71 187H396a7.9 7.9 0 00-7.9 7.89v45.67a7.9 7.9 0 007.9 7.9h45a8.56 8.56 0 008.56-8.56v-45a7.9 7.9 0 00-7.85-7.9z"/><path class="cls-8" d="M441.05 250.16H396a9.62 9.62 0 01-9.61-9.6v-45.68a9.62 9.62 0 019.61-9.6h45.67a9.62 9.62 0 019.61 9.6v45a10.29 10.29 0 01-10.23 10.28zM396 188.7a6.19 6.19 0 00-6.19 6.18v45.68a6.19 6.19 0 006.19 6.18h45a6.85 6.85 0 006.84-6.85v-45a6.18 6.18 0 00-6.18-6.18z"/><path class="cls-5" d="M442.26 217.72a23.39 23.39 0 11-23.39-23.38 23.39 23.39 0 0123.39 23.38z"/><path class="cls-3" d="M421.77 217.72a2.9 2.9 0 11-2.9-2.9 2.9 2.9 0 012.9 2.9z"/><path class="cls-8" d="M418.87 222.33a4.61 4.61 0 114.62-4.61 4.62 4.62 0 01-4.62 4.61zm0-5.8a1.19 1.19 0 101.19 1.19 1.19 1.19 0 00-1.19-1.19z"/><path class="cls-8" d="M418.87 242.81A25.09 25.09 0 11444 217.72a25.12 25.12 0 01-25.13 25.09zm0-46.76a21.67 21.67 0 1021.67 21.67 21.7 21.7 0 00-21.67-21.67z"/><path class="cls-3" d="M424.92 213l-5-3.1a5.38 5.38 0 01-1.74-1.78l-5.05-8.49a.39.39 0 01.34-.59H424a1.52 1.52 0 011.52 1.52v12.13a.37.37 0 01-.6.31zm-10.65-1.44l-3.22 4.89a5.12 5.12 0 01-1.82 1.7l-8.6 4.85a.39.39 0 01-.58-.34l.24-10.46a1.52 1.52 0 011.55-1.48L414 211a.37.37 0 01.27.56zm-1.65 10.62l4.81 3.33a5.39 5.39 0 011.66 1.86l4.65 8.71a.39.39 0 01-.36.57l-10.45-.48a1.52 1.52 0 01-1.44-1.58l.56-12.12a.36.36 0 01.57-.29zm10.57 1.9l3.44-4.74a5.2 5.2 0 011.9-1.61l8.81-4.45a.38.38 0 01.56.37l-.72 10.43a1.51 1.51 0 01-1.61 1.41l-12.11-.84a.36.36 0 01-.27-.57z"/><path class="cls-8" d="M425.11 214.74a2.1 2.1 0 01-1.1-.32l-5-3.1a7 7 0 01-2.3-2.36l-5.05-8.48a2.1 2.1 0 011.81-3.18H424a3.23 3.23 0 013.23 3.23v12.13a2.08 2.08 0 01-1.07 1.82 2.11 2.11 0 01-1.05.26zm-9.28-14l3.86 6.48a3.59 3.59 0 001.18 1.21l2.89 1.81v-9.5zm-15.39 24.02a2.16 2.16 0 01-1.08-.29 2.14 2.14 0 01-1-1.84l.24-10.47a3.33 3.33 0 013.29-3.15l12.14.28a2.08 2.08 0 011.69 3.21l-3.22 4.89a6.93 6.93 0 01-2.41 2.25l-8.6 4.85a2.11 2.11 0 01-1.05.27zm1.56-12.32l-.19 7.93 6.58-3.71a3.47 3.47 0 001.23-1.15l1.88-2.85zm21.4 25.92h-.11l-10.44-.48a3.23 3.23 0 01-3.07-3.37l.56-12.12a2.07 2.07 0 013.25-1.61l4.81 3.32a6.93 6.93 0 012.2 2.46l4.65 8.71a2.14 2.14 0 01-.08 2.12 2.1 2.1 0 01-1.77.97zm-10.19-3.89l7.93.36-3.56-6.66a3.57 3.57 0 00-1.13-1.25l-2.81-1.92zm22.46-7.27h-.21l-12.11-.83a2.07 2.07 0 01-1.54-3.28l3.43-4.74a7.09 7.09 0 012.51-2.14l8.82-4.45a2.1 2.1 0 013 2l-.72 10.43a3.23 3.23 0 01-3.18 3.01zm-9.67-4.09l9.48.66.55-7.92-6.74 3.4a3.7 3.7 0 00-1.29 1.1zm-33.86-31.99h4.44v3.42h-4.44zm48.75 0h4.44v3.42h-4.44zm-48.75 48.95h4.44v3.42h-4.44zm48.75 0h4.44v3.42h-4.44z"/><circle class="cls-3" cx="248.02" cy="132.4" r="27.55" transform="rotate(-76.65 248.004 132.398)"/><path class="cls-2" d="M248 104.84a27.54 27.54 0 00-23.72 13.58 27.52 27.52 0 0142.57 34A27.53 27.53 0 00248 104.84z"/><path class="cls-8" d="M249.8 135h-13.19v-3.42h13.19a4.56 4.56 0 000-9.11h-13.19V119h13.19a8 8 0 010 15.95z"/><path class="cls-8" d="M252.08 147.29h-15.47v-3.42h15.47c3.11 0 5.64-2 5.64-4.55s-2.53-4.56-5.64-4.56h-15.47v-3.42h15.47c5 0 9.06 3.58 9.06 8s-4.07 7.95-9.06 7.95z"/><path class="cls-8" d="M239.76 114.53h3.42v35.73h-3.42zm5.81 0h3.42v6.17h-3.42zm0 31.05h3.42v4.68h-3.42z"/><path class="cls-8" d="M248 161.66a29.27 29.27 0 1129.26-29.26A29.3 29.3 0 01248 161.66zm0-55.1a25.84 25.84 0 1025.84 25.84A25.87 25.87 0 00248 106.56zm-44 145.16h5.74v3.42H204zm0 8.59h5.74v3.42H204zm0 8.58h5.74v3.42H204zm0 8.59h5.74v3.42H204zm0 8.58h5.74v3.42H204zm0 8.59h5.74v3.42H204zm59.69-38.44h7.2v3.42h-7.2zm0 7.69h7.2v3.42h-7.2zm0 7.69h7.2v3.42h-7.2zm0 7.69h7.2v3.42h-7.2zm0 7.68h7.2v3.42h-7.2zm0 7.69h7.2v3.42h-7.2zm-48.27-51.42h3.42v7.2h-3.42zm7.68 0h3.42v7.2h-3.42zm7.69 0h3.42v7.2h-3.42zm7.69 0h3.42v7.2h-3.42zm7.69 0h3.42v7.2h-3.42zm7.68 0h3.42v7.2h-3.42zm-38.44 60.08h3.42v6.9h-3.42zm7.69 0h3.42v6.9h-3.42zm7.69 0h3.42v6.9h-3.42zm7.69 0h3.42v6.9h-3.42zm7.69 0h3.42v6.9h-3.42zm7.68 0h3.42v6.9h-3.42z"/><path fill="#d5d5fa" d="M209.75 250.43h53.95v52.89h-53.95z"/><path class="cls-3" d="M217.87 258.4h37.69v36.95h-37.69z"/><path class="cls-8" d="M265.4 305H208v-56.28h57.4zm-53.94-3.42H262v-49.44h-50.54z"/><path class="cls-8" d="M257.28 297.06h-41.12v-40.38h41.12zm-37.69-3.42h34.26v-33.53h-34.26z"/><path class="cls-8" d="M238.11 279.09h-10.35v-3.42h10.35a3.21 3.21 0 100-6.41h-10.35v-3.43h10.35a6.63 6.63 0 010 13.26z"/><path class="cls-8" d="M239.91 288.78h-12.15v-3.42h12.15c2.23 0 4.05-1.44 4.05-3.21s-1.82-3.2-4.05-3.2h-12.15v-3.42h12.15c4.12 0 7.48 3 7.48 6.62s-3.39 6.63-7.48 6.63z"/><path class="cls-8" d="M229.87 262.7h3.42v28.04h-3.42zm4.56 0h3.42v4.85h-3.42zm0 24.37h3.42v3.67h-3.42zM140.63 160h-3.43v-10.53a20 20 0 0120-20h56.9v3.42h-56.9a16.59 16.59 0 00-16.57 16.58zm217.77 0H355v-10.53a16.6 16.6 0 00-16.58-16.58H281.5v-3.42h56.9a20 20 0 0120 20z"/><path class="cls-8" d="M138.91 169.84a5.71 5.71 0 115.71-5.71 5.71 5.71 0 01-5.71 5.71zm0-8a2.29 2.29 0 102.29 2.28 2.29 2.29 0 00-2.29-2.27zm217.87 8a5.71 5.71 0 115.7-5.71 5.71 5.71 0 01-5.7 5.71zm0-8a2.29 2.29 0 102.28 2.28 2.29 2.29 0 00-2.28-2.27zm108.09 150.09h-418a1.72 1.72 0 010-3.43h418a1.72 1.72 0 010 3.43zm12.37 0h-6.19a1.72 1.72 0 010-3.43h6.19a1.72 1.72 0 010 3.43zm-437.69 0h-10.5a1.72 1.72 0 010-3.43h10.5a1.72 1.72 0 010 3.43z"/></svg>