<svg id="Layer_1" data-name="Layer 1" xmlns="http://www.w3.org/2000/svg" viewBox="0 0 500 340"><defs><style>.cls-1{opacity:.2}.cls-2{fill:#cacaf9}.cls-3{fill:#eaeafd}.cls-4{fill:#fff}.cls-5{fill:#8c8cf9}.cls-6{fill:#a3a3fa}.cls-8{opacity:.3}</style></defs><g class="cls-1"><path class="cls-2" d="M449.87 308.22a193.23 193.23 0 00-16.7-78.82 61.18 61.18 0 00-73.26-84.93 193 193 0 00-104-30.23q-7.15 0-14.18.51A50 50 0 00165 136.83a195 195 0 00-40.46 28.67 55.38 55.38 0 00-67.67 54 55.12 55.12 0 0012.56 35.11 194 194 0 00-7.51 53.61z"/></g><g class="cls-1"><path class="cls-2" d="M396.8 308.22a140.92 140.92 0 00-281.83 0z"/></g><g class="cls-1"><path class="cls-2" d="M469.48 234.18a11 11 0 11-11-11.05 11 11 0 0111 11.05z"/></g><g class="cls-1"><circle class="cls-2" cx="298.25" cy="96.37" r="17.02" transform="rotate(-76.67 298.263 96.372)"/></g><g class="cls-1"><path class="cls-2" d="M142.83 138a7.29 7.29 0 11-7.29-7.29 7.29 7.29 0 017.29 7.29z"/></g><g class="cls-1"><circle class="cls-2" cx="365.16" cy="124.6" r="7.29"/></g><g class="cls-1"><path class="cls-2" d="M211.68 75.29a7.29 7.29 0 11-7.29-7.29 7.29 7.29 0 017.29 7.29z"/></g><g class="cls-1"><path class="cls-2" d="M457.44 260.9a3 3 0 11-3-3 3 3 0 013 3z"/></g><g class="cls-1"><path class="cls-2" d="M364 73a2.25 2.25 0 11-2.24-2.24A2.24 2.24 0 01364 73z"/></g><g class="cls-1"><path class="cls-2" d="M141.35 84.24a2.93 2.93 0 11-2.92-2.93 2.92 2.92 0 012.92 2.93z"/></g><g class="cls-1"><path class="cls-2" d="M19.78 149.54a3.89 3.89 0 11-3.89-3.89 3.89 3.89 0 013.89 3.89z"/></g><g class="cls-1"><circle class="cls-2" cx="484.11" cy="178.04" r="3.89"/></g><g class="cls-1"><circle class="cls-2" cx="78.38" cy="133.8" r="16.49"/></g><g class="cls-1"><path class="cls-2" d="M33.72 254.06a3.89 3.89 0 11-3.89-3.88 3.89 3.89 0 013.89 3.88z"/></g><g class="cls-1"><path class="cls-2" d="M463.38 138a16 16 0 11-16-16 16 16 0 0116 16z"/></g><g class="cls-1"><path class="cls-2" d="M45.54 210.2a15.72 15.72 0 11-15.71-15.71 15.71 15.71 0 0115.71 15.71z"/></g><path class="cls-3" d="M289.05 177.87h.58a21.29 21.29 0 0132-12 29.18 29.18 0 0156.71-4.2 20 20 0 0125 16.2h3.26a15 15 0 0115 15v1.1a15 15 0 01-15 15H289.05a15 15 0 01-15-15v-1.1a15 15 0 0115-15z"/><path class="cls-4" d="M299.18 183h.49a17.76 17.76 0 0126.66-10 24.33 24.33 0 0147.28-3.5 16.64 16.64 0 0120.84 13.5h2.72a12.52 12.52 0 0112.48 12.48v.92a12.52 12.52 0 01-12.48 12.49h-98a12.52 12.52 0 01-12.48-12.49v-.92A12.52 12.52 0 01299.18 183z"/><path class="cls-5" d="M331.39 164.43l-2.85-1.85a26 26 0 0135.08-8.24l-1.73 2.93a22.63 22.63 0 00-30.5 7.16z"/><path class="cls-5" d="M406.58 210.62H289.05a16.7 16.7 0 01-16.68-16.68v-1.1a16.69 16.69 0 0116-16.66 23.15 23.15 0 0121.72-15.4 22.9 22.9 0 0110.28 2.44 30.89 30.89 0 0159.05-3.56 21.3 21.3 0 014.09-.4 21.61 21.61 0 0121.19 16.9h1.86a16.7 16.7 0 0116.68 16.68v1.1a16.7 16.7 0 01-16.66 16.68zm-117.53-31.05a13.28 13.28 0 00-13.27 13.27v1.1a13.29 13.29 0 0013.27 13.28h117.53a13.29 13.29 0 0013.27-13.28v-1.1a13.28 13.28 0 00-13.27-13.27h-4.72l-.22-1.44a18.2 18.2 0 00-22.88-14.81l-1.58.42-.48-1.56a27.48 27.48 0 00-53.4 3.95l-.4 2.59-2.21-1.42a19.51 19.51 0 00-10.58-3.11 19.71 19.71 0 00-18.84 14.15l-.36 1.23z"/><path class="cls-5" d="M374.47 171.27h-3.41a12.12 12.12 0 0112.1-12.1v3.41a8.7 8.7 0 00-8.69 8.69z"/><path class="cls-3" d="M157.87 182h.37a13.22 13.22 0 0119.87-7.45 18.13 18.13 0 0135.23-2.61 12.28 12.28 0 013.23-.44 12.46 12.46 0 0112.3 10.5h2a9.33 9.33 0 019.3 9.3v.7a9.33 9.33 0 01-9.3 9.3h-73a9.33 9.33 0 01-9.3-9.3v-.69a9.33 9.33 0 019.3-9.31z"/><path class="cls-4" d="M164.17 185.19h.3A11 11 0 01181 179a15.11 15.11 0 0129.37-2.17 10.33 10.33 0 0113 8.39h1.69a7.78 7.78 0 017.75 7.75v.57a7.78 7.78 0 01-7.75 7.76h-60.89a7.78 7.78 0 01-7.76-7.76v-.57a7.78 7.78 0 017.76-7.78z"/><path class="cls-5" d="M184.72 174l-2.85-1.85a16.79 16.79 0 0122.66-5.32l-1.73 2.93a13.41 13.41 0 00-18.08 4.24z"/><path class="cls-5" d="M230.9 203h-12.14v-3.4h12.14a7.6 7.6 0 007.59-7.6v-.69a7.6 7.6 0 00-7.59-7.6h-3.49l-.23-1.43a10.68 10.68 0 00-13.4-8.69l-1.58.43-.49-1.57a16.43 16.43 0 00-31.92 2.37l-.4 2.59-2.2-1.42a11.54 11.54 0 00-17.32 6.49l-.35 1.23h-1.65a7.61 7.61 0 00-7.6 7.6v.69a7.61 7.61 0 007.6 7.6h47.18v3.4h-47.18a11 11 0 01-11-11v-.69a11 11 0 0110.13-11 15 15 0 0119.92-8.31 19.84 19.84 0 0137.53-2 14.1 14.1 0 0115.8 10.34h.65a11 11 0 0111 11v.66a11 11 0 01-11 11z"/><path class="cls-5" d="M211.59 177.88h-3.41a8.17 8.17 0 018.16-8.16v3.41a4.75 4.75 0 00-4.75 4.75zm183.07-61.58h-86.5a1.71 1.71 0 010-3.41h86.5a1.71 1.71 0 010 3.41zm-282.55 43.36H52.19a1.7 1.7 0 010-3.4h59.92a1.7 1.7 0 110 3.4zm74.48-28.05h-100a1.71 1.71 0 010-3.41h100a1.71 1.71 0 010 3.41zm14.95 0h-8.14a1.71 1.71 0 010-3.41h8.14a1.71 1.71 0 010 3.41zm97.53-15.31h-7.51a1.71 1.71 0 010-3.41h7.51a1.71 1.71 0 110 3.41zm-18.69 0h-9.71a1.71 1.71 0 010-3.41h9.71a1.71 1.71 0 010 3.41z"/><path class="cls-5" d="M275.52 121.15a1.7 1.7 0 01-1.7-1.7v-9.71a1.71 1.71 0 013.41 0v9.71a1.71 1.71 0 01-1.71 1.7zM220 131.61h-9.7a1.71 1.71 0 110-3.41h9.7a1.71 1.71 0 110 3.41z"/><path class="cls-5" d="M215.19 136.46a1.7 1.7 0 01-1.7-1.7v-9.71a1.7 1.7 0 113.4 0v9.71a1.7 1.7 0 01-1.7 1.7zm89.27 8.3h-9.7a1.71 1.71 0 110-3.41h9.7a1.71 1.71 0 110 3.41z"/><path class="cls-5" d="M299.61 149.61a1.7 1.7 0 01-1.7-1.7v-9.71a1.7 1.7 0 013.4 0v9.71a1.7 1.7 0 01-1.7 1.7zM460 197.59a1.71 1.71 0 01-1.21-2.91l6.87-6.87a1.7 1.7 0 112.4 2.41l-6.86 6.87a1.71 1.71 0 01-1.2.5z"/><path class="cls-5" d="M466.81 197.59a1.69 1.69 0 01-1.2-.5l-6.87-6.87a1.7 1.7 0 112.41-2.41l6.86 6.87a1.71 1.71 0 01-1.2 2.91zM39.37 122.25a1.71 1.71 0 01-1.21-2.91l6.84-6.86a1.7 1.7 0 012.41 2.4l-6.87 6.87a1.71 1.71 0 01-1.17.5z"/><path class="cls-5" d="M46.23 122.25a1.71 1.71 0 01-1.2-.5l-6.87-6.87a1.7 1.7 0 012.41-2.4l6.87 6.86a1.71 1.71 0 01-1.21 2.91zm79.01 40.84a1.7 1.7 0 01-1.21-2.9l6.87-6.87a1.7 1.7 0 112.4 2.41l-6.86 6.86a1.66 1.66 0 01-1.2.5z"/><path class="cls-5" d="M132.1 163.09a1.65 1.65 0 01-1.2-.5l-6.9-6.86a1.7 1.7 0 112.41-2.41l6.86 6.87a1.68 1.68 0 010 2.4 1.65 1.65 0 01-1.17.5zM58.49 199.9l-2.68 1.55-2.67-1.55v-3.09l2.67-1.54 2.68 1.54v3.09zm371.33-32.28l-2.68 1.54-2.67-1.54v-3.09l2.67-1.55 2.68 1.55v3.09zM200.46 95.49l-6.01 3.47-6-3.47v-6.93l6-3.46 6.01 3.46v6.93zm-81.26 16.04l-3.94 2.27-3.94-2.27v-4.55l3.94-2.28 3.94 2.28v4.55zm322.71-4.55l-3.94 2.27-3.94-2.27v-4.55l3.94-2.28 3.94 2.28v4.55zm-.09 26.89H362a1.7 1.7 0 110-3.4h79.83a1.7 1.7 0 110 3.4zM47.81 240.56a5.68 5.68 0 115.68-5.68 5.69 5.69 0 01-5.68 5.68zm0-7.95a2.27 2.27 0 102.27 2.27 2.27 2.27 0 00-2.27-2.27zM469.48 241a5.68 5.68 0 115.68-5.68 5.68 5.68 0 01-5.68 5.68zm0-8a2.27 2.27 0 102.27 2.27 2.27 2.27 0 00-2.27-2.27zm-127.68 5.39h-13.73a9.38 9.38 0 110-18.76h7.8a1.7 1.7 0 110 3.4h-7.8a6 6 0 100 11.95h13.73a6 6 0 006-6 1.7 1.7 0 113.4 0 9.39 9.39 0 01-9.4 9.41z"/><path class="cls-5" d="M359 238.39h-7.8a1.71 1.71 0 110-3.41h7.8a6 6 0 100-11.98h-13.69a6 6 0 00-6 6 1.7 1.7 0 01-3.4 0 9.38 9.38 0 019.38-9.38H359a9.38 9.38 0 010 18.76z"/><path class="cls-5" d="M334.32 230.71h-4.85a1.71 1.71 0 110-3.41h4.85a1.71 1.71 0 010 3.41zm24.78 0h-4.85a1.71 1.71 0 010-3.41h4.85a1.71 1.71 0 010 3.41zm-12.47 0h-4.85a1.71 1.71 0 010-3.41h4.85a1.71 1.71 0 110 3.41zm-88.48-52.08a9.39 9.39 0 01-9.38-9.38v-7.81a1.71 1.71 0 013.41 0v7.81a6 6 0 0011.95 0v-13.74a6 6 0 00-6-6 1.71 1.71 0 010-3.41 9.39 9.39 0 019.38 9.38v13.74a9.39 9.39 0 01-9.36 9.41z"/><path class="cls-5" d="M258.15 161.39a9.39 9.39 0 01-9.38-9.38v-13.74a9.38 9.38 0 0118.76 0v7.81a1.7 1.7 0 11-3.4 0v-7.81a6 6 0 00-11.95 0V152a6 6 0 006 6 1.71 1.71 0 110 3.41z"/><path class="cls-5" d="M258.15 169.55a1.7 1.7 0 01-1.7-1.7V163a1.71 1.71 0 113.41 0v4.85a1.71 1.71 0 01-1.71 1.7zm0-24.78a1.7 1.7 0 01-1.7-1.7v-4.85a1.71 1.71 0 113.41 0v4.85a1.71 1.71 0 01-1.71 1.7zm0 12.46a1.7 1.7 0 01-1.7-1.7v-4.85a1.71 1.71 0 013.41 0v4.85a1.71 1.71 0 01-1.71 1.7zm-78.72 81.16h-13.74a9.38 9.38 0 010-18.76h7.81a1.7 1.7 0 010 3.4h-7.81a6 6 0 000 11.95h13.74a6 6 0 006-6 1.7 1.7 0 113.4 0 9.39 9.39 0 01-9.4 9.41z"/><path class="cls-5" d="M196.67 238.39h-7.81a1.71 1.71 0 010-3.41h7.81a6 6 0 000-11.95h-13.74a6 6 0 00-6 6 1.71 1.71 0 01-3.41 0 9.39 9.39 0 019.38-9.38h13.74a9.38 9.38 0 110 18.76z"/><path class="cls-5" d="M171.94 230.71h-4.85a1.71 1.71 0 010-3.41h4.85a1.71 1.71 0 110 3.41zm24.78 0h-4.84a1.71 1.71 0 110-3.41h4.84a1.71 1.71 0 110 3.41zm-12.46 0h-4.85a1.71 1.71 0 010-3.41h4.85a1.71 1.71 0 010 3.41z"/><path class="cls-2" d="M373.92 201.64h66.48v66.48h-66.48z"/><path class="cls-6" d="M434.53 201.64v60.61h-60.61v5.87h66.48v-66.48h-5.87z"/><path class="cls-5" d="M442.11 269.82h-69.89v-69.89h69.89zm-66.49-3.4h63.08v-63.08h-63.08z"/><path class="cls-2" d="M82.1 201.64h66.48v66.48H82.1z"/><path class="cls-6" d="M142.71 201.64v60.61H82.1v5.87h66.49v-66.48h-5.88z"/><path class="cls-5" d="M150.29 269.82H80.4v-69.89h69.89zm-66.48-3.4h63.07v-63.08H83.81z"/><path fill="#bdbdff" d="M210.55 183.47h102.82v102.82H210.55z"/><g class="cls-8"><path class="cls-5" d="M304.29 183.47v93.73h-93.74v9.09h102.82V183.47h-9.08z"/></g><path class="cls-5" d="M315.07 288H208.85V181.77h106.22zm-102.81-3.4h99.41v-99.43h-99.41z"/><g class="cls-8"><path class="cls-5" d="M150.29 231a36.31 36.31 0 00-6.88-.68 35.69 35.69 0 00-35 28 26.51 26.51 0 00-28 2.18v9.31h69.89z"/></g><g class="cls-8"><path class="cls-5" d="M397.19 257.35h-.34v-.1a11.17 11.17 0 00-2.53.32l-.74.1a28 28 0 00-21.36-17.85v30h43.41a19.76 19.76 0 00-18.44-12.47z"/></g><path class="cls-3" d="M307 280.06h.53a19.32 19.32 0 0129-10.88 26.46 26.46 0 0151.43-3.81 18.43 18.43 0 014.73-.64 18.17 18.17 0 0117.94 15.33h3a13.62 13.62 0 0113.58 13.58v1a13.62 13.62 0 01-13.58 13.58H307a13.62 13.62 0 01-13.58-13.58v-1A13.62 13.62 0 01307 280.06z"/><path class="cls-4" d="M316.14 284.75h.44a16.11 16.11 0 0124.19-9.08 22.07 22.07 0 0142.88-3.17 15 15 0 013.93-.54 15.15 15.15 0 0115 12.79H405a11.36 11.36 0 0111.33 11.32v.83A11.36 11.36 0 01405 308.22h-88.86a11.35 11.35 0 01-11.32-11.32v-.83a11.35 11.35 0 0111.32-11.32z"/><path class="cls-5" d="M345.49 268l-2.86-1.85a23.76 23.76 0 0132-7.53l-1.74 2.94a20.34 20.34 0 00-27.4 6.44z"/><path class="cls-5" d="M413.55 309.93H307a15.3 15.3 0 01-15.28-15.29v-1a15.29 15.29 0 0114.57-15.26 21 21 0 0129-11.84 28.18 28.18 0 0153.71-3.17 19.34 19.34 0 013.61-.34A19.76 19.76 0 01412 278.36h1.56a15.31 15.31 0 0115.29 15.28v1a15.31 15.31 0 01-15.3 15.29zM307 281.77a11.89 11.89 0 00-11.88 11.87v1A11.89 11.89 0 00307 306.52h106.6a11.89 11.89 0 0011.88-11.88v-1a11.89 11.89 0 00-11.88-11.87h-4.41l-.23-1.44a16.35 16.35 0 00-20.6-13.33l-1.58.42-.49-1.56a24.76 24.76 0 00-48.12 3.56l-.4 2.59-2.2-1.42a17.61 17.61 0 00-26.45 9.93l-.36 1.23z"/><path class="cls-5" d="M384.58 274.08h-3.4A11.14 11.14 0 01392.31 263v3.41a7.73 7.73 0 00-7.73 7.67zM68.19 236.82H52.33a1.7 1.7 0 110-3.4h15.86a1.7 1.7 0 110 3.4zm397.18 0H449.5a1.7 1.7 0 010-3.4h15.87a1.7 1.7 0 010 3.4zm-241.49-32.57h6.45v3.41h-6.45zm0 9.66h6.45v3.41h-6.45zm0 9.65h6.45v3.41h-6.45zm0 9.64h6.45v3.41h-6.45zm0 9.65h6.45v3.41h-6.45zm0 9.66h6.45v3.41h-6.45zm67.09-43.21h8.09v3.41h-8.09zm0 8.64h8.09v3.41h-8.09zm0 8.64h8.09v3.41h-8.09zm0 8.64h8.09v3.41h-8.09zm0 8.65h8.09v3.41h-8.09zm0 8.64h8.09v3.41h-8.09zm-54.04-58.02h3.41v8.09h-3.41zm8.64 0h3.41v8.09h-3.41zm8.64 0h3.41v8.09h-3.41zm8.64 0h3.41v8.09h-3.41zm8.64 0h3.41v8.09h-3.41zm8.64 0h3.41v8.09h-3.41zm-43.2 67.53h3.41v7.76h-3.41zm8.64 0h3.41v7.76h-3.41zm8.64 0h3.41v7.76h-3.41zm8.64 0h3.41v7.76h-3.41zm8.64 0h3.41v7.76h-3.41zm8.64 0h3.41v7.76h-3.41z"/><path fill="#d5d5fa" d="M230.33 202.58h60.63v59.44h-60.63z"/><path class="cls-4" d="M239.47 211.54h42.36v41.53h-42.36z"/><path class="cls-5" d="M292.67 263.73h-64v-62.85h64zM232 260.32h57.22v-56H232z"/><path class="cls-5" d="M283.54 254.77h-45.77v-44.94h45.77zm-42.37-3.4h39v-38.13h-39z"/><path class="cls-5" d="M262.22 234.58h-11.63v-3.41h11.63a3.83 3.83 0 000-7.65h-11.63v-3.4h11.63a7.23 7.23 0 010 14.46z"/><path class="cls-5" d="M264.23 245.47h-13.64v-3.41h13.64c2.64 0 4.78-1.71 4.78-3.82s-2.14-3.82-4.78-3.82h-13.64V231h13.64c4.52 0 8.19 3.24 8.19 7.23s-3.67 7.24-8.19 7.24z"/><path class="cls-5" d="M253.17 216.38h3.41v31.52h-3.41zm5.13 0h3.41v5.44h-3.41zm0 27.39h3.41v4.12h-3.41z"/><g class="cls-8"><path class="cls-5" d="M270.11 284.3h-1.58a19.9 19.9 0 00-19.48-15.45h-.34v-.1a11.43 11.43 0 00-2.56.32c-.24 0-.49.06-.74.11a28.24 28.24 0 00-26.6-18.46 28.6 28.6 0 00-10 1.79V288h71.24a15.3 15.3 0 00-9.94-3.7z"/></g><path class="cls-3" d="M173.38 285.48h.42a15.61 15.61 0 0123.43-8.78 21.37 21.37 0 0141.53-3.08 14.61 14.61 0 0118.3 11.86h2.39a11 11 0 0111 11v.81a11 11 0 01-11 11h-86.07a11 11 0 01-11-11v-.81a11 11 0 0111-11z"/><path class="cls-4" d="M180.8 289.27h.35a13 13 0 0119.53-7.33 17.81 17.81 0 0134.62-2.56 12 12 0 013.19-.44 12.25 12.25 0 0112.08 10.33h2a9.16 9.16 0 019.14 9.14v.67a9.16 9.16 0 01-9.14 9.14H180.8a9.17 9.17 0 01-9.15-9.14v-.67a9.17 9.17 0 019.15-9.14z"/><path class="cls-5" d="M204.77 275.89l-2.86-1.89a19.51 19.51 0 0126.31-6.18l-1.73 2.93a16.12 16.12 0 00-21.72 5.1z"/><path class="cls-5" d="M259.45 309.93h-86.07a12.68 12.68 0 01-12.67-12.67v-.81a12.69 12.69 0 0111.86-12.64 17.42 17.42 0 0116.23-11.3 17.24 17.24 0 017.2 1.59 23.08 23.08 0 0143.85-2.46 16.28 16.28 0 0118.58 12.14h1a12.68 12.68 0 0112.67 12.67v.81a12.68 12.68 0 01-12.65 12.67zm-86.07-22.74a9.27 9.27 0 00-9.27 9.26v.81a9.27 9.27 0 009.27 9.26h86.07a9.27 9.27 0 009.27-9.26v-.81a9.27 9.27 0 00-9.27-9.26h-3.84l-.23-1.44a12.89 12.89 0 00-16.18-10.48l-1.58.42-.49-1.56a19.67 19.67 0 00-38.22 2.87l-.4 2.59-2.2-1.42a13.9 13.9 0 00-20.87 7.83l-.36 1.23z"/><path class="cls-5" d="M236.39 280.65H233a9.33 9.33 0 019.32-9.31v3.4a5.92 5.92 0 00-5.93 5.91z"/><g class="cls-8"><path class="cls-5" d="M219.89 293.11V292a16.83 16.83 0 00-16.82-16.82h-1.89a21.62 21.62 0 00-2.8-6.82 23.43 23.43 0 00-2.38 5.74 17.24 17.24 0 00-7.22-1.59 17.42 17.42 0 00-16.23 11.3 12.69 12.69 0 00-11.86 12.64v.81a12.68 12.68 0 0012.67 12.67h29.69a16.84 16.84 0 0016.84-16.82z"/></g><path class="cls-3" d="M77.61 276.88h.59a21.5 21.5 0 0132.29-12.11 29.46 29.46 0 0157.24-4.24A20.17 20.17 0 01193 276.88h3.3A15.16 15.16 0 01211.37 292v1.11a15.16 15.16 0 01-15.11 15.11H77.61a15.16 15.16 0 01-15.11-15.11V292a15.16 15.16 0 0115.11-15.12z"/><path class="cls-4" d="M87.84 282.09h.49A17.93 17.93 0 01115.25 272a24.56 24.56 0 0147.75-3.54 17.16 17.16 0 014.39-.59A16.87 16.87 0 01184 282.09h2.75a12.64 12.64 0 0112.6 12.6v.93a12.64 12.64 0 01-12.6 12.6H87.84a12.64 12.64 0 01-12.6-12.6v-.93a12.64 12.64 0 0112.6-12.6z"/><path class="cls-5" d="M120.35 263.31l-2.86-1.86a26.24 26.24 0 0135.39-8.31l-1.73 2.93a22.85 22.85 0 00-30.8 7.24z"/><path class="cls-5" d="M196.26 309.93H77.61a16.84 16.84 0 01-16.82-16.82V292A16.84 16.84 0 0177 275.19a23.22 23.22 0 0132.31-13.08 31.16 31.16 0 0159.58-3.59 21.83 21.83 0 0125.52 16.66h1.89A16.84 16.84 0 01213.08 292v1.11a16.84 16.84 0 01-16.82 16.82zM77.61 278.58A13.43 13.43 0 0064.2 292v1.11a13.43 13.43 0 0013.41 13.41h118.65a13.43 13.43 0 0013.41-13.41V292a13.43 13.43 0 00-13.41-13.42h-4.75l-.23-1.43a18.42 18.42 0 00-23.11-15l-1.58.43-.48-1.57a27.76 27.76 0 00-53.94 4l-.4 2.59-2.2-1.42a19.81 19.81 0 00-29.73 11.16l-.36 1.22z"/><path class="cls-5" d="M163.83 270.22h-3.41A12.2 12.2 0 01172.61 258v3.4a8.79 8.79 0 00-8.78 8.82zm300.06 39.71H47.76a1.71 1.71 0 010-3.41h416.13a1.71 1.71 0 110 3.41zm12.32 0h-6.16a1.71 1.71 0 110-3.41h6.16a1.71 1.71 0 010 3.41zm-435.71 0H30.05a1.71 1.71 0 010-3.41H40.5a1.71 1.71 0 110 3.41z"/></svg>