<svg id="Layer_1" data-name="Layer 1" xmlns="http://www.w3.org/2000/svg" viewBox="0 0 500 340"><defs><style>.cls-1{opacity:.2}.cls-2{fill:#cacaf9}.cls-3{fill:#fff}.cls-4{fill:#8c8cf9}.cls-6{fill:#a3a3fa}.cls-10{opacity:.3}</style></defs><g class="cls-1"><path class="cls-2" d="M453.22 310.07a196.57 196.57 0 00-17-80.14 62.21 62.21 0 00-74.49-86.36A196.34 196.34 0 00256 112.83q-7.28 0-14.42.52a50.81 50.81 0 00-78 22.45 198.17 198.17 0 00-41.17 29.2 56.31 56.31 0 00-56 90.61 197.26 197.26 0 00-7.64 54.51z"/></g><g class="cls-1"><path class="cls-2" d="M399.26 310.07a143.28 143.28 0 00-286.56 0z"/></g><g class="cls-1"><path class="cls-2" d="M473.17 234.78a11.23 11.23 0 11-11.23-11.23 11.23 11.23 0 0111.23 11.23z"/></g><g class="cls-1"><circle class="cls-2" cx="299.06" cy="94.67" r="17.31" transform="rotate(-45 299.053 94.668)"/></g><g class="cls-1"><path class="cls-2" d="M141 137a7.42 7.42 0 11-7.42-7.42A7.42 7.42 0 01141 137z"/></g><g class="cls-1"><circle class="cls-2" cx="367.09" cy="123.36" r="7.41"/></g><g class="cls-1"><path class="cls-2" d="M211 73.23a7.42 7.42 0 11-7.41-7.41 7.41 7.41 0 017.41 7.41z"/></g><g class="cls-1"><path class="cls-2" d="M460.92 262a3 3 0 11-3-3 3 3 0 013 3z"/></g><g class="cls-1"><path class="cls-2" d="M365.88 70.94a2.29 2.29 0 11-2.29-2.28 2.29 2.29 0 012.29 2.28z"/></g><g class="cls-1"><circle class="cls-2" cx="136.55" cy="82.32" r="2.97"/></g><g class="cls-1"><path class="cls-2" d="M15.91 148.73a4 4 0 11-4-4 4 4 0 014 4z"/></g><g class="cls-1"><path class="cls-2" d="M492 177.7a4 4 0 11-3.95-3.95 4 4 0 013.95 3.95z"/></g><g class="cls-1"><circle class="cls-2" cx="75.5" cy="132.72" r="16.77"/></g><g class="cls-1"><path class="cls-2" d="M30.08 255a4 4 0 11-3.95-4 4 4 0 013.95 4z"/></g><g class="cls-1"><path class="cls-2" d="M467 137a16.26 16.26 0 11-16.25-16.26A16.26 16.26 0 01467 137z"/></g><g class="cls-1"><circle class="cls-2" cx="26.13" cy="210.41" r="15.98"/></g><circle class="cls-3" cx="420.89" cy="285.17" r="24.96" transform="rotate(-76.65 420.915 285.162)"/><path class="cls-2" d="M420.89 260.21a24.91 24.91 0 00-21.49 12.3 24.93 24.93 0 0138.6 30.83 24.94 24.94 0 00-17.07-43.13z"/><path class="cls-4" d="M420.89 311.86a26.69 26.69 0 1126.69-26.69 26.72 26.72 0 01-26.69 26.69zm0-49.92a23.23 23.23 0 1023.22 23.23 23.26 23.26 0 00-23.22-23.23z"/><path class="cls-4" d="M429.54 294.41h-16.78a1.95 1.95 0 01-1.37-3.34l12.78-12.62h-11.94a1.74 1.74 0 110-3.47h15.63a2 2 0 011.37 3.34L416.44 291h13.1a1.73 1.73 0 110 3.46z"/><path class="cls-4" d="M420.16 277.71a1.74 1.74 0 01-1.73-1.73v-4.62a1.74 1.74 0 013.47 0V276a1.74 1.74 0 01-1.74 1.71zm0 21.93a1.73 1.73 0 01-1.73-1.73v-4.62a1.74 1.74 0 013.47 0v4.62a1.73 1.73 0 01-1.74 1.73zm-9.27-215.58h-136.7a1.74 1.74 0 010-3.47h136.7a1.74 1.74 0 010 3.47zm-142.79 0h-5.62a1.74 1.74 0 010-3.47h5.62a1.74 1.74 0 010 3.47zm-14.83 0h-9.87a1.74 1.74 0 010-3.47h9.87a1.74 1.74 0 010 3.47z"/><path class="cls-4" d="M248.34 89a1.73 1.73 0 01-1.74-1.73v-9.88a1.74 1.74 0 013.47 0v9.87a1.73 1.73 0 01-1.73 1.74zm-40.97 15.87h-9.87a1.74 1.74 0 110-3.47h9.87a1.74 1.74 0 010 3.47z"/><path class="cls-4" d="M202.43 109.8a1.72 1.72 0 01-1.73-1.73V98.2a1.73 1.73 0 113.46 0v9.87a1.72 1.72 0 01-1.73 1.73zm109.06 0h-9.87a1.73 1.73 0 110-3.46h9.87a1.73 1.73 0 110 3.46z"/><path class="cls-4" d="M306.55 114.74a1.74 1.74 0 01-1.73-1.74v-9.86a1.74 1.74 0 113.47 0V113a1.74 1.74 0 01-1.74 1.74zM422 150a1.72 1.72 0 01-1.23-.5l-7-7a1.74 1.74 0 010-2.45 1.73 1.73 0 012.45 0l7 7a1.73 1.73 0 01-1.22 3z"/><path class="cls-4" d="M415.05 150a1.73 1.73 0 01-1.23-3l7-7a1.73 1.73 0 012.45 2.45l-7 7a1.71 1.71 0 01-1.22.55zM67.84 179.75a1.73 1.73 0 01-1.23-.51l-7-7a1.74 1.74 0 010-2.45 1.73 1.73 0 012.45 0l7 7a1.74 1.74 0 01-1.22 3z"/><path class="cls-4" d="M60.86 179.75a1.74 1.74 0 01-1.23-3l7-7a1.73 1.73 0 112.45 2.45l-7 7a1.7 1.7 0 01-1.22.55zM139 125.91a1.73 1.73 0 01-1.23-.51 1.74 1.74 0 010-2.45l7-7a1.74 1.74 0 012.45 0 1.73 1.73 0 010 2.45l-7 7a1.72 1.72 0 01-1.22.51z"/><path class="cls-4" d="M146 125.91a1.72 1.72 0 01-1.22-.51l-7-7a1.73 1.73 0 112.42-2.4l7 7a1.74 1.74 0 01-1.23 3zm19.62-21.04H62.53a1.74 1.74 0 010-3.47h103.09a1.74 1.74 0 010 3.47zm-33.39 18.49H47.54a1.73 1.73 0 010-3.46h84.69a1.73 1.73 0 010 3.46zm333.35-13.56H320.85a1.73 1.73 0 110-3.46h144.73a1.73 1.73 0 110 3.46zM189 104.87h-11.09a1.74 1.74 0 010-3.47H189a1.74 1.74 0 010 3.47zM39.79 156.61l4.38-2.53 4.39 2.53v5.06l-4.39 2.54-4.38-2.54v-5.06zM234.36 46.68l4.39-2.53 4.38 2.53v5.06l-4.38 2.53-4.39-2.53v-5.06zm208.72 195.26l2.6-1.5 2.61 1.5v3.01l-2.61 1.5-2.6-1.5v-3.01zm-387.59-3.12l2.61-1.5 2.61 1.5v3.01l-2.61 1.51-2.61-1.51v-3.01zm400.68-63.34l4.38-2.53 4.39 2.53v5.06l-4.39 2.54-4.38-2.54v-5.06zM173.21 68.08l5.92-3.41 5.91 3.41v6.83l-5.91 3.42-5.92-3.42v-6.83z"/><path class="cls-3" d="M215.75 281.63h81.26v28.5h-81.26z"/><path fill="#dfdffb" d="M215.75 281.63h81.26v14.25h-81.26z"/><rect class="cls-3" x="174.32" y="180.07" width="166.38" height="103.57" rx="3.86"/><path class="cls-6" d="M336.84 180.07a3.86 3.86 0 013.86 3.87v76.49H174.32v-76.49a3.87 3.87 0 013.87-3.87z"/><path d="M204.94 260.43h21.26l80.35-80.36h-21.26l-80.35 80.36zm24.77-80.36l-55.39 55.4v24.96h19.46l80.36-80.36h-44.43z" fill="#babafb" opacity=".6"/><path class="cls-4" d="M336.67 285.38H178a5.6 5.6 0 01-5.6-5.6v-95.84a5.6 5.6 0 015.6-5.6h158.67a5.6 5.6 0 015.59 5.6v95.84a5.6 5.6 0 01-5.59 5.6zM178 181.81a2.13 2.13 0 00-2.14 2.13v95.84a2.13 2.13 0 002.14 2.13h158.67a2.13 2.13 0 002.13-2.13v-95.84a2.13 2.13 0 00-2.13-2.13z"/><path class="cls-4" d="M214.01 283.65h3.46v26.48h-3.46zm81.26 0h3.46v26.48h-3.46z"/><path class="cls-4" d="M201.24 308.39H312.4v3.46H201.24zm-27.09-48.93h166.38v3.46H174.15z"/><path class="cls-3" d="M270.13 218.59h3.99v3.46h-3.99zm-10.03 0h3.99v3.46h-3.99zm-10.03 0h3.99v3.46h-3.99zm-10.02 0h3.99v3.46h-3.99zm80.38-81.94h-.63a23 23 0 00-34.57-13 31.54 31.54 0 00-61.3-4.54 21.6 21.6 0 00-27 17.51h-3.53a16.24 16.24 0 00-16.19 16.19V154a16.24 16.24 0 0016.19 16.19h127.03A16.24 16.24 0 00336.62 154v-1.19a16.24 16.24 0 00-16.19-16.16z"/><path class="cls-4" d="M320.43 172h-21.68v-3.47h21.68A14.47 14.47 0 00334.89 154v-1.19a14.48 14.48 0 00-14.46-14.46h-1.93l-.36-1.25a21.44 21.44 0 00-20.48-15.38 21.22 21.22 0 00-11.5 3.39l-2.24 1.44-.41-2.63a29.8 29.8 0 00-52.26-14.65A30.42 30.42 0 00228 114a29.79 29.79 0 00-2.45 5.69l-.49 1.6-1.61-.44a20.37 20.37 0 00-5.19-.7 19.82 19.82 0 00-19.67 16.81l-.23 1.46h-5a14.48 14.48 0 00-14.46 14.46V154a14.47 14.47 0 0014.46 14.45h23.56V172h-23.54a17.94 17.94 0 01-17.92-18v-1.19a17.94 17.94 0 0117.92-17.92h2.09a23.31 23.31 0 0127.32-17.82 33.06 33.06 0 012.22-4.84 33.61 33.61 0 013.6-5.19A33.26 33.26 0 01286.47 121a24.77 24.77 0 0134.6 14 18 18 0 0117.28 17.91V154a17.94 17.94 0 01-17.92 18z"/><path class="cls-4" d="M231.67 129.52h-3.47a9.51 9.51 0 00-9.5-9.5v-3.47a13 13 0 0112.97 12.97zM312 139.66h-3.46a9.51 9.51 0 00-9.5-9.5v-3.47A13 13 0 01312 139.66zm-71.48-29.77l-2.67-2.21a12.94 12.94 0 0110-4.69v3.46a9.49 9.49 0 00-7.33 3.44z"/><path class="cls-3" d="M287.88 174v-7.71l-6.45-1.76a24.42 24.42 0 00-3-7.27l3.86-6.29-5.45-5.45-6.36 3.78a24.34 24.34 0 00-7.26-3l-1.78-7h-7.71l-1.77 7a23.93 23.93 0 00-7.2 3l-6.13-3.64-5.47 5.44 3.62 6.13a24.49 24.49 0 00-3 7.26l-6.46 2v7.71l6.45 1.52a24.4 24.4 0 003 7.27l-3.88 6 5.44 5.46 6.38-3.44a24.25 24.25 0 007.26 3l1.8 7.42h7.71l1.74-7.41a24.29 24.29 0 007.27-3l6.38 3.74 5.46-5.44-3.87-6.25a24.52 24.52 0 003-7.26z"/><circle cx="256.74" cy="170" r="10.86" fill="#d5d5fa"/><path class="cls-4" d="M257.16 175.71l-8.57-8.57 2.45-2.45 6.12 6.12 13.46-13.46 2.45 2.45-15.91 15.91z"/><path class="cls-4" d="M256.74 182.6a12.6 12.6 0 116.11-23.6l-1.68 3a9.24 9.24 0 00-4.43-1.14 9.13 9.13 0 109.13 9.13h3.47a12.61 12.61 0 01-12.6 12.61z"/><path class="cls-4" d="M262.56 203.15h-10.44l-1.88-7.73a26.42 26.42 0 01-5.86-2.45l-6.65 3.59-7.35-7.37 4.06-6.23a26 26 0 01-2.39-5.78l-6.77-1.59v-10.35l6.76-2.12a26.26 26.26 0 012.45-5.9l-3.77-6.42 7.37-7.33 6.4 3.8a25.94 25.94 0 015.77-2.39l1.85-7.31h10.41l1.85 7.31a26.37 26.37 0 015.84 2.42l6.63-3.94 7.37 7.37-4 6.57a25.68 25.68 0 012.41 5.84l6.76 1.84v10.35l-6.76 1.87a25.71 25.71 0 01-2.42 5.84l4.05 6.52-7.38 7.36-6.67-3.92a25.72 25.72 0 01-5.82 2.41zm-7.72-3.48h5l1.67-7.13 1.05-.24a22.9 22.9 0 006.75-2.79l.89-.55 6.13 3.59 3.53-3.53-3.71-6 .56-.91a22.47 22.47 0 002.81-6.75l.24-1 6.17-1.7v-5.07l-6.17-1.69-.23-1a22.66 22.66 0 00-2.8-6.75l-.56-.91 3.7-6-3.54-3.54-6.1 3.63-.89-.55a22.66 22.66 0 00-6.75-2.8l-1-.24-1.7-6.72h-5l-1.7 6.72-1 .24a22.56 22.56 0 00-6.7 2.77l-.89.55-5.87-3.49-3.56 3.54 3.46 5.89-.55.89a22.69 22.69 0 00-2.82 6.74l-.22 1-6.2 1.94v5.07l6.17 1.44.24 1a22.38 22.38 0 002.79 6.75l.57.94-3.7 5.7 3.54 3.55 6.12-3.31.85.53a22.21 22.21 0 006.75 2.81l1 .25z"/><path class="cls-4" d="M255.58 146.3h3.29v3.46h-3.29z"/><path class="cls-4" transform="rotate(-44.96 273.008 154.579)" d="M271.28 152.93h3.46v3.29h-3.46z"/><path class="cls-4" transform="rotate(-89.93 279.525 170.373)" d="M277.89 168.64h3.29v3.46h-3.29z"/><path class="cls-4" transform="rotate(-44.92 272.986 186.153)" d="M271.33 184.42h3.29v3.46h-3.29z"/><path class="cls-4" transform="rotate(-89.88 257.186 192.658)" d="M255.44 191.02h3.46v3.29h-3.46z"/><path class="cls-4" transform="rotate(-44.85 241.379 186.078)" d="M239.67 184.44h3.46v3.29h-3.46z"/><path class="cls-4" transform="rotate(-89.81 234.912 170.274)" d="M233.26 168.54h3.29V172h-3.29z"/><path class="cls-4" transform="rotate(-44.79 241.492 154.514)" d="M239.85 152.78h3.29v3.46h-3.29z"/><circle class="cls-3" cx="131.21" cy="285.17" r="24.96" transform="rotate(-76.72 131.203 285.16)"/><path class="cls-2" d="M131.21 260.21a24.91 24.91 0 00-21.48 12.3 24.93 24.93 0 0138.56 30.83 24.94 24.94 0 00-17.08-43.13z"/><path class="cls-4" d="M131.21 311.86a26.69 26.69 0 1126.69-26.69 26.73 26.73 0 01-26.69 26.69zm0-49.92a23.23 23.23 0 1023.23 23.23 23.25 23.25 0 00-23.23-23.23z"/><path class="cls-4" d="M131.54 305.23a2.13 2.13 0 01-1.9-1.17l-7.64-11.8a2.25 2.25 0 012.86-3.26l6.36 3 6.44-3.06a2.25 2.25 0 012.9 3.19l-7.16 12a2.06 2.06 0 01-1.82 1.07zm-4.33-11.29l4.29 6.64 4.05-6.79-4.33 2z"/><path class="cls-4" transform="rotate(-89.93 131.2 277.2)" d="M120.85 275.47h20.72v3.46h-20.72z"/><path class="cls-4" d="M131.21 289.54l-8.94-3.24a2.11 2.11 0 01-1.24-1.21 2.09 2.09 0 01.09-1.73l8.52-16.58a2.28 2.28 0 011.94-1.16 2.14 2.14 0 011.9 1.23l7.86 16.56a2.12 2.12 0 01-1.19 2.89zm-6.31-6l6.31 2.29 6.36-2.31-6.08-12.8z"/><circle class="cls-3" cx="168.79" cy="285.17" r="24.96" transform="rotate(-76.72 168.782 285.167)"/><path class="cls-2" d="M168.79 260.21a24.91 24.91 0 00-21.48 12.3 24.93 24.93 0 0138.56 30.83 24.94 24.94 0 00-17.08-43.13z"/><path class="cls-4" d="M170.4 287.66h-11.94v-3.46h11.94a3.95 3.95 0 100-7.89h-11.94v-3.47h11.94a7.41 7.41 0 010 14.82z"/><path class="cls-4" d="M172.47 298.84h-14v-3.46h14c2.72 0 4.93-1.77 4.93-3.95s-2.21-3.94-4.93-3.94h-14V284h14c4.63 0 8.39 3.32 8.39 7.4s-3.76 7.44-8.39 7.44z"/><path class="cls-4" d="M161.13 268.98h3.46v32.36h-3.46zm5.26 0h3.46v5.59h-3.46zm0 28.13h3.46v4.23h-3.46z"/><path class="cls-4" d="M168.79 311.86a26.69 26.69 0 1126.69-26.69 26.73 26.73 0 01-26.69 26.69zm0-49.92A23.23 23.23 0 10192 285.17a23.25 23.25 0 00-23.21-23.23z"/><circle class="cls-3" cx="343.55" cy="285.17" r="24.96" transform="rotate(-75.95 343.538 285.169)"/><path class="cls-2" d="M343.55 260.21a24.91 24.91 0 00-21.49 12.3 24.93 24.93 0 0138.56 30.83 24.94 24.94 0 00-17.07-43.13z"/><path class="cls-4" d="M343.55 311.86a26.69 26.69 0 1126.69-26.69 26.72 26.72 0 01-26.69 26.69zm0-49.92a23.23 23.23 0 1023.22 23.23 23.26 23.26 0 00-23.22-23.23z"/><path class="cls-4" d="M354.84 303.21h-21.16l1.92-16.52-3.05.55-1.08-8.24 5-.86 1.41-10.87h7.57l1.05 1.18-1 8.09 2.7-.51 1.07 8.3-4.62.81-1 9.37h13v8.74zm-17.27-3.46h15.55v-1.82h-13.39l1.75-15.77 3.92-.74-.17-1.35-3.77.72 1.26-10.11h-1.81l-1.33 10.39-4.25.76.18 1.36 4.07-.74z"/><circle class="cls-6" cx="378.64" cy="285.17" r="24.96" transform="rotate(-75.87 378.668 285.164)"/><g class="cls-10"><path class="cls-4" d="M378.64 260.21a24.93 24.93 0 00-21.49 12.3 24.93 24.93 0 0138.56 30.83 24.93 24.93 0 00-17.07-43.13z"/></g><path class="cls-4" d="M378.64 311.86a26.69 26.69 0 1126.69-26.69 26.72 26.72 0 01-26.69 26.69zm0-49.92a23.23 23.23 0 1023.22 23.23 23.26 23.26 0 00-23.22-23.23z"/><path class="cls-3" d="M383.4 285.39a6.79 6.79 0 01-3.41-.92 6.86 6.86 0 01-2.51-9.36 6.86 6.86 0 115.92 10.28zm0-10.24a3.44 3.44 0 00-2.94 1.69 3.39 3.39 0 001.24 4.63 3.35 3.35 0 002.57.34 3.31 3.31 0 002.06-1.58 3.39 3.39 0 00.34-2.57 3.44 3.44 0 00-1.58-2.06 3.37 3.37 0 00-1.67-.45zm-13.79 17.48a6.84 6.84 0 115.95-3.42 6.85 6.85 0 01-5.95 3.42zm0-10.24a3.42 3.42 0 00-2.94 1.7 3.37 3.37 0 102.94-1.7z"/><path class="cls-3" d="M377.4 293.32a3.05 3.05 0 00-1.43-1.88 3.11 3.11 0 00-2.35-.31l-.89-3.34a6.5 6.5 0 015 .65 6.57 6.57 0 013.05 4zm5.51-2.7a6.55 6.55 0 01-2.39-8.95l3 1.74a3 3 0 00-.31 2.34 3 3 0 001.44 1.87z"/><path class="cls-3" d="M376.4 285.86a6.54 6.54 0 01-3.26-.88l1.73-3a3.09 3.09 0 002.34.31 3.13 3.13 0 001.88-1.44l3 1.73a6.5 6.5 0 01-4 3.05 6.7 6.7 0 01-1.69.23zM384 301a6.85 6.85 0 116-3.42 6.87 6.87 0 01-6 3.42zm0-10.24a3.42 3.42 0 00-2.94 1.7 3.37 3.37 0 102.94-1.7z"/><circle class="cls-6" cx="92.37" cy="285.17" r="24.96" transform="rotate(-76.72 92.363 285.162)"/><g class="cls-10"><path class="cls-4" d="M92.37 260.21a24.9 24.9 0 00-21.48 12.3 24.93 24.93 0 0138.56 30.83 24.94 24.94 0 00-17.08-43.13z"/></g><path class="cls-4" d="M92.37 311.86a26.69 26.69 0 1126.69-26.69 26.73 26.73 0 01-26.69 26.69zm0-49.92a23.23 23.23 0 1023.23 23.23 23.25 23.25 0 00-23.23-23.23z"/><path class="cls-3" d="M100.33 295H81.64a1.74 1.74 0 010-3.47h18.69a1.85 1.85 0 001.78-1.35l2.5-9.1a1.79 1.79 0 00-.31-1.61 1.81 1.81 0 00-1.47-.73H86.11a1.74 1.74 0 010-3.47h16.72A5.31 5.31 0 01108 282l-2.5 9.09a5.33 5.33 0 01-5.17 3.91z"/><path class="cls-3" d="M88.92 286.9H78.33a1.74 1.74 0 010-3.47h10.59a1.74 1.74 0 010 3.47z"/><path class="cls-4" d="M469.46 311.86H44.17a1.74 1.74 0 010-3.47h425.29a1.74 1.74 0 010 3.47zm12.54 0h-6.28a1.74 1.74 0 010-3.47H482a1.74 1.74 0 010 3.47zm-444.06 0H27.28a1.74 1.74 0 010-3.47h10.66a1.74 1.74 0 010 3.47zm57.82-73.43H92.3v-57.06A30.45 30.45 0 01122.72 151h44.55v3.46h-44.55a27 27 0 00-27 27z"/><path class="cls-4" d="M129.24 238.43h-3.46v-57.06A30.45 30.45 0 01156.2 151h6.45v3.46h-6.45a27 27 0 00-27 27zm290.3 0h-3.47v-57.06a27 27 0 00-27-27h-44.51V151h44.55a30.46 30.46 0 0130.43 30.42z"/><path class="cls-4" d="M386.05 238.43h-3.46v-57.06a27 27 0 00-27-27h-6.45V151h6.45a30.45 30.45 0 0130.42 30.42zM94.11 249.05a6.18 6.18 0 116.17-6.17 6.18 6.18 0 01-6.17 6.17zm0-8.88a2.71 2.71 0 102.71 2.71 2.71 2.71 0 00-2.71-2.71zm33.48 8.88a6.18 6.18 0 116.18-6.17 6.18 6.18 0 01-6.18 6.17zm0-8.88a2.71 2.71 0 102.71 2.71 2.71 2.71 0 00-2.71-2.71z"/><path class="cls-4" d="M385.06 249.05a6.18 6.18 0 116.17-6.17 6.18 6.18 0 01-6.17 6.17zm0-8.88a2.71 2.71 0 102.71 2.71 2.71 2.71 0 00-2.71-2.71zm33.48 8.88a6.18 6.18 0 116.17-6.17 6.18 6.18 0 01-6.17 6.17zm0-8.88a2.71 2.71 0 102.71 2.71 2.71 2.71 0 00-2.71-2.71z"/></svg>