<svg id="Layer_1" data-name="Layer 1" xmlns="http://www.w3.org/2000/svg" viewBox="0 0 512 512"><defs><style>.cls-2{fill:#8c8cf9}</style></defs><path d="M261.5 154.2v150.6a22.79 22.79 0 01-22.8 22.8H12v20h246.6a22.79 22.79 0 0022.8-22.8v-170H264a5.42 5.42 0 01-2.5-.6zm-.2-61.6c.1.9-.7 50.2.2 50.2h20v-27.5a22.9 22.9 0 00-20.2-22.7z" fill="#d4e1f4"/><path class="cls-2" d="M293.5 324.8V115.3a34.83 34.83 0 00-34.8-34.8H4.1v12h254.5a22.79 22.79 0 0122.8 22.8v27.5H264a6 6 0 000 12h17.4v170a22.79 22.79 0 01-22.8 22.8H4.1v12h254.5a34.72 34.72 0 0034.9-34.8z"/><path class="cls-2" d="M138.5 283.2a43.07 43.07 0 0061.7 38.9 43.14 43.14 0 100-77.9 43.07 43.07 0 00-61.7 39zm49.1 0a31.31 31.31 0 0112.6-25 31.1 31.1 0 010 50 31.31 31.31 0 01-12.6-25zm62.2 0a31.15 31.15 0 01-37.7 30.4 43 43 0 000-60.8 31 31 0 0126.1 6.2 30.56 30.56 0 0111.6 24.2zm-68.2-31.1a29.62 29.62 0 016.6.7 43 43 0 000 60.8 31.1 31.1 0 11-6.6-61.5zm59.6-97.3a6 6 0 000-12h-33.7a6 6 0 000 12zm-55.6 0a6 6 0 000-12H180a6 6 0 000 12zm-28.1-12H9a6 6 0 000 12h148.5a6 6 0 000-12zm188-117.1l-24-24a6 6 0 00-8.4.1 6.07 6.07 0 00-.1 8.4L326.8 24h-81.3a6 6 0 000 12h81.3L313 49.8a6 6 0 002.7 10.1 5.93 5.93 0 005.8-1.6l24-24a6.22 6.22 0 000-8.6zM171.7 24h-1.1a6 6 0 000 12h1.1a6 6 0 000-12zm18.9 12h.7a6 6 0 000-12h-.7a6 6 0 000 12zm27.9-12a6 6 0 000 12h.3a6 6 0 000-12zm114.1 370.7a5.72 5.72 0 00-5.8-1.6 6.21 6.21 0 00-4.3 4.3 5.93 5.93 0 001.6 5.8l13.8 13.8H208.5a6 6 0 000 12h129.4l-13.8 13.8a6 6 0 008.5 8.5l24-24a6.1 6.1 0 000-8.5zM134.8 417h-1.1a6 6 0 100 12h1.1a6 6 0 006-6 6 6 0 00-6-6zm19.6 0h-.7a6 6 0 000 12h.7a6 6 0 006-6 6 6 0 00-6-6zm27.5 0h-.3a6 6 0 000 12h.3a6 6 0 006-6 6 6 0 00-6-6zm203.7-284.3a6.1 6.1 0 000 8.5l13.8 13.8h-23.6a6 6 0 100 12h23.6l-13.8 13.8a6 6 0 008.5 8.5l24-24a6.1 6.1 0 000-8.5l-24-24a5.83 5.83 0 00-8.5-.1zM307.8 167a6 6 0 000-12h-1.1a6 6 0 000 12zm19.7-12h-.7a6 6 0 000 12h.7a6 6 0 000-12zm27.1 0a6 6 0 000 12h.3a6 6 0 000-12zm58.9 108.7a6 6 0 00-8.4.1 6.07 6.07 0 00-.1 8.4l13.8 13.8h-59a6 6 0 100 12h59L405 311.8a6 6 0 002.7 10.1 5.93 5.93 0 005.8-1.6l24-24a6.1 6.1 0 000-8.5zM310.8 298h.7a6 6 0 000-12h-.7a6 6 0 100 12zm27.9 0h.3a6 6 0 000-12h-.3a6 6 0 000 12z"/><path class="cls-2" d="M33.3 8.4H6a6 6 0 00-6 6v411.3a6 6 0 006 6h27.3a6 6 0 006-6v-66.5h-12v60.5H12V20.4h15.3V80h12V14.4a6 6 0 00-6-6z"/></svg>