<svg id="Layer_1" data-name="Layer 1" xmlns="http://www.w3.org/2000/svg" viewBox="0 0 464 464"><defs><style>.cls-2{fill:#4c616d}</style></defs><path fill="#8c8cf9" d="M8 168h448v64H8z"/><path class="cls-2" d="M392 256a40 40 0 1040 40 39.61 39.61 0 00-40-40zm0 64a24 24 0 1124-24 23.57 23.57 0 01-24 24z"/><path class="cls-2" d="M40 400h384a39.61 39.61 0 0040-40V104a39.61 39.61 0 00-40-40H40a39.61 39.61 0 00-40 40v256a39.61 39.61 0 0040 40zm384-16H40a23.57 23.57 0 01-24-24V208h432v152a23.57 23.57 0 01-24 24zM16 144h432v48H16zm24-64h384a23.57 23.57 0 0124 24v24H16v-24a23.57 23.57 0 0124-24z"/><path class="cls-2" d="M72 320H40a8 8 0 000 16h32a8 8 0 000-16zm64 0h-32a8 8 0 000 16h32a8 8 0 000-16zm64 0h-32a8 8 0 000 16h32a8 8 0 000-16zm64 0h-32a8 8 0 000 16h32a8 8 0 000-16zM40 304h128a8 8 0 000-16H40a8 8 0 000 16z"/></svg>