<svg id="Capa_1" data-name="Capa 1" xmlns="http://www.w3.org/2000/svg" viewBox="0 0 430 430"><defs><style>.cls-1{fill:#8c8cf9}</style></defs><path class="cls-1" d="M104.1 285.8a61.85 61.85 0 0071-16.6 10 10 0 002.2-8.8 9.77 9.77 0 00-5.9-6.9L80 215a10.1 10.1 0 00-9.1.7 10.23 10.23 0 00-4.8 7.7 62.38 62.38 0 0038 62.4zm44.4-20.4a42.24 42.24 0 01-60.9-25.5z"/><path class="cls-1" d="M423.5 16.1a9.76 9.76 0 00-11 2.8L338 104.2c-34.2-30.8-77.5-47.7-123-47.7s-88.8 16.9-123 47.7L17.5 18.9a10.1 10.1 0 00-11-2.8A10.07 10.07 0 000 25.5v213.9A86 86 0 0079.9 325l49.8 84.6a10 10 0 0011.2 4.6 10.05 10.05 0 007.4-9.6v-79.3h133.4v79.3a9.85 9.85 0 007.4 9.6 12.66 12.66 0 002.6.4 9.9 9.9 0 008.6-4.9L350 325a85.81 85.81 0 0079.9-85.6V25.5a9.84 9.84 0 00-6.4-9.4zM188 305.2h-49.7a10 10 0 00-10 10v52.6l-33.9-57.7a9.9 9.9 0 00-8.6-4.9A65.85 65.85 0 0120 239.4V52.2l168 192.3zm34-64.5v64.5h-14v-64.5a10 10 0 00-2.5-6.6L105.2 119.3c30.5-27.7 69.2-42.8 109.8-42.8s79.3 15.1 109.8 42.8L224.5 234.1a10 10 0 00-2.5 6.6zm188-1.3a65.85 65.85 0 01-65.8 65.8 10.12 10.12 0 00-8.6 4.9l-33.9 57.7v-52.6a10 10 0 00-10-10H242v-60.8L410 52.2z"/><path class="cls-1" d="M301.8 290.6a60.27 60.27 0 0024-4.9 62 62 0 0037.9-62.3 9.8 9.8 0 00-4.8-7.7 10.07 10.07 0 00-9.1-.7l-91.5 38.4a9.9 9.9 0 00-3.7 15.7 62.76 62.76 0 0047.2 21.5zm40.6-50.7a42.2 42.2 0 01-60.9 25.5z"/></svg>