<svg id="Capa_1" data-name="Capa 1" xmlns="http://www.w3.org/2000/svg" viewBox="0 0 430 430"><defs><style>.cls-1{fill:#8c8cf9}</style></defs><path class="cls-1" d="M405.83 213.11c.09-.18.09-.36.19-.55a.36.36 0 01.09-.28c0-.18.09-.46.09-.64v-1.11c0-53.88-14.3-101.76-41.24-138.48C340.88 39.3 306.84 16 269 6.27a208.27 208.27 0 00-102.23 0C129 16 94.91 39.3 70.83 72.05c-27 36.81-41.33 84.69-41.33 138.57v1.11c0 .18.09.46.09.65a.33.33 0 00.09.27 1.38 1.38 0 00.19.56c0 .09.09.27.09.37v.09l70.4 211.27a9.21 9.21 0 008.76 6.28h217.37a9.36 9.36 0 008.76-6.28l70.4-211.27v-.09c.09-.19.09-.28.18-.47zM257.48 22.6v69.93h-79.16V22.6a190.37 190.37 0 0179.16 0zm-97.71 5.16v74A9.25 9.25 0 00169 111h97.61a9.26 9.26 0 009.23-9.22v-74c53.32 18.82 110.34 74.83 111.82 178.8l-95 87a9.11 9.11 0 00-3 6.08l-3.78 49.64-13.28 4.43-4.89-13.84a9.16 9.16 0 00-8.68-6.09h-82.37a9.28 9.28 0 00-8.68 6.09l-4.89 13.84-13.28-4.43-3.81-49.65a9.11 9.11 0 00-3-6.08l-95-87c1.43-103.98 58.54-159.99 111.77-178.81zm-5.16 384.91l-3.33-43.36 14.49 4.8a9.23 9.23 0 0011.62-5.63l5.82-16.24h69.28l5.82 16.24a9.2 9.2 0 008.67 6.09 11.34 11.34 0 002.95-.46l14.49-4.8-3.33 43.36zM58.75 241.44l69.19 63.29 4 52v.1l4.15 55.81h-20.3zm261.19 171.23h-20.3l4.24-55.67v-.09l4-52 69.2-63.29z"/><path class="cls-1" d="M188.74 225.29a8.88 8.88 0 006.26-2.49 9.3 9.3 0 002.95-6.73v-32.48h39.67v32.48a9.3 9.3 0 003 6.73 9.46 9.46 0 006.28 2.49h.64l72.3-5.29a9.26 9.26 0 008.58-9.22v-27.19h9.23a9.23 9.23 0 100-18.45H98a9.23 9.23 0 100 18.45h9.22v27.13a9.26 9.26 0 008.58 9.22l72.34 5.26a1.58 1.58 0 00.6.09zm121.32-41.7v18.64l-53.88 4v-22.6zM179.52 206.1l-53.88-4v-18.51h53.88z"/></svg>