<svg id="Layer_1" data-name="Layer 1" xmlns="http://www.w3.org/2000/svg" viewBox="0 0 512 512"><defs><style>.cls-2{fill:#8c8cf9}</style></defs><path d="M346.2 436.8c-8.9-6-17.3-16.6-23.1-29.1-4.4-9.5-6.8-19.2-6.8-27.4v-87.5l91.5-44.8 71.5 35.1v-.2L387.9 238l-91.5 44.8v87.5c0 8.2 2.4 17.9 6.8 27.4 5.8 12.4 14.2 23 23.1 29.1l61.6 42 2.7-1.8z" fill="#d4e1f4"/><path class="cls-2" d="M159.4 159.2a15.35 15.35 0 01-30.7 0 6 6 0 10-12 0 27.35 27.35 0 0054.7 0 6 6 0 00-12 0z"/><path class="cls-2" d="M453.8 168a6 6 0 00-6 6 30.38 30.38 0 01-26.8 30.2c-9.6-78.7-83.2-140-172.3-140a203.27 203.27 0 00-32.1 2.5 81.55 81.55 0 00-67.9-36.6 6 6 0 00-6 6 5.66 5.66 0 00.3 1.8l1.9 6a103.44 103.44 0 014.2 38.3 171.54 171.54 0 00-81.2 67.3l-7.6 12h-21a18.56 18.56 0 00-18.6 18.6v79.8a18.56 18.56 0 0018.6 18.6h21.5a146 146 0 0021.6 31.2 103 103 0 0126.3 69.1 24.54 24.54 0 0024.5 24.5H159a24.54 24.54 0 0024.5-24.5 12.5 12.5 0 0112.5-12.5h48.1a12.5 12.5 0 0112.5 12.5 24.54 24.54 0 0024.5 24.5h15.2a6 6 0 000-12h-15.2a12.5 12.5 0 01-12.5-12.5 24.54 24.54 0 00-24.5-24.5H196a24.54 24.54 0 00-24.5 24.5 12.5 12.5 0 01-12.5 12.5h-25.8a12.5 12.5 0 01-12.5-12.5 114.64 114.64 0 00-29.4-77.1A135.92 135.92 0 0169.9 270a6 6 0 00-5.4-3.4H39.2a6.59 6.59 0 01-6.6-6.6v-80a6.59 6.59 0 016.6-6.6h24.3a6.09 6.09 0 005.1-2.8l9.3-14.8A160.12 160.12 0 01156.5 92a6.08 6.08 0 004.1-5 115.73 115.73 0 00-3.6-44.6 69.55 69.55 0 0161.2 68.9 6 6 0 1012 0 81 81 0 00-7.3-33.6 203.58 203.58 0 0125.9-1.7c89 0 161.3 65.3 161.3 145.6a131.47 131.47 0 01-1.8 21.7 6 6 0 0011.8 2 143.56 143.56 0 001.9-23.6c0-1.9 0-3.7-.1-5.6a42.44 42.44 0 0037.9-42.1 5.89 5.89 0 00-6-6z"/><path class="cls-2" d="M385.2 226l-97.5 47.7a6 6 0 00-3.4 5.4v91.3c0 10 2.7 21.3 7.9 32.4 6.7 14.3 16.6 26.7 27.2 33.9l65 44.3a6 6 0 006.8 0l65-44.3c19.7-13.4 35.1-42.6 35.1-66.4v-91.1a6 6 0 00-3.4-5.4L390.5 226a6.15 6.15 0 00-5.3 0zm94.2 144.3c0 19.6-13.7 45.4-29.9 56.4l-61.6 42-61.6-42c-8.9-6-17.3-16.6-23.1-29.1-4.4-9.5-6.8-19.2-6.8-27.4v-87.5l91.5-44.8 91.5 44.9v87.5z"/><path class="cls-2" d="M350.8 346.5a6 6 0 10-8.4 8.6l29.4 28.7a6 6 0 008.4 0l53.1-51.8a6 6 0 00-8.3-8.7L376.1 371z"/></svg>