<svg id="Calque_1" data-name="Calque 1" xmlns="http://www.w3.org/2000/svg" viewBox="0 0 580 370"><defs><style>.cls-1{fill:none;stroke:#cde5f8;stroke-dasharray:1000;stroke-miterlimit:10;stroke-width:3px;opacity:.2;isolation:isolate}</style></defs><circle class="cls-1" cx="288.8" cy="191.3" r="51.5"/><circle class="cls-1" cx="288.8" cy="191.3" r="148.6"/><circle class="cls-1" cx="288.8" cy="191.3" r="102.5"/><path d="M288.5 294.9l-5.1 12.6a.55.55 0 01-.8.3l-16.8-6.8a.55.55 0 01-.3-.8l5.1-12.6a.55.55 0 01.8-.3l16.8 6.8a.67.67 0 01.3.8zm22.8 45.3l-11.3 5.4a.63.63 0 01-.8-.3l-7.2-15.1a.63.63 0 01.3-.8l11.3-5.4a.63.63 0 01.8.3l7.2 15.1a.67.67 0 01-.3.8zm-5-63.7l-3 8.5a.68.68 0 01-.8.4l-11.4-4.1a.68.68 0 01-.4-.8l3-8.5a.68.68 0 01.8-.4l11.4 4.1a.63.63 0 01.4.8zm-27.6 66.9l-17.9 1.4a.58.58 0 01-.6-.6l-1.8-23.7a.58.58 0 01.6-.6l17.9-1.4a.58.58 0 01.6.6l1.8 23.7a.58.58 0 01-.6.6zm1.3-90.9l5.1 7.4a.52.52 0 01-.2.8l-10 6.8a.52.52 0 01-.8-.2L269 260a.52.52 0 01.2-.8l10-6.8a.62.62 0 01.8.1zm23.9-3.2L299 253a.52.52 0 01-.8-.1l-5.1-6.7a.52.52 0 01.1-.8l4.9-3.8a.52.52 0 01.8.1l5.1 6.7a.63.63 0 01-.1.9zm92.9-184.5l11.9 5.4a.63.63 0 01.3.8l-7.2 15.9a.63.63 0 01-.8.3l-12-5.5a.63.63 0 01-.3-.8l7.2-15.9a.76.76 0 01.9-.2zm50.4 12.7l6.3-12a.67.67 0 01.8-.3l16 8.5a.67.67 0 01.3.8l-6.3 12a.67.67 0 01-.8.3l-16-8.5c-.4-.2-.5-.5-.3-.8zM418 90.1l17.8-6.4a.68.68 0 01.8.4l8.5 23.6a.68.68 0 01-.4.8l-17.8 6.4a.68.68 0 01-.8-.4l-8.5-23.6c0-.3.1-.7.4-.8zm-71.1 41.1l3.8-8.1a.63.63 0 01.8-.3l11 5.2a.63.63 0 01.3.8l-3.8 8.1a.63.63 0 01-.8.3l-11-5.2a.63.63 0 01-.3-.8zm48.7-31.9l17.7 2.7c.3.1.6.4.5.7l-3.6 23.5c-.1.3-.4.6-.7.5l-17.7-2.7c-.3-.1-.6-.4-.5-.7l3.6-23.5a.75.75 0 01.7-.5zm-20.3 31.2l6.1-6.6a.63.63 0 01.9 0l8.9 8.3a.63.63 0 010 .9l-6.1 6.6a.63.63 0 01-.9 0l-8.9-8.3a.75.75 0 010-.9zm-34.7 21.6l5.3-3.3a.52.52 0 01.8.2l4.4 7.2a.52.52 0 01-.2.8l-5.3 3.3a.52.52 0 01-.8-.2l-4.4-7.2a.55.55 0 01.2-.8zM477.7 87l12 3.1a.57.57 0 01.4.7L486 107a.57.57 0 01-.7.4l-12-3.1a.57.57 0 01-.4-.7l4.2-16.1a.46.46 0 01.6-.5zM183.1 65.2l-11.9 5.4a.63.63 0 00-.3.8l7.2 15.9a.63.63 0 00.8.3l11.9-5.4a.63.63 0 00.3-.8l-7.2-15.9a.67.67 0 00-.8-.3zm-50.4 12.7l-6.3-12a.67.67 0 00-.8-.3l-16 8.5a.67.67 0 00-.3.8l6.3 12a.67.67 0 00.8.3l16-8.5a.63.63 0 00.3-.8zm29.1 12.7L144 84.2a.68.68 0 00-.8.4l-8.5 23.6a.68.68 0 00.4.8l17.8 6.4a.68.68 0 00.8-.4l8.5-23.6a.63.63 0 00-.4-.8zm71.1 41l-3.8-8.1a.63.63 0 00-.8-.3l-11 5.2a.63.63 0 00-.3.8l3.8 8.1a.63.63 0 00.8.3l11-5.2a.55.55 0 00.3-.8zm-48.7-31.8l-17.7 2.7c-.3.1-.6.4-.5.7l3.6 23.5c.1.3.4.6.7.5l17.7-2.7c.3-.1.6-.4.5-.7l-3.6-23.5a.51.51 0 00-.7-.5zm20.4 31.1l-6.1-6.6a.63.63 0 00-.9 0l-8.9 8.3a.63.63 0 000 .9l6.1 6.6a.63.63 0 00.9 0l8.9-8.3a.75.75 0 000-.9zm34.7 21.7l-5.3-3.3a.52.52 0 00-.8.2l-4.4 7.2a.52.52 0 00.2.8l5.3 3.3a.52.52 0 00.8-.2l4.4-7.2a.63.63 0 00-.2-.8zM102.1 87.4l-12 3.1a.57.57 0 00-.4.7l4.2 16.1a.57.57 0 00.7.4l12-3.1a.57.57 0 00.4-.7l-4.2-16.1c0-.3-.4-.5-.7-.4z" fill="#fff" stroke-width="2" stroke-miterlimit="10" stroke="#cde5f8" stroke-dasharray="1000"/><path d="M317.1 230.2h-63.3s-27.3-2.8-27.1-27.1c.1-13.7 12.2-26.3 27.1-27.1 0-18.7 12-36.2 31.6-36.2 15.5 0 25.9 9.5 29.6 22.7 22.4-1 37.6 16.7 38.3 31.6.9 19.9-19.9 36.1-36.2 36.1z" stroke="#8c8cf9" fill="#fff" stroke-width="3" stroke-miterlimit="10" id="_9" data-name="9"/><path d="M323.7 288.8v-44.4m-5.5 5.9l5.5-7.5 5.2 7.5M250 271.7v-26.2m-3.2 3.4l3.2-4.4 3.1 4.4m92.7 64.2v-29.9m-3.6 3.9l3.6-5 3.6 5" stroke="#8c8cf9" stroke-width="2" stroke-miterlimit="10" fill="none"/></svg>