<svg id="Calque_1" data-name="Calque 1" xmlns="http://www.w3.org/2000/svg" viewBox="0 0 580 370"><defs><style>.cls-1,.cls-11{fill:none;stroke:#cde5f8;stroke-miterlimit:10}.cls-1{stroke-width:4px;opacity:.2;isolation:isolate}.cls-6{fill:#cde5f8}.cls-7{fill:#fff}.cls-8{fill:#8c8cf9}.cls-11{stroke-width:2px}</style></defs><circle class="cls-1" cx="308.9" cy="209.7" r="66"/><path class="cls-1" d="M166.2 209.7a142.7 142.7 0 11142.7 142.7M131.8 117.8c56.3-97.1 180.6-130.3 277.7-74s130.3 180.6 74 277.7"/><path fill="#f0f0f7" d="M105.2 227.8l92.4-5.7 35.4-10.2 90.6-11.9 60.9-28.5L488.6 154v98.6H105.2v-24.8z"/><path style="isolation:isolate" opacity=".1" fill="#f0f0f7" d="M323.6 200v52.6h165V154l-104.1 17.5-60.9 28.5z"/><ellipse cx="211.7" cy="283.8" rx="40.8" ry="3.6" fill="#9a9694" opacity=".2"/><circle class="cls-6" cx="252.3" cy="212" r="2.3"/><path class="cls-7" d="M174.7 169l-5-8.7a8.09 8.09 0 01-.8-5.9 7.43 7.43 0 013.6-4.7l5.7-3.3a7.56 7.56 0 013.9-1 7.73 7.73 0 016.7 3.9l5 8.7z"/><path class="cls-8" d="M174.33 170.37l-5.5-9.57a9.09 9.09 0 01-.9-6.64 8.42 8.42 0 014.08-5.33l5.69-3.3a8.53 8.53 0 014.4-1.13 8.68 8.68 0 017.56 4.4l5.5 9.57zm7.77-24a6.59 6.59 0 00-3.4.86l-5.7 3.31a6.48 6.48 0 00-3.13 4.07 7.13 7.13 0 00.7 5.17l4.5 7.82 17.37-10-4.51-7.83a6.7 6.7 0 00-5.83-3.37z"/><path class="cls-7" d="M249.4 169.6l-19.1-11 5-8.7a7.85 7.85 0 016.7-3.9 8.68 8.68 0 013.9 1l5.7 3.3a7.7 7.7 0 012.8 10.6z"/><path class="cls-8" d="M249.77 171l-20.83-12 5.49-9.57A8.82 8.82 0 01242 145a9.52 9.52 0 014.35 1.11l5.75 3.32a8.71 8.71 0 013.16 12zm-18.11-12.74l17.37 10 4.5-7.83a6.7 6.7 0 00-2.42-9.23l-5.71-3.3a7.5 7.5 0 00-3.4-.9 6.92 6.92 0 00-5.84 3.4z"/><path class="cls-7" d="M215.1 134.9h-5.6a5.8 5.8 0 00-5.8 5.8v7.1h17.2v-7.1a5.74 5.74 0 00-5.8-5.8zm-7 12.9h8.4v6.2h-8.4z"/><path class="cls-8" d="M217.5 155h-10.4v-8.2h10.4zm-8.4-2h6.4v-4.2h-6.4z"/><path class="cls-7" d="M250 152.2l-4.9-2.8a5.83 5.83 0 00-7.9 2.1l-3.6 6.2 14.9 8.6 3.6-6.2a5.83 5.83 0 00-2.1-7.9zm-75.8-.7l4.9-2.8a5.83 5.83 0 017.9 2.1l3.6 6.2-14.9 8.6-3.6-6.2a5.76 5.76 0 012.1-7.9zm49.2-1.3h-22.1v-10a7.7 7.7 0 017.7-7.7h6.6a7.7 7.7 0 017.7 7.7v10z"/><path class="cls-8" d="M215.6 131.5H209a8.71 8.71 0 00-8.7 8.7v11h24v-11a8.71 8.71 0 00-8.7-8.7zm6.7 17.7h-20v-9a6.71 6.71 0 016.7-6.7h6.6a6.71 6.71 0 016.7 6.7zM105.2 252.6h383.5v13.2H105.2z"/><circle class="cls-8" cx="486.3" cy="105.6" r="24.7"/><path class="cls-8" d="M479.1 128.4l7.2 11 8.3-11h-15.5z"/><path d="M212 153a59.6 59.6 0 11-59.6 59.6M212 155a57.6 57.6 0 1057.6 57.6A57.67 57.67 0 00212 155zm0-2l-59.6 59.6A59.67 59.67 0 01212 153" fill="#1cae88"/><circle class="cls-7" cx="212" cy="212.6" r="58.6"/><circle cx="212" cy="212.6" r="49.7" fill="#fdfdfd"/><circle class="cls-11" cx="212" cy="212.8" r="14.7"/><circle class="cls-6" cx="211.7" cy="171.9" r="2.3"/><circle class="cls-6" cx="170.5" cy="212" r="2.3"/><circle class="cls-6" cx="252.3" cy="212" r="2.3"/><circle class="cls-6" cx="211.7" cy="253.6" r="2.3"/><circle class="cls-6" cx="233.4" cy="247.3" r="2.3"/><circle class="cls-6" cx="190" cy="178.1" r="2.3"/><circle class="cls-6" cx="176" cy="192.8" r="2.3"/><circle class="cls-6" cx="247.3" cy="232.7" r="2.3"/><circle class="cls-6" cx="248.1" cy="194.2" r="2.3"/><circle class="cls-6" cx="175.2" cy="231.2" r="2.3"/><circle class="cls-6" cx="188.9" cy="246.6" r="2.3"/><circle class="cls-6" cx="234.3" cy="179.5" r="2.3"/><circle class="cls-11" cx="212" cy="212.5" r="4.3"/><path stroke-linecap="round" stroke-width="2" stroke="#cde5f8" stroke-miterlimit="10" fill="none" d="M215.9 210.3l26.1-13"/><path class="cls-8" d="M212 263.3a50.7 50.7 0 1150.7-50.7 50.75 50.75 0 01-50.7 50.7zm0-99.4a48.7 48.7 0 1048.7 48.7 48.76 48.76 0 00-48.7-48.7z"/><path class="cls-8" d="M212 273.2a60.6 60.6 0 1160.6-60.6 60.67 60.67 0 01-60.6 60.6zm0-119.2a58.6 58.6 0 1058.6 58.6A58.67 58.67 0 00212 154z"/><path stroke="#fdfdfd" stroke-linejoin="round" stroke-width="3" stroke-linecap="round" fill="none" d="M480.75 104.7l3.95 2.93 8.65-7.96"/></svg>