<svg id="Layer_1" data-name="Layer 1" xmlns="http://www.w3.org/2000/svg" viewBox="0 0 512 512"><defs><style>.cls-1{fill:#8c8cf9}</style></defs><path class="cls-1" d="M503.93 17.17a10 10 0 00-2.84-6.05L501 11a10 10 0 00-6.12-2.92 324.72 324.72 0 00-301.6 87l-6.66 6.66H95.4a10 10 0 00-7.07 2.93l-85.4 85.4a10 10 0 000 14.15l40.6 40.6-9.07 9.06a10 10 0 000 14.15l34.66 34.67-27.21 48.16a10 10 0 001.64 12l12.64 12.64a199.7 199.7 0 00-44.76 82.32L.34 499.38a10 10 0 0012.24 12.24l41.57-11.08a199.77 199.77 0 0082.32-44.77l12.62 12.62a10 10 0 0012 1.63l48.15-27.2L244 477.57a10 10 0 0014.14 0l9.07-9.06L307.65 509a10 10 0 0014.14 0l85.4-85.4a10 10 0 002.93-7.07v-90.94l6.81-6.81a324.66 324.66 0 0087-301.61zm-479.79 180l75.41-75.4h67.05L76 212.39l-18.33 18.3zM49 481.21l-24.87 6.64L30.75 463a179.64 179.64 0 0139.6-73.32l52 52A179.64 179.64 0 0149 481.21zm108.87-32.34l-13.33-13.33c-.23-.29-.48-.56-.74-.83s-.55-.51-.83-.74L78 369c-.24-.29-.48-.57-.75-.84a9.74 9.74 0 00-.83-.74l-13.35-13.34 20.73-36.7 110.76 110.76zm232.26-36.53l-75.4 75.4-33.37-33.38 108.76-108.77v66.75zm12.67-107.71L260.14 447.28l-9.06 9.06L218 423.3 88.64 293.93 55.68 261 83 233.61l133.5 133.47a10 10 0 0014.15-14.14L97.18 219.47 207.4 109.25c73.38-73.38 176.92-104 278.11-82.72 21.33 101.19-9.34 204.73-82.72 278.1z"/><path class="cls-1" d="M372.64 203.3a10 10 0 00-10 10v.64a10 10 0 009.91 10.06h.09a10 10 0 0010-9.92v-.8a10 10 0 00-10-9.98z"/><path class="cls-1" d="M367.63 241.94a10 10 0 00-13.63 3.59 64 64 0 11-6.25-73.33A10 10 0 10363 159.34a84 84 0 108.2 96.28 10 10 0 00-3.57-13.68zM254.11 376.4a10 10 0 102.93 7.07 10 10 0 00-2.93-7.07z"/></svg>