<svg id="Layer_1" data-name="Layer 1" xmlns="http://www.w3.org/2000/svg" viewBox="0 0 512 512"><defs><style>.cls-1{fill:#8c8cf9}</style></defs><path class="cls-1" d="M236.07 356.91A10 10 0 10239 364a10 10 0 00-2.93-7.09z"/><path class="cls-1" d="M448 268a10 10 0 00-10 10v44H266v-24.69a74.72 74.72 0 00-65.4-74 52 52 0 0011.64-32.84v-70.39a10 10 0 00-10-10h-52.32a42.21 42.21 0 00-42.16 42.16v38.19a52 52 0 0011.65 32.84 74.72 74.72 0 00-65.41 74V322H20V81.74A7.79 7.79 0 0127.81 74h207.86a10 10 0 100-20H27.81A27.81 27.81 0 000 81.74v296.5A27.81 27.81 0 0027.81 406H180v46.19A50.14 50.14 0 00135 502a10 10 0 0010 10h168a10 10 0 0010-10 50.14 50.14 0 00-45-49.81V406h152.2a27.81 27.81 0 0027.8-27.76V278a10 10 0 00-10-10zM127.76 152.24a22.18 22.18 0 0122.16-22.15h42.32v16a14.4 14.4 0 01-14.39 14.39h-50.09zm0 28.2h50.1a34.11 34.11 0 0014.38-3.17v13.17a32.24 32.24 0 01-64.48 0zm43.91 62.24L160 254.35l-11.67-11.67zM74 297.31a54.71 54.71 0 0146.64-54l32.29 32.29a10 10 0 0014.14 0l32.29-32.29a54.71 54.71 0 0146.64 54V322H74zM301.29 492H156.71a30.11 30.11 0 0128.35-20.06h87.88A30.11 30.11 0 01301.29 492zM200 451.93V406h58v45.94zm238-73.69a7.79 7.79 0 01-7.8 7.75H27.81a7.79 7.79 0 01-7.81-7.75V342h418zm17.07-144.97a10 10 0 102.93 7.07 10.08 10.08 0 00-2.93-7.07zM448 47h-75a10 10 0 100 20h75a10 10 0 000-20zm-108.93 2.94A10 10 0 10342 57a10.08 10.08 0 00-2.93-7.06zM448 91H332a10 10 0 000 20h116a10 10 0 000-20z"/><path class="cls-1" d="M448 135H332a10 10 0 000 20h116a10 10 0 000-20z"/><path class="cls-1" d="M462 0H318a50.06 50.06 0 00-50 50v107a50.07 50.07 0 0044.33 49.68v26a10 10 0 006.18 9.23 9.8 9.8 0 003.82.77 10 10 0 007.07-2.93L362.14 207H462a50.06 50.06 0 0050-50V50a50.06 50.06 0 00-50-50zm30 157a30 30 0 01-30 30H358a10 10 0 00-7.07 2.93l-18.6 18.6V197a10 10 0 00-10-10H318a30 30 0 01-30-30V50a30 30 0 0130-30h144a30 30 0 0130 30z"/></svg>