<svg id="Layer_1" data-name="Layer 1" xmlns="http://www.w3.org/2000/svg" viewBox="0 0 464 464"><defs><style>.cls-2{fill:#4c616d}</style></defs><path d="M73.9 453.4a37.67 37.67 0 0052.8 0 7.73 7.73 0 000-11.2l-84.8-84.8a7.73 7.73 0 00-11.2 0 37.67 37.67 0 000 52.8zm340.9-203.2a7.73 7.73 0 0011.2 0l8-7.2c10.4-8.8 10.4-24.8.8-34.4L273.1 43a16.21 16.21 0 00-22.4-.8l-16.8 15.2a7.73 7.73 0 000 11.2l9.6 9.6 160 160z" fill="#8c8cf9"/><path class="cls-2" d="M433.1 15.8l-33.6 33.6a7.73 7.73 0 000 11.2 7.73 7.73 0 0011.2 0L444.3 27a7.73 7.73 0 000-11.2c-3.2-3.2-8.8-3.2-11.2 0zm-60.7 32q4.8 0 7.2-4.8l16-32c1.6-4 0-8.8-3.2-10.4-4-1.6-8.8 0-10.4 3.2l-16 32c-1.6 4 0 8.8 3.2 10.4.8 1.6 1.6 1.6 3.2 1.6zm76 16.8l-32 16a7.06 7.06 0 00-3.2 10.4q2.4 4.8 7.2 4.8c1.6 0 2.4 0 3.2-.8l32-16a7.06 7.06 0 003.2-10.4c-2.4-4-6.4-5.6-10.4-4zM245.1 13.4l-16.8 15.2c-2.4 3.2-4.8 7.2-4.8 11.2s1.6 8.8 4.8 11.2l4.8 4.8L49.9 329.4l-2.4-1.6a15.79 15.79 0 00-11.2-4.8 15.79 15.79 0 00-11.2 4.8c-8 8-12.8 20-12.8 32a44.85 44.85 0 0013.6 32L69.1 435a44.45 44.45 0 0064 0 15.47 15.47 0 000-22.4l-4-4 27.2-17.6 9.6 15.2c10.4 16.8 28.8 25.6 47.2 25.6 10.4 0 20.8-3.2 30.4-8.8a56.49 56.49 0 0016.8-77.6l-10.4-16.8 154.4-102.4 6.4 6.4c6.4 5.6 16 6.4 21.6 0l8-7.2a29.76 29.76 0 0010.4-22.4 34.85 34.85 0 00-8.8-23.2L278.8 13.4a24 24 0 00-33.7 0zM79.6 423.8l-43.2-43.2c-5.6-5.6-8-12.8-8-20.8a29 29 0 018.8-20.8l84 84.8c-11.3 11.2-29.6 11.2-41.6 0zm166.3-69.6c12 18.4 6.4 43.2-12 55.2s-43.2 6.4-55.2-12l-9.6-15.2 66.4-44zm187.2-152a15.28 15.28 0 01-5.6 11.2l-8 7.2-11.2-10.4a8.39 8.39 0 00-10.4-.8L233.1 319.8l-80 52.8-36 24-56-56L244.3 67.8l124.8 124.8a7.92 7.92 0 1011.2-11.2L249.9 50.2l-9.6-9.6 16.8-15.2a7.73 7.73 0 0111.2 0L429.9 191a12.87 12.87 0 013.2 11.2z"/><path class="cls-2" d="M254.8 194.2l-64 64a7.73 7.73 0 000 11.2 7.73 7.73 0 0011.2 0l64-64a7.92 7.92 0 00-11.2-11.2zm-58.4 45.6a7.26 7.26 0 005.6-2.4l32-32a7.92 7.92 0 00-11.2-11.2l-32 32a7.73 7.73 0 000 11.2 8.64 8.64 0 005.6 2.4zm58.4-13.6l-32 32a7.73 7.73 0 000 11.2 7.73 7.73 0 0011.2 0l32-32a7.92 7.92 0 00-11.2-11.2z"/></svg>