<svg id="Layer_1" data-name="Layer 1" xmlns="http://www.w3.org/2000/svg" viewBox="0 0 511.88 511.88"><defs><style>.cls-1{fill:#f3f3ff}.cls-2{fill:#babaf7}.cls-3{fill:#e0e0fc}.cls-7{fill:#8c8cf9}</style></defs><path class="cls-1" d="M334.56 319.14l-10.64 32.79H243.7l-10.08-35.75a644.77 644.77 0 00100.94 2.96z"/><path class="cls-2" d="M149.73 301.78L132 319.93H52v-52.38c30.14 14.55 63.42 25.91 97.73 34.23z"/><path class="cls-3" d="M132 160l17.6 18c-34.27 8.28-67.38 19.56-97.6 34v-52z"/><path d="M149.57 178c166.44-40.31 358.31-10.08 358.31 61.9 0 45.67-75.82 74.31-173.32 79.27a646 646 0 01-100.94-3 640.69 640.69 0 01-83.89-14.4c-34.31-8.31-67.59-19.67-97.73-34.22a338.14 338.14 0 01-48-27.68 345 345 0 0148-27.76V212c30.22-14.44 63.33-25.71 97.57-34z" fill="#ac92ec"/><path class="cls-3" d="M149.57 178c166.44-40.31 358.31-10.08 358.31 61.9 0 45.67-75.82 74.31-173.32 79.27a646 646 0 01-100.94-3 640.69 640.69 0 01-83.89-14.4c-34.31-8.31-67.59-19.67-97.73-34.22a338.14 338.14 0 01-48-27.68 345 345 0 0148-27.76V212c30.22-14.44 63.33-25.71 97.57-34z"/><path class="cls-2" d="M334.56 303.14C138 310.54 4 239.88 4 239.88a339.06 339.06 0 0048 27.67c30.15 14.55 63.43 25.91 97.74 34.23a640.55 640.55 0 0083.9 14.4 644.61 644.61 0 00100.93 3c97.5-5 173.32-33.6 173.32-79.26a39 39 0 00-.86-7.81c-8.54 40.89-80.89 67.59-172.47 71.03z"/><path class="cls-1" d="M334.56 176.75C138 169.35 4 240 4 240a339.06 339.06 0 0148-27.67c30.15-14.55 63.43-25.91 97.74-34.23a640.55 640.55 0 0183.9-14.4 644.61 644.61 0 01100.93-3c97.5 5 173.32 33.6 173.32 79.26a39 39 0 01-.86 7.81c-8.54-40.84-80.89-67.58-172.47-71.02z"/><path class="cls-3" d="M331.94 327.21l2.62-8.07a644.77 644.77 0 01-100.94-3l2.32 8.2a644.45 644.45 0 0096 2.87z"/><path d="M235.94 324.38l7.77 27.55h8l-7.56-26.84c-2.75-.25-5.47-.43-8.21-.71z" fill="#fff" opacity=".5"/><path class="cls-1" d="M311.77 240a28 28 0 11-28-28 28 28 0 0128 28z"/><path class="cls-7" d="M252.18 339.92a4 4 0 01-4-4 4 4 0 014-4h.08a4 4 0 010 8zm16 0a4 4 0 01-4-4 4 4 0 013.95-4h.09a4 4 0 010 8zm16 0a4 4 0 01-4-4 4 4 0 013.95-4h.09a4 4 0 010 8zm15.99 0a4 4 0 01-4-4 4 4 0 014-4h.08a4 4 0 010 8zm16 0a4 4 0 01-4-4 4 4 0 013.95-4h.09a4 4 0 010 8zM4 243.87a4 4 0 01-2.28-7.28c138-96 379.43-96.4 468.66-49.77 27.15 14.18 41.5 32.53 41.5 53.05a4 4 0 01-8 0c0-21.92-20.23-37.1-37.2-46C379.13 148.18 142 148.72 6.29 243.15a4 4 0 01-2.29.72z"/><path class="cls-7" d="M305.7 323.86c-104.73 0-225.48-26.08-304-80.7a4 4 0 014.57-6.57c135.84 94.52 372.89 95.24 460.3 49.57 17-8.9 37.29-24.14 37.29-46.29a4 4 0 018 0c0 20.7-14.38 39.16-41.59 53.37-38.64 20.2-98.41 30.62-164.57 30.62zM139.8 172a4 4 0 01-2.86-1.2l-7.83-8a4 4 0 115.72-5.59l7.82 8a4 4 0 01-2.85 6.8z"/><path class="cls-7" d="M132 164H52a4 4 0 010-8h80a4 4 0 010 8z"/><path class="cls-7" d="M52 202.68a4 4 0 01-4-4V160a4 4 0 018 0v38.72a4 4 0 01-4 3.96zm80 121.24a4 4 0 01-2.86-6.79l7.83-8a4 4 0 115.71 5.59l-7.82 8a4 4 0 01-2.86 1.2z"/><path class="cls-7" d="M132 323.92H52a4 4 0 110-8h80a4 4 0 110 8z"/><path class="cls-7" d="M52 323.92a4 4 0 01-4-4v-38.83a4 4 0 018 0v38.83a4 4 0 01-4 4zm88-80.05H52a4 4 0 110-8h88a4 4 0 110 8zm351.89 0h-16a4 4 0 110-8h16a4 4 0 010 8zm0-15.87a3.92 3.92 0 01-1.79-.42l-16-8a4 4 0 013.58-7.16l16 8a4 4 0 01-1.78 7.58zm-16 39.94a4 4 0 01-1.79-7.58l16-8a4 4 0 013.57 7.16l-16 8a4.12 4.12 0 01-1.78.42zm-232.2 87.98a4 4 0 01-3.85-2.92l-7.74-27.47a4 4 0 117.7-2.18l7.74 27.48a4 4 0 01-2.76 4.94 4.09 4.09 0 01-1.09.15z"/><path class="cls-7" d="M323.92 355.92h-80.23a4 4 0 010-8h80.23a4 4 0 010 8z"/><path class="cls-7" d="M323.92 355.92a3.81 3.81 0 01-1.23-.2 4 4 0 01-2.57-5l8-24.64a4 4 0 117.61 2.47l-8 24.64a4 4 0 01-3.81 2.73zM261 260a4 4 0 01-3.28-1.71 31.7 31.7 0 01-5.78-18.29 32.22 32.22 0 0122.85-30.67 4 4 0 112.29 7.67 24.15 24.15 0 00-17.14 23 23.8 23.8 0 004.3 13.7 4 4 0 01-1 5.57 3.93 3.93 0 01-2.24.73zm30.93 10.87a4 4 0 01-1.14-7.84 24 24 0 0013-36.42 4 4 0 016.62-4.47 31.85 31.85 0 015.52 17.86 32.18 32.18 0 01-22.86 30.67 4.09 4.09 0 01-1.14.2z"/><path class="cls-7" d="M291.62 251.71a4 4 0 01-2.83-1.17l-15.68-15.68a4 4 0 015.65-5.66l15.69 15.69a4 4 0 01-2.83 6.82z"/><path class="cls-7" d="M275.94 236a4 4 0 01-2.83-6.82l32-32a4 4 0 015.66 5.66l-32 32a4 4 0 01-2.83 1.16zm-16.31 47.71a4 4 0 01-2.83-6.83l32-32a4 4 0 115.66 5.65l-32 32a4 4 0 01-2.83 1.18z"/></svg>