<svg id="Layer_1" data-name="Layer 1" xmlns="http://www.w3.org/2000/svg" viewBox="0 0 511.88 511.88"><defs><style>.cls-1{fill:#babaf7}.cls-2{fill:#e0e0fc}.cls-3{fill:#f3f3ff}.cls-6{fill:#8c8cf9}</style></defs><path class="cls-1" d="M315.93 431.9h47.99v23.99h-47.99z"/><path class="cls-2" d="M451.89 391.91a56 56 0 1056 56 56 56 0 00-56-56zm0 96a40 40 0 1140-40 40 40 0 01-40 39.98z"/><path class="cls-1" d="M411.9 303.93h25.12v36.63H411.9z"/><path class="cls-3" d="M423 351.6c-.72.16-62.63 13.35-73.9 80.3-.48 2.56-.8 5.2-1.12 8h-.16a8 8 0 11-15.92 0c.24-2.72.56-5.36 1-8 11.92-80.94 87-96 87-96l10.72-2.24 1.84 15.92zm28.89 40.31a55.77 55.77 0 0141.2 18.16l9.7-13.09a72 72 0 00-122.88 50.91h16a56 56 0 0155.98-55.98z"/><path class="cls-2" d="M48 415.9a44 44 0 1044 44 44 44 0 00-44-44zm.56 72A28 28 0 1176 459.33a28 28 0 01-27.45 28.55z"/><path class="cls-3" d="M12 459.89a44 44 0 0140-43.79c-1.32-.11-2.65-.2-4-.2a44 44 0 000 88c1.35 0 2.68-.09 4-.2a44 44 0 01-40-43.81z"/><path class="cls-1" d="M84 459.89a44 44 0 01-40 43.79c1.32.11 2.65.2 4 .2a44 44 0 000-88c-1.35 0-2.68.09-4 .2a44 44 0 0140 43.81z"/><path class="cls-2" d="M400 8a20.12 20.12 0 11-20.07 20.16A20.17 20.17 0 01400 8z"/><path class="cls-3" d="M387.91 28.16A20.17 20.17 0 01404 8.41a19.72 19.72 0 00-4-.41 20.12 20.12 0 000 40.23 20.45 20.45 0 004-.4 20.09 20.09 0 01-16.09-19.67z"/><path class="cls-1" d="M412.14 28.07a20.19 20.19 0 01-16.09 19.76 20.53 20.53 0 004 .4 20.12 20.12 0 000-40.23 20.53 20.53 0 00-4 .4 20.09 20.09 0 0116.09 19.67z"/><path class="cls-3" d="M35.99 455.89h327.93v24H67.98l-31.99-24z"/><path d="M16.88 428.79a44 44 0 0174.9 27.1h16A59.93 59.93 0 005.53 417.52l11.35 11.26z" fill="#48cfad"/><path class="cls-3" d="M16.88 428.79a44 44 0 0174.9 27.1h16A59.93 59.93 0 005.53 417.52l11.35 11.26zm411.18-236.83h-13.92L397.27 48l12.52-2.35 18.27 146.31z"/><path fill="#fff" d="M363.92 463.87H46.62l-10.63-7.98h327.93v7.98z"/><path class="cls-2" d="M428.05 192l31.84 255.9a8 8 0 01-16 0L414.15 192z"/><path class="cls-1" d="M456.67 392.15c1.47.14 2.93.34 4.37.57l.26 2.07a55.89 55.89 0 01-13.4 108.89c1.32.09 2.64.2 4 .2a56 56 0 004.78-111.73z"/><path class="cls-3" d="M403.9 447.89a55.81 55.81 0 0126.43-47.46l-.47-4a56 56 0 0022 107.46c1.36 0 2.68-.11 4-.2a56 56 0 01-51.96-55.8z"/><path class="cls-6" d="M400.27 32.12a4 4 0 01-4-4 4 4 0 013.95-4h.08a4 4 0 110 8zm51.62 475.76a60 60 0 01-27.69-113.21 4 4 0 013.7 7.09 52 52 0 1036.37-4.38 4 4 0 111.91-7.76 60 60 0 01-14.29 118.26z"/><path class="cls-6" d="M451.89 491.88a44 44 0 01-26.21-79.31 4 4 0 014.77 6.42 36 36 0 1035.44-4.26 4 4 0 01-2.12-5.25 4 4 0 015.24-2.11 44 44 0 01-17.12 84.51zm-71.99-39.99a4 4 0 01-4-4 76.12 76.12 0 0146.69-70.13 4 4 0 013.08 7.37 68.12 68.12 0 00-41.77 62.77 4 4 0 01-4 3.99zM502.79 401a4 4 0 01-2.83-1.17 67.36 67.36 0 00-37.43-19.08 4 4 0 01-3.33-4.57 4.07 4.07 0 014.57-3.33 75.33 75.33 0 0141.85 21.33 4 4 0 01-2.83 6.82zM48 507.88a48 48 0 1144.72-65.45 4 4 0 01-7.45 2.91A40 40 0 1075.45 489a4 4 0 115.5 5.81A47.78 47.78 0 0148 507.88z"/><path class="cls-6" d="M105.81 447.89A4 4 0 01102 445a56 56 0 00-93.6-24.7 4 4 0 11-5.66-5.65 64 64 0 01106.93 28.18 4 4 0 01-2.8 4.92 3.91 3.91 0 01-1.06.14zm354.07 4a4 4 0 01-4-3.5L407.5 58.6a4 4 0 117.93-1l48.43 389.8a4 4 0 01-3.48 4.46 2.74 2.74 0 01-.5.03zm-15.99 0a4 4 0 01-4-3.53l-45-387.69a4 4 0 118-.93l45 387.69a4 4 0 01-3.51 4.44 3.77 3.77 0 01-.49.02zm-111.96-8h-.37a4 4 0 01-3.62-4.34c8.18-89.92 90.35-107.38 91.18-107.54a4 4 0 011.57 7.84c-3.15.63-77.16 16.56-84.78 100.41a4 4 0 01-3.98 3.63z"/><path class="cls-6" d="M347.86 445.34h-.36a4 4 0 01-3.63-4.34c7.08-77.82 77.66-93.15 78.37-93.3a4 4 0 011.61 7.84c-.65.14-65.5 14.48-72 86.18a4 4 0 01-3.99 3.62zm16.06 14.55H36a4 4 0 010-8h327.91a4 4 0 010 8zm0 24H68a4 4 0 110-8h295.91a4 4 0 010 8z"/><path class="cls-6" d="M68 483.89a4 4 0 01-2.4-.8l-32-24a4 4 0 014.8-6.41l32 24a4 4 0 01-2.4 7.21zm295.92-47.99h-14.84a4 4 0 010-8h14.84a4 4 0 010 8zm-47.99 15.99a4 4 0 01-4-4v-16a4 4 0 118 0v16a4 4 0 01-4 4z"/><path class="cls-6" d="M363.92 451.89a4 4 0 01-4-4v-16a4 4 0 118 0v16a4 4 0 01-4 4zm-24-.03a12 12 0 01-12-12 4 4 0 018 0 4 4 0 007.94 0 4 4 0 018 0 12 12 0 01-11.94 12z"/><path class="cls-6" d="M332.88 435.9h-16.95a4 4 0 110-8h16.95a4 4 0 010 8zm31.04 47.99a4 4 0 01-4-4v-24a4 4 0 118 0v24a4 4 0 01-4 4zM493.13 414a4 4 0 01-3.21-6.38l9.66-13a4 4 0 016.42 4.76l-9.66 13a4 4 0 01-3.21 1.62zm-97.22 37.89h-16a4 4 0 110-8h16a4 4 0 110 8zm55.98 8a12 12 0 01-12-12 4 4 0 118 0 4 4 0 008 0 4 4 0 018 0 12 12 0 01-12 12zm32-8h-8a4 4 0 110-8h8a4 4 0 010 8zm-55.99 0h-8a4 4 0 110-8h8a4 4 0 110 8zm39.99 27.72a4 4 0 01-3.47-2l-4-6.94a4 4 0 016.94-4l4 6.94a4 4 0 01-3.47 6zm-32.01 0a4 4 0 01-3.46-6l4-6.94a4 4 0 016.92 4l-4 6.94a4 4 0 01-3.46 2zM16.89 432.79a4 4 0 01-2.83-1.17L2.74 420.3a4 4 0 015.66-5.65L19.72 426a4 4 0 01-2.83 6.83zM400 52.24a24.12 24.12 0 1124.12-24.12A24.15 24.15 0 01400 52.24zM400 12a16.12 16.12 0 1016.12 16.12A16.14 16.14 0 00400 12zm19.9 295.93h-8a4 4 0 010-8h8a4 4 0 010 8z"/><path class="cls-6" d="M411.9 331.92a4 4 0 01-4-4v-24a4 4 0 118 0v24a4 4 0 01-4 4zM435.68 196H403.9a4 4 0 010-8h31.78a4 4 0 110 8zM48 491.88a32 32 0 1126.25-50.27 4 4 0 11-6.56 4.57 24 24 0 10-12.17 36.5 4 4 0 012.48 7.59 31.4 31.4 0 01-10 1.61z"/></svg>