<svg id="Layer_1" data-name="Layer 1" xmlns="http://www.w3.org/2000/svg" viewBox="0 0 511.88 511.88"><defs><style>.cls-1{fill:#e0e0fc}.cls-2{fill:#f3f3ff}.cls-3{fill:#babaf7}.cls-4{fill:#fff}.cls-6{fill:#8c8cf9}</style></defs><path class="cls-1" d="M160 384a64 64 0 11-64-64 64 64 0 0164 64z"/><path class="cls-2" d="M40 384h-8a64 64 0 0064 64c1.35 0 2.67-.11 4-.2A64 64 0 0140 384z"/><path class="cls-3" d="M152 384h8a64 64 0 01-64 64c-1.35 0-2.67-.11-4-.2a64 64 0 0060-63.8z"/><path class="cls-2" d="M128 384a32 32 0 11-32-32 32 32 0 0132 32z"/><path class="cls-1" d="M507.89 384a64 64 0 11-64-64 64 64 0 0164 64z"/><path class="cls-2" d="M475.89 384a32 32 0 11-32-32 32 32 0 0132 32z"/><path class="cls-4" d="M419.9 384a31.93 31.93 0 0128-31.59 31 31 0 00-4-.4 32 32 0 000 64 31 31 0 004-.4 31.91 31.91 0 01-28-31.61z"/><path class="cls-1" d="M467.89 384a31.91 31.91 0 01-28 31.59 31 31 0 004 .4 32 32 0 100-64 31 31 0 00-4 .4 31.93 31.93 0 0128 31.61z"/><path class="cls-4" d="M72 384h-8a32 32 0 0032 32 31.32 31.32 0 004-.4A31.91 31.91 0 0172 384z"/><path class="cls-1" d="M120 384h8a32 32 0 01-32 32 31.14 31.14 0 01-4-.4 31.91 31.91 0 0028-31.6z"/><path class="cls-3" d="M493.93 344.16a64 64 0 00-114 39.84 64.56 64.56 0 00.68 8.85c5.17-12.58 18.39-38.64 42.61-49.54 8.82-4 19.18-6 30.77-6 17.01.02 32.53 4.39 39.94 6.85z"/><path class="cls-2" d="M419.9 336c-36.23 16.32-49.59 61.59-49.59 61.59a71.73 71.73 0 0110.88-76.38 71.74 71.74 0 0125.11-18.88 70.11 70.11 0 0127.11-6.33 72 72 0 0168.15 42.39S456.21 319.7 419.9 336z"/><path class="cls-1" d="M482.46 332.71a133.29 133.29 0 0119.1 5.7A72 72 0 00433.41 296c-1.81.05-3.63.23-5.44.42a71.79 71.79 0 0154.49 36.29z"/><path class="cls-4" d="M371.91 369.61a72.73 72.73 0 0117.28-48.39 71.74 71.74 0 0125.11-18.88 70.13 70.13 0 0124.39-6.11c-1.76-.07-3.5-.27-5.28-.21a70.07 70.07 0 00-27.11 6.32 71.74 71.74 0 00-25.11 18.88 71.73 71.73 0 00-10.88 76.38 101.68 101.68 0 014.18-10.94 72.87 72.87 0 01-2.58-17.05z"/><path class="cls-3" d="M483.29 341.11A63.85 63.85 0 01439.9 447.8c1.32.09 2.64.2 4 .2a64 64 0 0050-103.84c-2.6-.87-6.23-1.97-10.61-3.05z"/><path class="cls-2" d="M387.89 384a63.75 63.75 0 01.36-6.67 127.62 127.62 0 00-7.68 15.51A64 64 0 00443.89 448c1.35 0 2.67-.11 4-.2a64 64 0 01-60-63.8z"/><path class="cls-1" d="M313.68 96.39a8 8 0 014.57 15.36 8 8 0 11-4.57-15.36z"/><path class="cls-3" d="M323.6 101.83a8 8 0 00-9.92-5.44l35.12-10.32a21 21 0 00-.88 6 19.7 19.7 0 002.71 10.08l-32.39 9.6a7.94 7.94 0 005.36-9.92z"/><path class="cls-1" d="M367.91 72.08v40a18.61 18.61 0 01-6.07-1 19.69 19.69 0 01-11.13-8.95h-.07a19.61 19.61 0 01-2.72-10.08 21 21 0 01.88-6h.08a19.89 19.89 0 0119.03-13.97zm24.96 44.55l-24.96-4.56V72.08l43.99-8v55.98l-19.03-3.43z"/><path class="cls-3" d="M367.91 104.07a18.88 18.88 0 01-6.07-1 19.75 19.75 0 01-11.13-9h-.07a19.47 19.47 0 01-2.23-6.34 20.67 20.67 0 00-.49 4.26 19.61 19.61 0 002.72 10.08h.07a19.69 19.69 0 0011.13 8.95 18.61 18.61 0 006.07 1l25 4.56 19 3.43v-8l-19-3.44z"/><path class="cls-2" d="M367.91 72.08a19.89 19.89 0 00-19 14h-.08a21 21 0 00-.88 6 19.93 19.93 0 00.49 3.74c.13-.58.23-1.19.39-1.74h.08a19.89 19.89 0 0119-14l44-8v-8z"/><path class="cls-1" d="M235.94 184.05v48a8 8 0 01-8 8H76a8 8 0 01-8-8v-32a8 8 0 018-8h144a8 8 0 008-8z"/><path class="cls-3" d="M228 184.05a8 8 0 01-8 8v40a8 8 0 01-8 8h16a8 8 0 008-8v-48z"/><path class="cls-2" d="M84 232v-32a8 8 0 018-8H76a8 8 0 00-8 8v32a8 8 0 008 8h16a8 8 0 01-8-8z"/><path class="cls-1" d="M75.98 256.03l-47.99 41.11v-25.11l47.99-16z"/><path class="cls-2" d="M75.98 256.03l-47.99 16v8l32.71-10.91 15.28-13.09zM188 376H4c0-23.11 11.28-43.91 29.27-58.46C49.67 304.18 71.74 296 96 296c50.85 0 92 35.86 92 80z"/><path class="cls-1" d="M96 296c-2.76 0-5.49.14-8.18.35C135 299.82 172 334.15 172 376h16c0-44.14-41.15-80-92-80z"/><path class="cls-4" d="M49.27 317.54C63.8 305.7 82.79 298 103.79 296.37c-2.58-.19-5.17-.35-7.81-.35-24.24 0-46.31 8.16-62.71 21.52C15.28 332.09 4 352.89 4 376h16c0-23.11 11.27-43.91 29.27-58.46z"/><path class="cls-2" d="M392.87 116.63l-25-4.56a18.61 18.61 0 01-6.07-1l2.07 9.53c9.52 58 8 156.6 8 167.39a55.93 55.93 0 01-55.34 56h-72.59a40 40 0 01-40-40c0-40 24-48 24-48V240H76v16l-48 41.14-8 6.86 12.16 12.15 1.12 1.37C49.67 304.17 71.74 296 96 296c50.87 0 92 35.84 92 80h152a47.77 47.77 0 0024-6.4 72.72 72.72 0 0117.28-48.38 71.62 71.62 0 0125.11-18.88 69.89 69.89 0 0127.02-6.34z"/><path class="cls-1" d="M392.87 116.63l-9.93-2.18 34.94 183.78 15.53-2.21-40.54-179.39z" opacity=".2"/><path class="cls-4" d="M27.61 311.63l16.38-14.49 45.72-36.73 2.27-20.37h-16v15.99l-47.99 41.11-7.99 6.88 7.61 7.61z"/><path class="cls-3" d="M32.53 376a64 64 0 00-.55 8H160a64 64 0 00-.56-8z"/><path class="cls-1" d="M65.12 376a31.54 31.54 0 00-1.12 8h64a32 32 0 00-1.13-8z"/><path class="cls-6" d="M96 451.89a68 68 0 01-67.85-63.73 4 4 0 118-.49 60 60 0 00119.74 0 4 4 0 118 .49A68.05 68.05 0 0196 451.89z"/><path class="cls-6" d="M96 419.9a36 36 0 01-35.71-31.49 4 4 0 117.93-1 28 28 0 0055.55 0 4 4 0 017.94 1A36 36 0 0196 419.9z"/><path class="cls-6" d="M96 427.9a4 4 0 01-4-4v-8a4 4 0 018 0v8a4 4 0 01-4 4zm20-5.36a4 4 0 01-3.46-2l-4-6.92a4 4 0 116.92-4l4 6.92A4 4 0 01118 422a3.91 3.91 0 01-2 .54zm14.61-14.64a3.93 3.93 0 01-2-.54l-6.92-4a4 4 0 014-6.92l6.92 4a4 4 0 01-2 7.46zm-69.27 0a4 4 0 01-2-7.46l6.94-4a4 4 0 114 6.93l-7 4a4 4 0 01-1.94.53zM76 422.54a3.91 3.91 0 01-2-.54 4 4 0 01-1.46-5.46l4-6.93a4 4 0 116.92 4l-4 6.94a4 4 0 01-3.46 1.99zm367.89 29.35a68 68 0 01-65.76-50.69 4 4 0 117.73-2 60 60 0 10108.76-47.28 4 4 0 016.77-4.28 68 68 0 01-57.5 104.28z"/><path class="cls-6" d="M443.89 419.9a36 36 0 1136-36 36 36 0 01-36 36zm0-64a28 28 0 1028 28 28 28 0 00-28-27.98z"/><path class="cls-6" d="M443.89 355.92a4 4 0 01-4-4v-8a4 4 0 118 0v8a4 4 0 01-4 4zm0 71.98a4 4 0 01-4-4v-8a4 4 0 118 0v8a4 4 0 01-4 4zm-15.99-67.7a4 4 0 01-3.46-2l-4-6.92a4 4 0 116.92-4l4 6.93a4 4 0 01-3.46 6zm35.99 62.34a4 4 0 01-3.46-2l-4-6.92a4 4 0 116.92-4l4 6.92a4 4 0 01-1.46 5.46 3.91 3.91 0 01-2 .54zm-47.69-50.63a4 4 0 01-2-.53l-6.94-4a4 4 0 114-6.93l6.94 4a4 4 0 01-2 7.47zm62.33 35.99a3.93 3.93 0 01-2-.54l-6.92-4a4 4 0 014-6.92l6.92 4a4 4 0 01-2 7.46zm-66.61-19.99h-8a4 4 0 010-8h8a4 4 0 010 8zm71.97 0h-8a4 4 0 010-8h8a4 4 0 010 8zm-74.63 19.99a4 4 0 01-2-7.46l6.95-4a4 4 0 014 6.92l-6.95 4a3.93 3.93 0 01-2 .54zm62.35-35.99a4 4 0 01-2-7.46l6.92-4a4 4 0 014 6.92l-6.92 4a3.93 3.93 0 01-2 .54zm-47.71 50.63a3.88 3.88 0 01-2-.54 4 4 0 01-1.46-5.46l4-6.93a4 4 0 016.93 4l-4 6.94a4 4 0 01-3.47 1.99zm36-62.34a4 4 0 01-3.47-6l4-6.92a4 4 0 016.94 4l-4 6.93a4 4 0 01-3.47 1.99z"/><path class="cls-6" d="M370.27 401.5a4 4 0 01-3.64-2.36 76 76 0 01138.11-63.39 4 4 0 01.94 2.58 4.27 4.27 0 01-4.1 4A2.44 2.44 0 01500 342c-.22-.09-21.64-8.8-46.09-8.8-12.15 0-23 2.14-32.37 6.35-34.09 15.36-47.31 58.63-47.43 59.07a4 4 0 01-3.57 2.85zm65.57-101.6a68 68 0 00-65.51 86c6.38-14.85 21.06-41.55 47.93-53.66 10.36-4.67 22.35-7 35.65-7a141.39 141.39 0 0139.23 6 68.21 68.21 0 00-57.3-31.34zm-95.94 80.01H196a4 4 0 010-8h144a4 4 0 010 8z"/><path class="cls-6" d="M431.9 293.43a4 4 0 01-3.9-3.12l-36.54-161.45a4 4 0 017.8-1.76l36.54 161.45a4 4 0 01-3 4.78 3.83 3.83 0 01-.9.1zm-59.99-1.5a4 4 0 01-4-4v-4.08c.58-90.52-4-138.43-8-162.68a4 4 0 117.89-1.29c4 24.55 8.67 72.94 8.07 164v4a4 4 0 01-3.96 4.05zm-167.91 16a4 4 0 01-4-4c0-34.67 17.16-47 24-50.58v-5.41a4 4 0 118 0v8a4 4 0 01-2.73 3.8c-.84.29-21.26 7.87-21.26 44.19a4 4 0 01-4.01 4zm-184 0a4 4 0 01-2.6-7L72 254.1v-6.16a4 4 0 018 0v8a4 4 0 01-1.4 3l-56 48a4 4 0 01-2.6.99zm48-71.99a4 4 0 01-4-4V200a4 4 0 118 0v32a4 4 0 01-4 3.94zm167.94 0a4 4 0 01-4-4V184a4 4 0 118 0v48a4 4 0 01-4 3.94z"/><path class="cls-6" d="M228 212H76a4 4 0 010-8h152a4 4 0 010 8zm111.9 167.92a4 4 0 010-8 44 44 0 0022-5.88 4 4 0 014 6.92 52 52 0 01-26 6.96zm-23.98-32a4 4 0 010-8 52 52 0 0052-52 4 4 0 018 0 60.06 60.06 0 01-60 60zm-71.98 0a44 44 0 01-44-44 4 4 0 018 0 36 36 0 0036 36 4 4 0 010 8z"/><path class="cls-6" d="M316.55 347.92h-72.61a4 4 0 010-8h72.61a4 4 0 010 8zM220 196H76a4 4 0 110-8h144a4 4 0 110 8z"/><path class="cls-6" d="M68 204a4 4 0 01-4-4 12 12 0 0112-12 4 4 0 110 8 4 4 0 00-4 4 4 4 0 01-4 4zm8 39.93a12 12 0 01-12-12 4 4 0 118 0 4 4 0 004 4 4 4 0 110 8zm152 0a4 4 0 010-8 4 4 0 004-4 4 4 0 018 0 12 12 0 01-12 12zM220 196a4 4 0 110-8 4 4 0 004-4 4 4 0 118 0 12 12 0 01-12 12z"/><path class="cls-6" d="M235.94 188h-8a4 4 0 010-8h8a4 4 0 010 8zM228 243.93H76a4 4 0 010-8h152a4 4 0 010 8zM28 315.92a4 4 0 01-2.82-1.17l-8-8a4 4 0 015.65-5.65l8 8a4 4 0 010 5.65 3.94 3.94 0 01-2.83 1.17z"/><path class="cls-6" d="M188 379.92H4a4 4 0 01-4-4c0-46.31 43.05-84 96-84s96 37.68 96 84a4 4 0 01-4 4zm-179.85-8h175.69c-2.41-40.05-40.91-72-87.86-72s-85.45 31.95-87.87 72zM367.91 116a24 24 0 010-48 4 4 0 010 8 16 16 0 000 32 4 4 0 010 8z"/><path class="cls-6" d="M367.9 76a4 4 0 01-.71-7.93l44-8a4.06 4.06 0 014.66 3.22 4 4 0 01-3.22 4.65l-44 8a4.4 4.4 0 01-.73.06zm44.01 48a4.59 4.59 0 01-.73-.06l-44-8a4 4 0 011.44-7.87l44 8a4 4 0 01-.71 7.94z"/><path class="cls-6" d="M411.9 124a4 4 0 01-4-4V64a4 4 0 018 0v56a4 4 0 01-4 4zm-95.98-8a12 12 0 01-3.38-23.5 12.23 12.23 0 0114.89 8.11 12 12 0 01-8.12 14.9 11.78 11.78 0 01-3.39.49zm0-16a4.17 4.17 0 00-1.16.17 4 4 0 00-2.71 5 4.06 4.06 0 005 2.71 4 4 0 002.71-5A3.94 3.94 0 00316 100z"/><path class="cls-6" d="M318.18 115.64a4 4 0 01-1.13-7.83l32.48-9.57a4 4 0 012.26 7.67l-32.47 9.57a4.13 4.13 0 01-1.14.16zm-4.51-15.34a4 4 0 01-1.13-7.83l35.18-10.36a4 4 0 012.28 7.67l-35.2 10.36a4.06 4.06 0 01-1.13.16zM28 275.93a4 4 0 01-1.26-7.79l24-8a4 4 0 012.53 7.59l-24 8a4 4 0 01-1.27.2z"/><path class="cls-6" d="M28 291.93a4 4 0 01-4-4v-16a4 4 0 018 0v16a4 4 0 01-4 4zM367.91 116a4 4 0 01-4-4V72a4 4 0 018 0v40a4 4 0 01-4 4z"/></svg>