<svg id="Layer_1" data-name="Layer 1" xmlns="http://www.w3.org/2000/svg" viewBox="0 0 464 464"><defs><style>.cls-1{fill:#4c616d}</style></defs><path class="cls-1" d="M314.1 96h-96a8 8 0 000 16h96a8 8 0 000-16zm0 64h-96a8 8 0 000 16h96a8 8 0 000-16zm-96 80h32a8 8 0 100-16h-32a8 8 0 000 16zm96-16h-32a8 8 0 000 16h32a8 8 0 000-16zm-128 96h-96a8 8 0 000 16h96a8 8 0 100-16zm128 0h-96a8 8 0 000 16h96a8 8 0 000-16zm0-128h-96a8 8 0 000 16h96a8 8 0 000-16zm-56 104a7.56 7.56 0 00-8-8h-160a8 8 0 000 16h160a7.56 7.56 0 008-8zm56-8h-32a8 8 0 000 16h32a8 8 0 000-16zm-96-144h32a8 8 0 100-16h-32a8 8 0 000 16zm96-16h-32a8 8 0 000 16h32a8 8 0 000-16zm0 128h-96a8 8 0 000 16h96a8 8 0 000-16z"/><path d="M420.5 124.8L378.1 104v352l59.2-296a31.7 31.7 0 00-16.8-35.2z" fill="#8c8cf9"/><path class="cls-1" d="M423.7 85.6l-38.4-19.2A39.7 39.7 0 00346.1 32H161.3a40.24 40.24 0 00-39.2-32h-32c-19.2 0-36 14.4-39.2 32.8C32.5 36 18.1 52.8 18.1 72v352a39.61 39.61 0 0040 40h288c21.6 0 40-16.8 40-38.4l59.2-296c3.2-17.6-5.6-36-21.6-44zM90.1 16h32a23.3 23.3 0 0122.4 16H67.7a23.3 23.3 0 0122.4-16zm280 408a23.57 23.57 0 01-24 24h-88v-24a8 8 0 00-16 0v24h-16v-56a8 8 0 00-16 0v56h-16v-24a8 8 0 00-16 0v24h-80v-24a7.56 7.56 0 00-8-8 7.56 7.56 0 00-8 8v24h-24a23.57 23.57 0 01-24-24V72a23.57 23.57 0 0124-24h88v152a24 24 0 01-48 0V72a7.56 7.56 0 00-8-8 7.56 7.56 0 00-8 8v128a40 40 0 0080 0V48h184a23.57 23.57 0 0124 24zm59.2-297.6l-43.2 216.8V84.8l30.4 15.2c9.6 4.8 15.2 16 12.8 26.4z"/></svg>