<svg id="Hero" xmlns="http://www.w3.org/2000/svg" viewBox="0 0 41 41"><defs><style>.cls-3{fill:#a4cff2}.cls-4{fill:#fff}.cls-5{fill:#7babf1}.cls-6{fill:#4c4372}</style></defs><path d="M33.37 20.45A12.75 12.75 0 1120.62 7.7a12.75 12.75 0 0112.75 12.75z" fill="#dfffdc"/><path d="M28.89 35.48H20V11.73h8.89a1.9 1.9 0 011.91 1.91v19.93a1.9 1.9 0 01-1.91 1.91z" fill="#d3e6f8"/><path class="cls-3" d="M28.89 11.73h-2.12a1.9 1.9 0 011.91 1.91v19.93a1.9 1.9 0 01-1.91 1.91h2.12a1.9 1.9 0 001.91-1.91V13.64a1.88 1.88 0 00-1.91-1.91z"/><path class="cls-4" d="M20 28.46h4.57a1 1 0 011 1v1.24a1 1 0 01-1 1H20z"/><path class="cls-5" d="M33.66 26.76H30.8v-7.27h2.86a1.23 1.23 0 011.25 1.25v4.77a1.23 1.23 0 01-1.25 1.25z"/><path class="cls-4" d="M20 35.48h-3a7.69 7.69 0 01-7.67-7.68V15.51a3.79 3.79 0 013.78-3.78H20z"/><path class="cls-4" d="M8.46 26h.91v-6.51h-.91a3.24 3.24 0 000 6.48z"/><path class="cls-3" d="M13.69 5.41a7.28 7.28 0 00-7.27 7.27v7.56a3.1 3.1 0 012-.71h.91v-4a3.79 3.79 0 013.78-3.78H20V5.41z"/><path class="cls-5" d="M27.85 11.73H20V7.08h5.61a2.21 2.21 0 012.2 2.2v2.45zm-12.25 12a1.23 1.23 0 01-1.25-1.25v-1.74a1.25 1.25 0 012.5 0v1.74a1.25 1.25 0 01-1.25 1.25z"/><path class="cls-6" d="M28.89 35.85H20a.36.36 0 01-.37-.37V11.73a.37.37 0 01.37-.38h8.89a2.31 2.31 0 012.28 2.29v19.93a2.3 2.3 0 01-2.28 2.28zm-8.51-.74h8.51a1.58 1.58 0 001.58-1.58V13.6a1.58 1.58 0 00-1.58-1.6h-8.51z"/><path class="cls-6" d="M33.66 27.13H30.8a.37.37 0 01-.38-.37v-7.27a.37.37 0 01.38-.37h2.86a1.61 1.61 0 011.62 1.62v4.77a1.59 1.59 0 01-1.62 1.62zm-2.49-.7h2.49a.89.89 0 00.88-.87v-4.78a.88.88 0 00-.88-.87h-2.49z"/><path class="cls-6" d="M34.91 22.57a.37.37 0 01-.37-.38v-5.36a.37.37 0 11.74 0v5.36a.35.35 0 01-.37.38zm-1.25 2.99a.38.38 0 01-.37-.38V21a.38.38 0 01.71 0v4.15a.38.38 0 01-.38.38zM20 35.85h-3a8 8 0 01-8-8V15.51a4.17 4.17 0 014.15-4.16H20a.38.38 0 01.38.38v23.75a.37.37 0 01-.38.37zm-6.85-23.79a3.43 3.43 0 00-3.41 3.4V27.8a7.33 7.33 0 007.31 7.31h2.62v-23z"/><path class="cls-6" d="M6.42 20.57a.36.36 0 01-.37-.37v-7.56A7.6 7.6 0 0113.65 5H20a.38.38 0 01.38.37v6.32a.38.38 0 01-.38.37h-6.85a3.43 3.43 0 00-3.41 3.41v4a.37.37 0 01-.37.38h-.91a2.73 2.73 0 00-1.79.62.57.57 0 01-.25.08zm7.27-14.82a6.87 6.87 0 00-6.89 6.89v6.89a3.74 3.74 0 011.66-.41H9v-3.61a4.17 4.17 0 014.15-4.16h6.48V5.79h-6z"/><path class="cls-6" d="M9.37 26.34h-.91a3.61 3.61 0 110-7.22h.91a.36.36 0 01.37.37V26a.36.36 0 01-.37.37zm-.91-6.47a2.87 2.87 0 100 5.73H9v-5.78h-.54zm19.39-7.81H20a.37.37 0 01-.37-.37V7a.37.37 0 01.37-.34h5.61a2.58 2.58 0 012.57 2.58v2.45a.32.32 0 01-.33.37zm-7.47-.71h7.1V9.28a1.86 1.86 0 00-1.87-1.87h-5.23zM24.57 32H20a.36.36 0 01-.37-.37v-3.2a.36.36 0 01.37-.37h4.57a1.34 1.34 0 011.33 1.33v1.24A1.32 1.32 0 0124.57 32zm-4.19-.7h4.19a.64.64 0 00.62-.63v-1.25a.65.65 0 00-.62-.63h-4.19z"/><path class="cls-6" d="M25.57 30.41h-8.93A1.38 1.38 0 0115.27 29v-.58a.36.36 0 01.37-.37.37.37 0 01.38.37V29a.66.66 0 00.66.67h8.93a.36.36 0 01.37.37.54.54 0 01-.41.37z"/><path class="cls-6" d="M22 32a.37.37 0 01-.37-.37v-3.2a.38.38 0 01.75 0v3.2A.43.43 0 0122 32zm1.82 0a.36.36 0 01-.37-.37v-3.2a.36.36 0 01.37-.37.37.37 0 01.38.37v3.2c-.05.2-.2.37-.38.37zm-8.22-7.94a1.63 1.63 0 01-1.6-1.62V20.7a1.62 1.62 0 011.62-1.62 1.59 1.59 0 011.62 1.62v1.74a1.6 1.6 0 01-1.62 1.62zm0-4.24a.88.88 0 00-.87.88v1.74a.87.87 0 101.74 0V20.7a.83.83 0 00-.87-.88z"/><path d="M36 15.75a1.12 1.12 0 11-1.12-1.12A1.12 1.12 0 0136 15.75zm-7.57 5.82a3 3 0 11-3-3 3 3 0 013 3z" fill="#8c8cf9"/><path class="cls-6" d="M34.91 17.25a1.5 1.5 0 111.49-1.5 1.49 1.49 0 01-1.49 1.5zm0-2.24a.75.75 0 10.75.74.72.72 0 00-.75-.75zM25.4 25a3.36 3.36 0 113.36-3.36A3.34 3.34 0 0125.4 25zm0-6a2.66 2.66 0 102.66 2.66A2.63 2.63 0 0025.4 19z"/></svg>