<svg id="Hero" xmlns="http://www.w3.org/2000/svg" viewBox="0 0 41 41"><defs><style>.cls-3{fill:#4c4372}</style></defs><path d="M20.5.4a10 10 0 00-10 10v12.1h3.4v4.3a3 3 0 003 3h3.4v8.5h10.2V10.4a10 10 0 00-10-10z" fill="#d3e6f8"/><path d="M20.5.4a3.4 3.4 0 00-1 .1 10.06 10.06 0 019 9.9v27.9h2V10.4a10 10 0 00-10-10z" fill="#a4cff2"/><path class="cls-3" d="M30.5 38.7H20.3a.43.43 0 01-.4-.4v-8H17a3.37 3.37 0 01-3.4-3.4v-4h-3a.43.43 0 01-.4-.4V10.4a10.4 10.4 0 1120.8 0v27.9a.66.66 0 01-.5.4zm-9.7-.8h9.3V10.5a9.5 9.5 0 00-19 0v11.6h3a.43.43 0 01.4.4v4.3a2.58 2.58 0 002.6 2.6h3.4a.43.43 0 01.4.4v8.1z"/><path d="M22.1 9.1h-.4V15h.4a1.22 1.22 0 001.2-1.2v-3.6a1.13 1.13 0 00-1.2-1.1z" fill="#ff3131"/><path class="cls-3" d="M17.4 14h-2a.4.4 0 010-.8h2a.4.4 0 110 .8zm0-1.5h-2.7a.66.66 0 01-.5-.4.66.66 0 01.4-.5h2.7a.43.43 0 01.4.4.35.35 0 01-.3.5zm0-1.4h-2a.43.43 0 01-.4-.4V9.2a.4.4 0 01.8 0v1.1h1.5a.43.43 0 01.4.4c.1.2-.1.4-.3.4zm7.9 4.4a.43.43 0 01-.4-.4V14h-1.5a.4.4 0 010-.8h2a.43.43 0 01.4.4v1.5a.66.66 0 01-.5.4zm.7-3h-2.7a.66.66 0 01-.5-.4.66.66 0 01.4-.5h2.7a.43.43 0 01.4.4.35.35 0 01-.3.5zm-.7-1.4h-2a.4.4 0 110-.8h2a.4.4 0 010 .8zm-6.4-1.5a.43.43 0 01-.4-.4v-2a.4.4 0 01.8 0v2a.43.43 0 01-.4.4zm1.4 0a.43.43 0 01-.4-.4V6.5a.4.4 0 11.8 0v2.7c.1.2-.1.4-.4.4zm1.5 0a.43.43 0 01-.4-.4v-2a.4.4 0 11.8 0v2a.43.43 0 01-.4.4zm-2.9 7.9a.43.43 0 01-.4-.4v-2a.4.4 0 11.8 0v2a.43.43 0 01-.4.4zm1.4.7a.43.43 0 01-.4-.4v-2.7a.4.4 0 01.8 0v2.7c.1.2-.1.4-.4.4zm1.5-.7a.43.43 0 01-.4-.4v-2a.4.4 0 01.8 0v2a.43.43 0 01-.4.4z"/><path d="M22.1 15.1h-3.6a1.22 1.22 0 01-1.2-1.2v-3.6a1.22 1.22 0 011.2-1.2h3.6a1.22 1.22 0 011.2 1.2v3.6a1.16 1.16 0 01-1.2 1.2zm-7.4-3a1 1 0 11-1-1 1.08 1.08 0 011 1zm13.2 0a1 1 0 11-1-1 1 1 0 011 1zm-6.6-6.6a1 1 0 11-1-1 .94.94 0 011 1zm0 13.2a1 1 0 11-1-1 1.07 1.07 0 011 1z" fill="#8c8cf9"/><path class="cls-3" d="M22.1 15.5h-3.6a1.58 1.58 0 01-1.6-1.6v-3.6a1.58 1.58 0 011.6-1.6h3.6a1.58 1.58 0 011.6 1.6v3.6a1.58 1.58 0 01-1.6 1.6zm-3.6-5.9a.68.68 0 00-.7.7v3.6a.68.68 0 00.7.7h3.6a.68.68 0 00.7-.7v-3.6a.68.68 0 00-.7-.7zm-4.8 3.9a1.4 1.4 0 111.4-1.4 1.37 1.37 0 01-1.4 1.4zm0-1.9a.5.5 0 10.5.5.47.47 0 00-.5-.5zM27 13.5a1.4 1.4 0 111.4-1.4 1.43 1.43 0 01-1.4 1.4zm0-1.9a.5.5 0 10.5.5.47.47 0 00-.5-.5zm-6.7-4.7a1.37 1.37 0 01-1.4-1.4 1.4 1.4 0 112.8 0 1.43 1.43 0 01-1.4 1.4zm0-2a.47.47 0 00-.5.5.5.5 0 101 0 .47.47 0 00-.5-.5zm0 15.3a1.4 1.4 0 111.4-1.4 1.43 1.43 0 01-1.4 1.4zm0-2a.5.5 0 10.5.5.54.54 0 00-.5-.5z"/></svg>