<svg id="Hero" xmlns="http://www.w3.org/2000/svg" viewBox="0 0 47.2 92.9"><defs><style>.cls-2{fill:#8c8cf9}</style></defs><path d="M23.7 34.2v-6.5m0-7.3v-6.5m0-6.5V.9" stroke="#8c8cf9" stroke-linecap="round" stroke-linejoin="round" stroke-width="2" fill="#8c8cf9"/><path class="cls-2" d="M19.3 51.9a3.1 3.1 0 103.1 3.1 3.12 3.12 0 00-3.1-3.1zm0 4.6a1.5 1.5 0 110-3 1.54 1.54 0 011.5 1.5 1.47 1.47 0 01-1.5 1.5zm8.8-4.6a3.1 3.1 0 103.1 3.1 3.12 3.12 0 00-3.1-3.1zm0 4.6a1.5 1.5 0 110-3 1.5 1.5 0 010 3z"/><path class="cls-2" d="M37.5 55.5a4.36 4.36 0 00-3.6-3.5 4.63 4.63 0 00-4.9-3.5h-4.5v-1.7a2.56 2.56 0 10-3.2-1.7 2.86 2.86 0 001.7 1.7v1.7h-4.5a4.7 4.7 0 00-4.9 3.5 4.24 4.24 0 00-.2 8.4c.2 3.4 2.7 4.6 5.1 4.6H29a4.72 4.72 0 005.1-4.6 4.21 4.21 0 003.4-4.9zm-24.1 3.4a2.72 2.72 0 01-1.9-3.4 3 3 0 011.9-1.9zm9.3-14.5a1 1 0 011-1 1 1 0 010 2 1 1 0 01-1-1zm9.8 15.5a3.3 3.3 0 01-3.6 3.6H18.5a3.3 3.3 0 01-3.6-3.6v-6.2a3.26 3.26 0 013.6-3.6H29a3.26 3.26 0 013.6 3.6v6.2zm1.5-1.1v-5.3a2.67 2.67 0 012 2.6 2.7 2.7 0 01-2 2.7z"/><path class="cls-2" d="M28.1 60.2h-8.8a.79.79 0 00-.8.8.74.74 0 00.8.8h8.8a.8.8 0 000-1.6zm12.7 6.3a3.08 3.08 0 00-3-3 3 3 0 00-2.9 2.3l-2.1.4H14.5l-2.1-.4a3.07 3.07 0 00-3.6-2.3 3.07 3.07 0 00-2.3 3.6 2.77 2.77 0 002.2 2.2V75a2.92 2.92 0 00-2.2 2.9v1.4a.79.79 0 00.8.8.74.74 0 00.8-.8V78a1.4 1.4 0 012.8 0v1.4a.79.79 0 00.8.8.74.74 0 00.8-.8V78a3.09 3.09 0 00-2.2-2.9v-5.7a3 3 0 002.1-2l1.3.3v9.5a9 9 0 00.9 4v.1a10 10 0 0013.2 5 10.14 10.14 0 005-5v-.1a9.34 9.34 0 00.9-4v-9.5l1.3-.3a3 3 0 002.1 2v5.7a2.92 2.92 0 00-2.2 2.9v1.4a.8.8 0 001.6 0V78a1.4 1.4 0 112.8 0v1.4a.79.79 0 00.8.8.74.74 0 00.8-.8V78a3.09 3.09 0 00-2.2-2.9v-5.7a3.13 3.13 0 002.1-2.9zM9.6 67.9a1.4 1.4 0 111.4-1.4 1.37 1.37 0 01-1.4 1.4zm14.1 17.7a8.4 8.4 0 01-7.1-3.9h14.3a8.7 8.7 0 01-7.2 3.9zm8.5-8.5a8 8 0 01-.6 3H15.8a8 8 0 01-.6-3v-9.4h16.9v9.4zm5.6-9.2a1.54 1.54 0 01-1.5-1.5 1.4 1.4 0 112.8 0 1.23 1.23 0 01-1.3 1.5z"/><path class="cls-2" d="M26.4 73.2a.76.76 0 00-.5-.2h-2.3l2.8-2.9a.79.79 0 00-.1-1.1.91.91 0 00-1 0l-4.1 4.2a.78.78 0 000 1.1.76.76 0 00.5.2h2.4l-2.9 3.2a.71.71 0 00.1 1.1.71.71 0 001.1-.1l4.1-4.5c.3-.2.2-.7-.1-1z"/></svg>