<svg id="Layer_1" data-name="Layer 1" xmlns="http://www.w3.org/2000/svg" viewBox="0 0 512 512"><defs><style>.cls-1{fill:#8c8cf9}</style></defs><path class="cls-1" d="M256 165a90.95 90.95 0 00-77.18 139.14 9.79 9.79 0 00.94 1.49A91 91 0 10256 165zm-65.71 117.84A71 71 0 01314 215.17l-54.9 54.92-21-21a10 10 0 00-14.14 0zM256 327a70.86 70.86 0 01-55.18-26.4l30.25-30.26 21 21a10 10 0 0014.15 0L323.49 234A71 71 0 01256 327z"/><path class="cls-1" d="M409.85 249.1A296.56 296.56 0 00261 1.33a10 10 0 00-10 0A296.58 296.58 0 00102.15 249.1 96.09 96.09 0 0044 337.35V408a10 10 0 0010 10h146.94a125.66 125.66 0 0036.88 80.13l11.16 11a10 10 0 0014 0l11.16-11A125.71 125.71 0 00311.06 418H342v51.61a10 10 0 0020 0V418h96a10 10 0 0010-10v-70.65a96.09 96.09 0 00-58.15-88.25zM256 21.6A276 276 0 01335.57 94H176.43A276 276 0 01256 21.6zM64 398v-60.65a76.09 76.09 0 0138-65.84V388a29.84 29.84 0 001.72 10zm196.14 85.88L256 488l-4.14-4.08A105.47 105.47 0 01221 418h70a105.47 105.47 0 01-30.86 65.88zM390 388a10 10 0 01-10 10H132a10 10 0 01-10-10V258.59a275.77 275.77 0 0120.43-104.09h45.28a10 10 0 100-20h-36.2q5.28-10.5 11.42-20.5h186.14A276.54 276.54 0 01390 258.59zm58 10h-39.72a29.84 29.84 0 001.72-10V271.51a76.09 76.09 0 0138 65.84z"/><path class="cls-1" d="M231.07 137.43a10 10 0 102.93 7.07 10.08 10.08 0 00-2.93-7.07zM160 444.75a10 10 0 00-10 10v30.81a10 10 0 0020 0v-30.81a10 10 0 00-10-10zm199.07 50.18A10 10 0 10362 502a10.08 10.08 0 00-2.93-7.07z"/></svg>