<svg id="Layer_1" data-name="Layer 1" xmlns="http://www.w3.org/2000/svg" viewBox="0 0 512 512"><defs><style>.cls-1{fill:#8c8cf9}</style></defs><path class="cls-1" d="M511.9 9.66a9.45 9.45 0 00-.34-1.73 11.45 11.45 0 00-.74-1.81 10.09 10.09 0 00-.4-1c-.12-.2-.32-.33-.46-.52a12 12 0 00-1.26-1.41A11.32 11.32 0 00507.26 2c-.19-.13-.31-.32-.5-.43a9.08 9.08 0 00-1-.39 10.64 10.64 0 00-1.86-.75 11.36 11.36 0 00-1.61-.33 11.63 11.63 0 00-2-.09 10.06 10.06 0 00-1.81.3 11.29 11.29 0 00-1.14.19L7.54 167.49a11.12 11.12 0 00-.39 20.92L236 276.35l98.9 228.94a11.15 11.15 0 0010.22 6.71h.56a11.13 11.13 0 0010.05-7.74L511.59 14.41a9.65 9.65 0 00.15-1.06 10.79 10.79 0 00.25-1.86 10.21 10.21 0 00-.09-1.83zm-468.1 169L459.25 37 241.61 254.64zm299.73 290.47l-85.94-199 218.9-218.89z"/><path class="cls-1" d="M174.87 337.14a11.11 11.11 0 00-15.74 0L3.27 493A11.13 11.13 0 1019 508.74l155.87-155.86a11.12 11.12 0 000-15.74zm28.79 77.93L125.73 493a11.13 11.13 0 1015.74 15.74l77.93-77.93a11.13 11.13 0 00-15.74-15.74zM11.14 389.54a11.1 11.1 0 007.86-3.26l77.93-77.93A11.13 11.13 0 0081.2 292.6L3.27 370.53a11.14 11.14 0 007.87 19z"/></svg>