<svg id="Layer_1" data-name="Layer 1" xmlns="http://www.w3.org/2000/svg" viewBox="0 0 464 464"><defs><style>.cls-2{fill:#4c616d}</style></defs><path d="M344 64a16 16 0 000-32H120a16 16 0 000 32h16L40 192a32 32 0 0064 0 32 32 0 0064 0 32 32 0 0064 0 32 32 0 0064 0 32 32 0 0064 0 32 32 0 0064 0L328 64z" fill="#8c8cf9"/><path class="cls-2" d="M24 464h416a24 24 0 000-48h-40V207.2c17.6-4 31.2-19.2 32-37.6v-3.2c0-.8-.8-.8-.8-1.6v-.8L344 48a23.57 23.57 0 0024-24 23.57 23.57 0 00-24-24H120a23.57 23.57 0 00-24 24 23.57 23.57 0 0024 24L33.6 163.2c0 .8-.8.8-.8 1.6v.8c-.8 0-.8.8-.8 2.4v1.6c.8 18.4 14.4 34.4 32 37.6V416H24a24 24 0 000 48zm88-440a7.56 7.56 0 018-8h224a7.56 7.56 0 018 8 7.56 7.56 0 01-8 8h-18.4c-.8 0-.8.8-1.6.8h-.8v.8c-.8 0-.8.8-.8 1.6l-.8.8c0 .8 0 .8-.8 1.6v4.8c0 .8.8.8.8 1.6v.8L416 170.4c-.8 12-11.2 21.6-24 21.6a23.3 23.3 0 01-22.4-16H392a8 8 0 000-16h-27.2L303.2 36.8Q300.8 32 296 32H120a7.56 7.56 0 01-8-8zm77.6 24l-28 112h-44.8l56-112zm-31.2 128a23.68 23.68 0 01-44.8 0zm41.6-16h-21.6l28-112H224v120a23.57 23.57 0 01-24 24 23.3 23.3 0 01-22.4-16H200a8 8 0 000-16zm64 0h-24V48h17.6L288 168.8c0 12.8-11.2 23.2-24 23.2a23.3 23.3 0 01-22.4-16H264a8 8 0 000-16zm38.4 0l-28-112h16.8l56 112zm48 16a23.68 23.68 0 01-44.8 0zm-300.8 0H72a8 8 0 000-16H56l84-112h15.2L96.8 164.8c-.8.8-.8 1.6-.8 3.2a23.57 23.57 0 01-24 24 23.3 23.3 0 01-22.4-16zM80 207.2a44.56 44.56 0 0024-15.2 40 40 0 0064 0 40 40 0 0064 0 40 40 0 0064 0 40 40 0 0064 0 37.06 37.06 0 0024 15.2V416H80zM24 432h416a8 8 0 010 16H24a8 8 0 010-16z"/><path class="cls-2" d="M200 224h-96a7.56 7.56 0 00-8 8v160a7.56 7.56 0 008 8h96a7.56 7.56 0 008-8V232a7.56 7.56 0 00-8-8zm-8 160h-80V240h80zm168-160H232a7.56 7.56 0 00-8 8v128a7.56 7.56 0 008 8h128a7.56 7.56 0 008-8V232a7.56 7.56 0 00-8-8zm-8 128H240V240h112z"/><path class="cls-2" d="M264 336a7.26 7.26 0 005.6-2.4l64-64a7.92 7.92 0 00-11.2-11.2l-64 64a7.73 7.73 0 000 11.2 7.26 7.26 0 005.6 2.4zm0-32a7.26 7.26 0 005.6-2.4l32-32a7.92 7.92 0 00-11.2-11.2l-32 32a7.73 7.73 0 000 11.2 7.26 7.26 0 005.6 2.4zm58.4-13.6l-32 32a7.73 7.73 0 000 11.2 7.73 7.73 0 0011.2 0l32-32a7.92 7.92 0 00-11.2-11.2z"/><circle class="cls-2" cx="168" cy="296" r="16"/><path class="cls-2" d="M328 384h-64a8 8 0 000 16h64a8 8 0 000-16z"/></svg>