<svg id="Layer_1" data-name="Layer 1" xmlns="http://www.w3.org/2000/svg" viewBox="0 0 512 512"><defs><style>.cls-1{fill:#8c8cf9}</style></defs><path class="cls-1" d="M362.71-.15l-294 .3a30 30 0 00-30 30l.11 102a10 10 0 0020 0l-.11-102a10 10 0 0110-10l294-.3a10 10 0 0110 10l.39 372a10 10 0 01-10 10l-294 .3a10 10 0 01-10-10l-.16-185.65a10 10 0 00-20 0l.19 185.66a30 30 0 0030 30l294-.3a30 30 0 0030-30l-.39-372A30 30 0 00362.71-.15z"/><path class="cls-1" d="M56 169.7a10 10 0 102.93 7.07A10.07 10.07 0 0056 169.7zM96.07 455a10 10 0 102.93 7.06 10.06 10.06 0 00-2.93-7.06zM423 40.06a10 10 0 00-10 10v392a10 10 0 01-10 10H129a10 10 0 100 20h274a30 30 0 0030-30v-392a10 10 0 00-10-10z"/><path class="cls-1" d="M463.06 80a10 10 0 00-10 10v392a10 10 0 01-10 10h-314a10 10 0 100 20h314a30 30 0 0030-30V90a10 10 0 00-10-10zm-262.12-6h-96a10 10 0 00-10 10v96a10 10 0 0010 10h96a10 10 0 0010-10V84a10 10 0 00-10-10zm-10 96h-76V94h76zm-22.18 65.4a10 10 0 00-14.14 0L128 262l-12.36-12.36a10 10 0 00-14.15 14.15L121 283.2a10 10 0 0014.15 0l33.65-33.66a10 10 0 00-.04-14.14z"/><path class="cls-1" d="M332.6 249H215.94a10 10 0 000 20H332.6a10 10 0 000-20zm-5.66-175h-70a10 10 0 000 20h70a10 10 0 000-20zm0 48h-70a10 10 0 000 20h70a10 10 0 000-20zm0 48h-70a10 10 0 000 20h70a10 10 0 000-20zM168.76 311.77a10 10 0 00-14.14 0L128 338.35 115.68 326a10 10 0 00-14.15 14.14L121 359.57a10 10 0 0014.15 0l33.65-33.66a10 10 0 00-.04-14.14zM332.6 325H215.94a10 10 0 000 20H332.6a10 10 0 000-20z"/></svg>