<svg id="Layer_1" data-name="Layer 1" xmlns="http://www.w3.org/2000/svg" viewBox="0 0 464 464"><defs><style>.cls-2{fill:#4c616d}</style></defs><path d="M420.8 285.6l.8-1.6a51.58 51.58 0 002.4-16 48.14 48.14 0 00-48-48 51.49 51.49 0 00-19.2 4v-1.6c-13.6-56-64-98.4-124.8-98.4a128.61 128.61 0 00-93.6 40.8l-.8.8C128 159.2 116 156 104 156a64.19 64.19 0 00-64 64 62.33 62.33 0 0010.4 34.4l.8.8A64.16 64.16 0 0072 380h336a48.08 48.08 0 0012.8-94.4z" fill="#8c8cf9"/><path class="cls-2" d="M430.4 248.8A62.18 62.18 0 00432 236a55.66 55.66 0 00-56-56 70.45 70.45 0 00-13.6 1.6A135.66 135.66 0 00136 124a72.83 72.83 0 00-32-8 71.7 71.7 0 00-72 72 74.72 74.72 0 007.2 32A71.94 71.94 0 0072 356h336a55.66 55.66 0 0056-56c0-23.2-13.6-42.4-33.6-51.2zM408 340H72a56 56 0 010-112 8 8 0 000-16 66.63 66.63 0 00-17.6 2.4A58.46 58.46 0 0148 188a56 56 0 01112 0 8 8 0 0016 0 70.64 70.64 0 00-26.4-55.2C172 112 201.6 100 232 100c54.4 0 100.8 36 115.2 88-16.8 9.6-27.2 28-27.2 48a8 8 0 0016 0 40 40 0 0180 0c0 3.2-.8 5.6-.8 8.8a22.15 22.15 0 00-7.2-.8 8 8 0 000 16 40 40 0 010 80z"/><path class="cls-2" d="M104 148a8 8 0 000 16 23.57 23.57 0 0124 24 8 8 0 0016 0 39.61 39.61 0 00-40-40zM72 308a23.57 23.57 0 01-24-24 7.56 7.56 0 00-8-8 7.56 7.56 0 00-8 8 39.61 39.61 0 0040 40 8 8 0 000-16zm159.2-68.8l8-16a2.94 2.94 0 00.8-2.4v-3.2c0-.8 0-.8-.8-1.6a.78.78 0 00-.8-.8l-.8-.8c-.8-.8-1.6-1.6-2.4-1.6l-16-8c-4-1.6-8.8 0-10.4 3.2a7.63 7.63 0 002.4 9.6 44 44 0 00-7.2 5.6 40.6 40.6 0 00-12 28.8 37.53 37.53 0 0012 28 7.73 7.73 0 0011.2 0 7.73 7.73 0 000-11.2c-4.8-4-7.2-10.4-7.2-16.8s2.4-12.8 7.2-16.8c0-.8.8-.8 1.6-.8-.8 4 .8 7.2 4 9.6 3.2.8 8-.8 10.4-4.8zm17.6-16.8a7.73 7.73 0 000 11.2c9.6 9.6 9.6 24.8 0 33.6 0 .8-.8.8-.8 1.6.8-4-.8-7.2-4-9.6-4-1.6-8.8 0-10.4 3.2l-8 16a2.94 2.94 0 00-.8 2.4v3.2c0 .8 0 .8.8 1.6a.78.78 0 00.8.8l.8.8c.8.8 1.6 1.6 2.4 1.6l16 8c.8.8 2.4.8 3.2.8q4.8 0 7.2-4.8a7.63 7.63 0 00-2.4-9.6 44 44 0 007.2-5.6c15.2-15.2 15.2-40.8 0-56.8-4-1.6-8.8-1.6-12 1.6z"/></svg>