<svg id="Section1" xmlns="http://www.w3.org/2000/svg" viewBox="0 0 600 600"><defs><clipPath id="clip-path"><circle class="cls-1" cx="300.5" cy="291.5" r="35.2"/></clipPath><clipPath id="clip-path-10"><circle class="cls-1" cx="464.5" cy="195.3" r="27.8"/></clipPath><clipPath id="clip-path-13"><path class="cls-1" d="M448.7 169.8h32.5v31.6h-32.5z"/></clipPath><clipPath id="clip-path-18"><circle class="cls-1" cx="109.5" cy="318.3" r="27.8"/></clipPath><style>.cls-1,.cls-10,.cls-11{fill:none}.cls-2{fill:#fff}.cls-3{fill:#8c8cf9}.cls-4{clip-path:url(#clip-path)}.cls-5{fill:#ccc;opacity:.5}.cls-12,.cls-20,.cls-5{isolation:isolate}.cls-11{stroke-miterlimit:10}.cls-8{fill:#6f7592}.cls-9{fill:#38332d}.cls-10,.cls-11{stroke:#6f7592;stroke-width:3px}.cls-10{stroke-linecap:round;stroke-linejoin:round}.cls-13{fill:#332d55}.cls-14{fill:#fafafa}.cls-18{clip-path:url(#clip-path-10)}.cls-19{fill:#54bbd3}.cls-20{fill:#e84376;opacity:.2}.cls-21{clip-path:url(#clip-path-13)}.cls-22{clip-path:url(#clip-path-18)}</style></defs><path class="cls-2" d="M283.8 273.3l-3.4-1.1-2-3.6-.7-3.5v-2.5l.6-1.9 1.9-.9 2.9-8 4.3-8.2 30.1-.6 2.6 8.8v7.3l.9 1.2 1.8-.2 1.6 1.8.2 4.9-1.9 4.6-2.6 1.5-2.2.6-7.8 19.4.5 5.1 1.1 3.4 2.7 4-2.9.8-5.7.9-5.7.3-5.4-.4-7.7-1.1 3.4-4.6.9-3.8V291l-5.9-13.2-1.6-4.5z"/><path class="cls-3" d="M320.1 259.5l-3-4c.4 5.8.4 12-1.1 17.6-.4 1.7-1.5 4.8-3.3 4.6s-7.1-2.5-11.4-2.6-8 1.7-12.1 2.2c-2.9.3-3.3-1.2-3.7-3.7a90.17 90.17 0 01-1.2-14.7c0-.7-.4-2.7 0-3.4l-3 4c.4 13.8 3.7 22 3.7 22a33 33 0 001.4 4.2c1.5 3.6 4.4 7.4 8 9 8.7 3.9 16.9 2.5 22-9 3.7-8.4 3.4-17.5 3.7-26.2zM308.5 283a8.07 8.07 0 01-6.9 2.6 6.93 6.93 0 01-2-.3 10.11 10.11 0 01-4-1.7c-.6-.4-3.2-2.9-2.6-3.8 0 0 1.1-1.5 8.4-1.4s8.4 1.7 8.4 1.8c.4.6-1 2.5-1.3 2.8z"/><g class="cls-4"><circle class="cls-5" cx="300.5" cy="291.5" r="35.2"/></g><path stroke-miterlimit="10" stroke="#fff" fill="#fff" d="M283.9 273.3l-3.4-1.1-2-3.6-.7-3.5v-2.5l.6-1.9 1.9-.9 2.9-8 4.4-8.2 30-.6 2.6 8.8v7.3l.9 1.2 1.8-.2 1.6 1.8.2 4.9-1.9 4.6-2.6 1.5-2.2.6-7.8 19.4.5 5.1 1.2 3.4 2.6 4-2.9.8-5.7.9-5.7.3-5.4-.4-7.7-1.1 3.4-4.6.9-3.8V291l-5.9-13.2-1.6-4.5z"/><g class="cls-4"><path class="cls-3" d="M256.3 327s4.4-9.2 12.7-12.4l7.1-2.6s9.7-3.7 11.6-5.6c0 0 18.1 2.6 26.3-1.2 0 0 7.4 5.1 9.8 5.9 0 0 11.4 2.8 15.2 7 0 0 6.4 4.8 6.2 8.8h-88.9z"/></g><path d="M282.9 264.5c1.2-4.2 1.2-14.9 6.6-16.3 2.3-.6 10 5.7 20.7 0 4.3-2.3 8.6 12.4 9.4 14.5l.3-1.9 2-1.5s8.3-30-21.5-29.4-21.2 29.6-21.2 29.6 3.3-.4 3.7 5z" fill="#40405b"/><g class="cls-4"><path class="cls-8" d="M258.9 323.7c2.4-4.3 7-7.6 11.6-9.6 1.9 4.3 2.1 8.9 1.7 13.6h1.2a29.07 29.07 0 00-1.8-14c4.5-1.8 9.3-2.7 13.3-5.4.1-.1.2-.1.2-.2a17.68 17.68 0 002.2-1.6c.1.1.2.2.3.2 9 1.6 18.1 2.2 26.9-.4a11 11 0 001.1 1c4.3 3.3 10.2 4.5 15.1 6.5l.6.3c-3.1 3.5-3.9 8.7-3.8 13.6h1.2c-.1-4.8.6-9.9 3.7-13.1 4.2 2 8.3 5.2 10.5 9.1a33.89 33.89 0 011.8 3.9h1.1a28.13 28.13 0 00-5-8.7c-3.3-3.7-8.6-5.8-13.3-7.4-7.8-2.5-15.8-5.5-16.6-14.9-.2-2.3-.1-4.6-.1-7 3.7-2.6 5.9-7.2 7.2-11.7a55.42 55.42 0 001.5-17.7 4.87 4.87 0 01-1.1.4 55 55 0 01-1.3 16.2c-1.5 6.3-5.1 13.3-12.4 13.7a2.44 2.44 0 000 1.2 12.08 12.08 0 005.1-1.4c0 1.8-.1 3.5 0 5.3a16.37 16.37 0 003.7 9.6c-8.3 2.3-16.9 1.8-25.4.3 2.7-2.8 3.5-6.2 3.7-9.9.1-2 0-4.1 0-6.1a12.25 12.25 0 004.4 1.7c.7.1.9-1 .2-1.1-5.9-1.1-9.2-6.4-11-11.6a50.94 50.94 0 01-2.5-16.9c0-.7-1.1-.6-1.1.1a52.83 52.83 0 002.7 17.7 20.38 20.38 0 006.3 9.4c0 2.6.1 5.2-.1 7.8a14.35 14.35 0 01-3.4 8.2c-3.3 3.9-8.5 5.2-13.2 6.7s-10 3.6-13.3 7.4a28.13 28.13 0 00-5 8.7h1.1c.7-1.2 1.3-2.7 2-3.9z"/></g><g class="cls-4"><path class="cls-8" d="M296.9 281.8a10.76 10.76 0 019.1.5c.5.2.9-.4.4-.7a11.77 11.77 0 00-9.7-.6c-.5.2-.3 1 .2.8z"/></g><g class="cls-4"><path class="cls-9" d="M319.7 260.4c-.5.4 0 1.4.5.9 3.3-2.6 4 1.1 4 3.9-.1 3.2-1.5 7.1-5.1 7.5-.7.1-.7 1.2 0 1.1 4.8-.5 6.3-5.3 6.2-9.6-.1-3.7-2.1-6.5-5.6-3.8z"/></g><g class="cls-4"><path class="cls-9" d="M282.8 260.4c.5.4 0 1.4-.5.9-3.3-2.6-4 1.1-4 3.9.1 3.2 1.5 7.1 5.1 7.5.7.1.7 1.2 0 1.1-4.8-.5-6.3-5.3-6.2-9.6 0-3.7 2.1-6.5 5.6-3.8z"/></g><g class="cls-4"><path class="cls-3" d="M320.2 259.7l-3-4c.4 5.8.4 12-1.1 17.6-.4 1.7-1.5 4.8-3.3 4.6s-7.1-2.5-11.4-2.6-8 1.7-12.1 2.2c-2.9.3-3.3-1.2-3.7-3.7a90.17 90.17 0 01-1.2-14.7c0-.7-.4-2.7 0-3.4l-3 4c.4 13.8 3.7 22 3.7 22a33 33 0 001.4 4.2c1.5 3.6 4.4 7.4 8 9 8.7 3.9 16.9 2.5 22-9 3.6-8.4 3.4-17.5 3.7-26.2zm-11.6 23.5a8.07 8.07 0 01-6.9 2.6 6.93 6.93 0 01-2-.3 10.11 10.11 0 01-4-1.7c-.6-.4-3.2-2.9-2.6-3.8 0 0 1.1-1.5 8.4-1.4s8.4 1.7 8.4 1.8c.4.6-1 2.5-1.3 2.8z"/></g><path class="cls-8" d="M319.7 260.4c-.5.4 0 1.4.5.9 3.3-2.6 4 1.1 4 3.9-.1 3.2-1.5 7.1-5.1 7.5-.7.1-.7 1.2 0 1.1 4.8-.5 6.3-5.3 6.2-9.6-.1-3.7-2.1-6.5-5.6-3.8zm-36.9 0c.5.4 0 1.4-.5.9-3.3-2.6-4 1.1-4 3.9.1 3.2 1.5 7.1 5.1 7.5.7.1.7 1.2 0 1.1-4.8-.5-6.3-5.3-6.2-9.6 0-3.7 2.1-6.5 5.6-3.8z"/><path class="cls-3" d="M282.9 264.5c1.2-4.2 1.2-14.9 6.6-16.3 2.3-.6 10 5.7 20.7 0 4.3-2.3 8.6 12.4 9.4 14.5l.3-1.9 2-1.5s8.3-30-21.5-29.4-21.2 29.6-21.2 29.6 3.3-.4 3.7 5z"/><path class="cls-10" d="M249 83l3.8 7.3-7.3 3.8M143.8 273.5l-8.2-.7.6-8.2"/><path class="cls-11" d="M92.5 267.4s-6.7-28.3 22.4-48.7M249.2 272s-23.3-43.1 17.8-91.3m61.1 51.6s29.3-40.1 90.5-20M351 273.2s35.8-38.9 9.1-92.5m5.1-82.4s46.4-9.2 81.2 47.6m54.9 201.6s37.6-44.5 8.9-94.1M392.8 425s-45.3-90.7 29.5-158.7m-218 135s-36.6-50.6-5.5-98.6 5.5-72 5.5-72M136.6 272s43-31 91.2-3.3M110.1 392.2s-6.7 56.5 54.6 67.6m61.6-58.5s-16.1-54.6 26.8-87.1m30.9 47s14 64.6 84.8 79.1"/><path class="cls-11" d="M265.1 460.8s10.1-59.9 65-72.4 72.5-29.1 72.5-29.1M273.4 521.2s46.5 29.3 95.5-3.7"/><path class="cls-10" d="M361.3 516.3h8.2v8.3m-95.7 4l-1.9-8 8-1.9m-8.2-60.4l-7.3 3.8-3.8-7.3m-29.5-58.9l-4.3 7.1-7-4.4m-12.5-3.8l-2.2 7.9-7.9-2.1m-35.5 52.6l4.4 6.9-6.9 4.5M104 395.3l6.2-5.5 5.5 6.1m249.8 37.9l5 6.5-6.5 5.1m31.4-27.2l-1.8 8.1-8.1-1.9m10.1-66.3l8.3.4-.4 8.2m-124.7-.2l4.8-6.7 6.7 4.8m-44.6-51.7l8.3.4-.5 8.2m255 26.7l-8.3.5-.5-8.2m7.9-80.2l1.7-8.1 8 1.6M415 265.5l8.2-.6.6 8.2m-6.5-67.8l2.5 7.9-7.9 2.5m-76.8 17l-8.2.6-.6-8.2m32 48.7l-8.2.6-.6-8.2m7.1-78.9l3.1-7.6 7.6 3m-107.4-2.2l8.2-.7.7 8.2m-77.5-69.8l-8 2-1.9-8m71 153.3l-2.2 7.9-8-2.2m-13.7-9.4l.3 8.3-8.2.2m-123.4-8.5l-4.3 7-7-4.3m21.9-47.3l8.2.4-.4 8.2m85.7 11.4l2.5-7.9 7.9 2.6m157.8-128.3l-6-5.6 5.6-6m80.1 47.2l-2 8-8-1.9"/><g class="cls-12"><path class="cls-13" d="M291.83 330l2 3.66 2.09-3.66h1.79v.08l-3.14 5.12v3.66h-1.49v-3.66l-3-5.12V330zm5.67 3.42a2.6 2.6 0 012.08-.93 2.64 2.64 0 012.1.93 3.43 3.43 0 01.8 2.32 3.48 3.48 0 01-.78 2.32 2.63 2.63 0 01-2.11.93 2.59 2.59 0 01-2.09-.93 3.48 3.48 0 01-.78-2.32 3.52 3.52 0 01.78-2.32zm2.09.47a1.27 1.27 0 00-1.1.55 2.31 2.31 0 000 2.6 1.42 1.42 0 002.21 0 2.12 2.12 0 00.4-1.3 2.08 2.08 0 00-.42-1.29 1.31 1.31 0 00-1.09-.56zm3.87-1.28h1.37v3.27a2 2 0 00.35 1.2 1.19 1.19 0 001 .47 1.25 1.25 0 001-.51 1.92 1.92 0 00.4-1.24v-3.19H309v6.25h-1.23l-.09-.84a2.48 2.48 0 01-1.87.93 2 2 0 01-1.66-.82 3.55 3.55 0 01-.64-2.24z"/></g><g class="cls-12"><path class="cls-13" d="M182.73 509.81a2.84 2.84 0 011.26.27 2.64 2.64 0 01.92.71 3.09 3.09 0 01.53 1 3.58 3.58 0 010 2.3 3.09 3.09 0 01-.53 1 2.64 2.64 0 01-.92.71 2.84 2.84 0 01-1.26.27h-2.22v2.61H179v-8.86h3.71zm-2.22 1.59v3.14h2.22a1.26 1.26 0 001.06-.49 1.66 1.66 0 00.38-1.08 1.8 1.8 0 00-.38-1.08 1.28 1.28 0 00-1.06-.49zm10.13 1.9l.05-.86H192v6.24h-1.29l-.07-.91a1.68 1.68 0 01-.75.79 2.26 2.26 0 01-1 .31 2.61 2.61 0 01-2.06-.86 3.48 3.48 0 01-.8-2.46 3.38 3.38 0 01.82-2.41 2.65 2.65 0 012.07-.85 2 2 0 011 .28 1.8 1.8 0 01.72.73zm-1.64.37a1.56 1.56 0 00-1.18.5 2 2 0 00-.46 1.38 2 2 0 00.46 1.39 1.54 1.54 0 001.18.51 1.48 1.48 0 001-.39 1.7 1.7 0 00.52-.94 3.45 3.45 0 000-1.11 1.69 1.69 0 00-.52-1 1.48 1.48 0 00-1-.34zm5.53 7.61h-1.37v-8.84h1.28l.09.86a2 2 0 01.8-.75 2.28 2.28 0 011-.25 2.57 2.57 0 012 .93 3.47 3.47 0 01.79 2.34 3.61 3.61 0 01-.75 2.34 2.5 2.5 0 01-2 .92 2.82 2.82 0 01-1.06-.21 1.51 1.51 0 01-.79-.68zm.57-4.46a1.49 1.49 0 002.26 0 1.87 1.87 0 00.44-1.25 1.93 1.93 0 00-.42-1.27 1.55 1.55 0 00-2.3 0 1.93 1.93 0 00-.43 1.27 1.83 1.83 0 00.45 1.25zm10.59-.71h-4.33a1.38 1.38 0 00.5 1 1.71 1.71 0 001.15.37 2.26 2.26 0 00.83-.16 1.59 1.59 0 00.65-.42l.88 1a2.59 2.59 0 01-1.07.75 3.36 3.36 0 01-1.31.26 2.88 2.88 0 01-2.24-.9 3.51 3.51 0 01-.81-2.43 3.45 3.45 0 01.8-2.35 2.72 2.72 0 012.15-.91 2.6 2.6 0 012.19 1 4.09 4.09 0 01.61 2.79zm-4.31-1.28h3a1.32 1.32 0 00-.45-.9 1.5 1.5 0 00-1-.31 1.6 1.6 0 00-1 .31 1.52 1.52 0 00-.55.9zm5.36-2.39H208l.1.72a1.62 1.62 0 01.68-.71 2.05 2.05 0 01.89-.17 1.81 1.81 0 011.43.59l-.62 1.34a1.41 1.41 0 00-1-.4 1.37 1.37 0 00-1 .38 1.64 1.64 0 00-.4 1.2v3.29h-1.37zm9.01-.01H217l1.22 4.69 1.27-4.69H221l-2 6.27h-1.6l-.57-1.84-.49-2.09-.5 2.09-.57 1.84h-1.6l-1.94-6.27h1.53l1.27 4.69zm6.89.82a2.61 2.61 0 012.08-.94 2.66 2.66 0 012.1.94 3.41 3.41 0 01.8 2.32 3.5 3.5 0 01-.78 2.32 2.63 2.63 0 01-2.11.93 2.59 2.59 0 01-2.09-.93 3.84 3.84 0 010-4.64zm2.09.47a1.28 1.28 0 00-1.1.54 2.15 2.15 0 00-.4 1.31 2.09 2.09 0 00.4 1.29 1.4 1.4 0 002.21 0 2.23 2.23 0 000-2.58 1.28 1.28 0 00-1.11-.56zm3.84-1.28h1.27l.1.72a1.62 1.62 0 01.68-.71 2 2 0 01.88-.17 1.8 1.8 0 011.43.59l-.62 1.34a1.37 1.37 0 00-1-.4 1.41 1.41 0 00-1 .38 1.63 1.63 0 00-.39 1.2v3.29h-1.37zm4.84-2.61h1.38V515l1.86-2.51h1.64v.09l-2.29 2.8 2.58 3.18v.12H237l-2.17-2.82v2.82h-1.38z"/></g><g class="cls-12"><path class="cls-13" d="M293.37 166.84h-1.49V158h5.66v1.61h-4.17V162h3.94v1.54h-3.94zm5.12-6.24h1.38v3.26a2 2 0 00.34 1.21 1.18 1.18 0 001 .46 1.22 1.22 0 001-.5 1.92 1.92 0 00.4-1.24v-3.19H304v6.25h-1.22l-.09-.85a2.49 2.49 0 01-1.88.94 2 2 0 01-1.66-.82 3.61 3.61 0 01-.64-2.24zm12.16 6.24h-1.37v-3.27a2 2 0 00-.35-1.2 1.16 1.16 0 00-1-.47 1.25 1.25 0 00-1 .51 2 2 0 00-.4 1.24v3.19h-1.36v-6.25h1.23l.09.85a2.44 2.44 0 011.82-.94 2.1 2.1 0 011.68.81 3.45 3.45 0 01.67 2.25zm5.57-8.84h1.37v8.85h-1.28l-.09-.86a1.94 1.94 0 01-1.79 1 2.67 2.67 0 01-2.05-.88 4 4 0 010-4.8 2.63 2.63 0 012-.85 2.37 2.37 0 011 .27 1.58 1.58 0 01.79.73zm-1.7 3.9a1.47 1.47 0 00-1.13.5 1.89 1.89 0 00-.45 1.32 1.93 1.93 0 00.46 1.32 1.42 1.42 0 001.12.52 1.48 1.48 0 001.14-.51 1.89 1.89 0 00.47-1.33 1.84 1.84 0 00-.48-1.31 1.48 1.48 0 00-1.13-.52zm4.39-2.39a.87.87 0 01-.25-.67.88.88 0 01.25-.67.76.76 0 011.11 0 .89.89 0 01.26.67.87.87 0 01-.26.67.76.76 0 01-1.11 0zm1.24 1.06h-1.37v6.27h1.37zm6.69 6.27h-1.37v-3.27a2 2 0 00-.35-1.2 1.16 1.16 0 00-1-.47 1.25 1.25 0 00-1 .51 2 2 0 00-.4 1.24v3.19h-1.36v-6.25h1.23l.09.85a2.46 2.46 0 011.82-.94 2.07 2.07 0 011.68.81 3.45 3.45 0 01.67 2.25zm4.98-6.09l.56-.78 1 .86-.62.88a2.92 2.92 0 01.58 1.85 3.5 3.5 0 01-.27 1.35 1.88 1.88 0 01-.9 1 2.19 2.19 0 011.15 2.06 2.84 2.84 0 01-4.79 2 2.67 2.67 0 01-.8-2h1.36a1.24 1.24 0 00.42 1 1.52 1.52 0 001 .37 1.49 1.49 0 001-.35 1.25 1.25 0 00.4-1 1.11 1.11 0 00-.42-.93 1.61 1.61 0 00-1-.32 2.6 2.6 0 01-2.05-.84 3.29 3.29 0 01-.76-2.3 3.25 3.25 0 01.81-2.3 2.66 2.66 0 012-.86 2.06 2.06 0 011.33.31zm-1.27 1.05a1.31 1.31 0 00-1 .48 1.88 1.88 0 00-.42 1.28 1.85 1.85 0 00.42 1.27 1.33 1.33 0 001 .46 1.3 1.3 0 001-.47 1.89 1.89 0 00.41-1.26 1.92 1.92 0 00-.41-1.27 1.29 1.29 0 00-1-.49z"/></g><g class="cls-12"><path class="cls-13" d="M131.63 209.66l1 1.15a3.82 3.82 0 01-3 1.32 4.36 4.36 0 01-1.88-.39 3.48 3.48 0 01-1.31-1 4.6 4.6 0 01-.73-1.45 5.48 5.48 0 01-.25-1.69 5.75 5.75 0 01.25-1.71 4.77 4.77 0 01.76-1.49 3.42 3.42 0 011.32-1.07 4.08 4.08 0 011.84-.4 3.77 3.77 0 012.89 1.35l-1 1.08a2.43 2.43 0 00-1.9-.84 2.39 2.39 0 00-2 .92 3.37 3.37 0 00-.69 2.16 3.45 3.45 0 00.69 2.12 2.4 2.4 0 002 .88 2.55 2.55 0 001.06-.24 2.44 2.44 0 00.95-.7zm2.16-3.16a2.57 2.57 0 012.08-.94 2.63 2.63 0 012.1.94 3.77 3.77 0 010 4.63 2.84 2.84 0 01-4.2 0 3.81 3.81 0 010-4.63zm2.09.46a1.32 1.32 0 00-1.11.55 2.36 2.36 0 000 2.6 1.41 1.41 0 002.22 0 2.25 2.25 0 000-2.59 1.32 1.32 0 00-1.11-.52zm9.29 4.96h-1.37v-3.26a2 2 0 00-.35-1.2 1.16 1.16 0 00-1-.47 1.25 1.25 0 00-1 .51 2 2 0 00-.4 1.23v3.19h-1.36v-6.25h1.23l.09.85a2.48 2.48 0 011.82-.94 2.11 2.11 0 011.68.82 3.41 3.41 0 01.67 2.25zm1.51-7.83l1.37-.16v1.77h1.53v1.3H148v2.69a1 1 0 00.19.66.69.69 0 00.53.23 1.42 1.42 0 00.66-.19l.38 1.31a2.8 2.8 0 01-1.13.27 1.79 1.79 0 01-1.46-.55 2.47 2.47 0 01-.53-1.73V207h-1v-1.3h1zm3.92 1.6h1.27l.1.72a1.56 1.56 0 01.68-.71 2 2 0 01.89-.18 1.79 1.79 0 011.42.6l-.61 1.34a1.42 1.42 0 00-1-.41 1.34 1.34 0 00-1 .39 1.57 1.57 0 00-.4 1.19v3.29h-1.35zm9.23.86v-.86h1.31v6.23h-1.24l-.07-.91a1.66 1.66 0 01-.75.8 2.33 2.33 0 01-1.05.3 2.62 2.62 0 01-2.06-.85 3.52 3.52 0 01-.79-2.46 3.4 3.4 0 01.81-2.42 2.76 2.76 0 012.08-.85 2.1 2.1 0 011 .28 1.71 1.71 0 01.76.74zm-1.64.36a1.52 1.52 0 00-1.17.51 2.26 2.26 0 000 2.76 1.52 1.52 0 001.17.52 1.44 1.44 0 001-.4 1.67 1.67 0 00.52-.94 3.44 3.44 0 000-1.11 1.67 1.67 0 00-.52-.94 1.44 1.44 0 00-1-.4zm8.12 3.2l.92 1a2.78 2.78 0 01-2.13 1 2.83 2.83 0 01-2.11-.85 4 4 0 010-4.9 2.83 2.83 0 012.11-.85 2.62 2.62 0 012 .92l-.87 1a1.51 1.51 0 00-1.11-.5 1.47 1.47 0 00-1.15.52 2 2 0 00-.45 1.33 1.89 1.89 0 00.45 1.34 1.49 1.49 0 001.13.48 1.53 1.53 0 001.21-.49zm2.09-6.02l1.37-.16v1.77h1.53v1.3h-1.54v2.69a1 1 0 00.2.66.65.65 0 00.52.23 1.38 1.38 0 00.66-.19l.39 1.31a2.88 2.88 0 01-1.14.27 1.77 1.77 0 01-1.45-.55 2.47 2.47 0 01-.54-1.73V207h-1v-1.3h1zm8.31 2.24l-.76 1a1.82 1.82 0 00-1.38-.55c-.67 0-1 .2-1 .62s.35.63 1 .68a5.5 5.5 0 01.65.08 2.9 2.9 0 01.63.18 1.82 1.82 0 01.56.34 1.67 1.67 0 01.38.56 2.17 2.17 0 01.15.84 1.94 1.94 0 01-.62 1.46 2.5 2.5 0 01-1.76.59 4.05 4.05 0 01-1.39-.23 3 3 0 01-1.17-.9l.68-1.1a2.12 2.12 0 00.85.61 2.86 2.86 0 001.06.27 1.11 1.11 0 00.7-.2.66.66 0 00.3-.55.53.53 0 00-.25-.47 2.13 2.13 0 00-.85-.19 3.79 3.79 0 01-.81-.14 3.12 3.12 0 01-.73-.32 1.43 1.43 0 01-.55-.59 1.79 1.79 0 01-.21-.88 1.88 1.88 0 01.22-.91 1.55 1.55 0 01.58-.61 2.86 2.86 0 01.74-.32 2.76 2.76 0 01.8-.11 2.92 2.92 0 012.18.84z"/></g><g class="cls-12"><path class="cls-13" d="M440.44 376.17a2.91 2.91 0 011.26.28 2.49 2.49 0 01.91.71 3.09 3.09 0 01.53 1 3.43 3.43 0 01.19 1.15 3.51 3.51 0 01-.19 1.15 3.2 3.2 0 01-.53 1 2.72 2.72 0 01-.91.71 2.91 2.91 0 01-1.26.27h-2.23V385h-1.48v-8.85h3.71zm-2.23 1.6v3.14h2.23a1.3 1.3 0 001.06-.49 1.69 1.69 0 00.37-1.08 1.71 1.71 0 00-.38-1.08 1.24 1.24 0 00-1.05-.49zm6.02-1.57h1.36v8.8h-1.36zm6.91 3.47l.05-.86h1.31V385h-1.29l-.07-.91a1.66 1.66 0 01-.75.8 2.21 2.21 0 01-1.05.3 2.62 2.62 0 01-2.06-.85 3.52 3.52 0 01-.79-2.46 3.4 3.4 0 01.81-2.42 2.72 2.72 0 012.08-.84 2.1 2.1 0 011 .27 1.71 1.71 0 01.76.78zm-1.64.36a1.52 1.52 0 00-1.17.51 2.26 2.26 0 000 2.76 1.49 1.49 0 001.17.52 1.43 1.43 0 001-.4 1.61 1.61 0 00.52-.94 3.38 3.38 0 000-1.1 1.61 1.61 0 00-.52-.95 1.47 1.47 0 00-1-.43zm9.62 4.97h-1.37v-3.26a2 2 0 00-.35-1.2 1.19 1.19 0 00-1-.47 1.25 1.25 0 00-1 .51 1.9 1.9 0 00-.4 1.24V385h-1.36v-6.25h1.23l.09.85a2.46 2.46 0 011.82-.93 2.1 2.1 0 011.68.81 3.49 3.49 0 01.67 2.25zm6.63 0h-1.37v-3.26a2 2 0 00-.35-1.2 1.16 1.16 0 00-1-.47 1.25 1.25 0 00-1 .51 2 2 0 00-.4 1.24V385h-1.36v-6.25h1.23l.09.85a2.48 2.48 0 011.82-.93 2.07 2.07 0 011.68.81 3.43 3.43 0 01.67 2.25zm1.31-7.28a.88.88 0 01-.25-.67.87.87 0 01.25-.67.81.81 0 01.56-.24.77.77 0 01.55.24.87.87 0 01.26.67.89.89 0 01-.26.67.77.77 0 01-.55.24.81.81 0 01-.56-.24zm1.24 1.06h-1.37V385h1.37zM475 385h-1.37v-3.26a1.9 1.9 0 00-.35-1.2 1.16 1.16 0 00-1-.47 1.22 1.22 0 00-1 .51 1.9 1.9 0 00-.4 1.24V385h-1.36v-6.25h1.22l.09.85a2.48 2.48 0 011.82-.93 2.11 2.11 0 011.69.81 3.49 3.49 0 01.66 2.25zm5-6l.55-.79 1 .86-.62.89a2.91 2.91 0 01.59 1.85 3.55 3.55 0 01-.28 1.35 1.84 1.84 0 01-.89 1 2.21 2.21 0 011.14 2.07 2.63 2.63 0 01-2.77 2.78 2.79 2.79 0 01-2-.77 2.7 2.7 0 01-.8-2h1.36a1.26 1.26 0 00.43 1 1.53 1.53 0 001 .37 1.43 1.43 0 001-.36 1.22 1.22 0 00.4-1 1.09 1.09 0 00-.42-.93 1.55 1.55 0 00-1-.33 2.63 2.63 0 01-2.06-.84 3.31 3.31 0 01-.76-2.29 3.23 3.23 0 01.81-2.3 2.64 2.64 0 012-.87 2 2 0 011.32.31zm-1.29 1a1.32 1.32 0 00-1 .48 1.88 1.88 0 00-.42 1.28 1.81 1.81 0 00.42 1.26 1.36 1.36 0 002.06 0 2.16 2.16 0 000-2.53 1.29 1.29 0 00-1.06-.49z"/></g><g class="cls-12"><path class="cls-13" d="M403.35 495a2.89 2.89 0 012 .65 2.39 2.39 0 01.74 1.92 1.78 1.78 0 01-1 1.71 1.66 1.66 0 01.94.83 2.53 2.53 0 01.32 1.14c0 1.74-1 2.61-2.95 2.61h-3.73V495zm-2.27 1.52v2h2.27c.83 0 1.24-.32 1.24-.95a1.12 1.12 0 00-.3-.74 1.21 1.21 0 00-.94-.35zm0 3.51v2.27h2.27a2.39 2.39 0 00.66-.08 1.24 1.24 0 00.56-.33.89.89 0 00.26-.65 1 1 0 00-.48-.89 1.8 1.8 0 00-1-.32zm6.2-2.42h1.37v3.27a2 2 0 00.35 1.2 1.16 1.16 0 001 .47 1.22 1.22 0 001-.51 1.92 1.92 0 00.4-1.24v-3.19h1.36v6.25h-1.22l-.09-.85a2.48 2.48 0 01-1.88.94 2 2 0 01-1.66-.82 3.61 3.61 0 01-.63-2.24zm11.08-2.61h1.38v8.85h-1.29l-.09-.86a1.91 1.91 0 01-1.78 1 2.66 2.66 0 01-2.06-.88 4 4 0 010-4.8 2.63 2.63 0 012-.85 2.37 2.37 0 011 .27 1.64 1.64 0 01.78.73zm-1.69 3.9a1.47 1.47 0 00-1.13.5 2.16 2.16 0 000 2.65 1.43 1.43 0 001.12.51 1.48 1.48 0 001.14-.51 1.89 1.89 0 00.46-1.33 1.85 1.85 0 00-.47-1.31 1.48 1.48 0 00-1.12-.51zm8.06-1.14l.55-.78 1 .86-.62.88a2.93 2.93 0 01.59 1.85 3.38 3.38 0 01-.28 1.36 1.88 1.88 0 01-.89 1 2.2 2.2 0 011.15 2.06 2.7 2.7 0 01-.78 2 3 3 0 01-4 0 2.66 2.66 0 01-.79-2H422a1.24 1.24 0 00.42 1 1.61 1.61 0 002 0 1.25 1.25 0 00.4-1 1.11 1.11 0 00-.42-.93 1.6 1.6 0 00-1-.32 2.63 2.63 0 01-2.06-.84 3.34 3.34 0 01-.75-2.3 3.2 3.2 0 01.81-2.29 2.61 2.61 0 012-.87 2.08 2.08 0 011.33.32zm-1.27 1.05a1.33 1.33 0 00-1 .48 1.93 1.93 0 00-.41 1.28 1.88 1.88 0 00.41 1.27 1.35 1.35 0 001 .46 1.3 1.3 0 001-.47 1.84 1.84 0 00.42-1.26 1.89 1.89 0 00-.42-1.27 1.32 1.32 0 00-1-.49zm9.17 2.47h-4.33a1.43 1.43 0 00.51 1 1.71 1.71 0 001.15.37 2.3 2.3 0 00.83-.16 1.5 1.5 0 00.65-.42l.88 1a2.59 2.59 0 01-1.07.75 3.36 3.36 0 01-1.31.26 2.88 2.88 0 01-2.24-.9 4 4 0 010-4.78 2.74 2.74 0 012.14-.91 2.59 2.59 0 012.2 1 4 4 0 01.59 2.79zm-4.3-1.28h3a1.32 1.32 0 00-.45-.9 1.52 1.52 0 00-1-.31 1.6 1.6 0 00-1 .31 1.48 1.48 0 00-.55.9zm5.67-4l1.37-.17v1.77h1.53v1.4h-1.54v2.7a1 1 0 00.19.65.66.66 0 00.53.23 1.31 1.31 0 00.66-.19l.38 1.32a2.63 2.63 0 01-1.13.26 1.73 1.73 0 01-1.46-.55 2.49 2.49 0 01-.53-1.72V499h-1v-1.33h1z"/></g><g class="cls-12"><path class="cls-13" d="M85.92 364.19l-.67-1.67h-4.11l-.68 1.67h-1.6l3.53-8.85H84l3.53 8.85zM84.66 361l-1.46-3.8-1.47 3.8zm7.16 1.38l.92 1a2.78 2.78 0 01-2.13 1 2.83 2.83 0 01-2.11-.85 4 4 0 010-4.9 2.83 2.83 0 012.11-.85 2.62 2.62 0 012 .92l-.87 1a1.51 1.51 0 00-1.11-.5 1.47 1.47 0 00-1.15.52 2 2 0 00-.45 1.33 1.89 1.89 0 00.45 1.34 1.49 1.49 0 001.13.48 1.53 1.53 0 001.21-.49zm5.36 0l.93 1a2.93 2.93 0 01-4.25.13 4 4 0 010-4.9 2.83 2.83 0 012.11-.85 2.61 2.61 0 012 .92l-.86 1a1.55 1.55 0 00-1.12-.5 1.46 1.46 0 00-1.14.52 2 2 0 00-.45 1.33 1.89 1.89 0 00.45 1.34 1.47 1.47 0 001.12.48 1.52 1.52 0 001.21-.47zm2.17-3.62a2.81 2.81 0 014.18 0 3.44 3.44 0 01.81 2.32 3.49 3.49 0 01-.79 2.32 2.63 2.63 0 01-2.1.93 2.6 2.6 0 01-2.1-.93 3.48 3.48 0 01-.78-2.32 3.52 3.52 0 01.78-2.32zm2.1.47a1.27 1.27 0 00-1.11.55 2.31 2.31 0 000 2.6 1.4 1.4 0 002.21 0 2.25 2.25 0 000-2.59 1.3 1.3 0 00-1.1-.56zm3.86-1.23h1.38v3.26a2 2 0 00.34 1.2 1.19 1.19 0 001 .47 1.22 1.22 0 001-.51 1.9 1.9 0 00.4-1.24V358h1.36v6.25h-1.22l-.09-.85a2.51 2.51 0 01-1.88.93 2 2 0 01-1.66-.82 3.59 3.59 0 01-.64-2.24zm12.16 6.19h-1.37v-3.26a2 2 0 00-.35-1.2 1.14 1.14 0 00-1-.47 1.27 1.27 0 00-1 .5 2 2 0 00-.4 1.24v3.19H112v-6.25h1.23l.09.85a2.49 2.49 0 011.82-.94 2.11 2.11 0 011.68.82 3.41 3.41 0 01.67 2.25zm1.53-7.83l1.37-.16v1.8h1.53v1.33h-1.54V362a1 1 0 00.19.66.69.69 0 00.53.23 1.42 1.42 0 00.66-.19l.38 1.31a2.8 2.8 0 01-1.13.27 1.79 1.79 0 01-1.46-.55A2.47 2.47 0 01119 362v-2.7h-1V358h1zm8.25 2.46v-.86h1.31v6.23h-1.29l-.07-.91a1.7 1.7 0 01-.75.8 2.33 2.33 0 01-1 .3 2.62 2.62 0 01-2.06-.85 3.52 3.52 0 01-.79-2.46 3.39 3.39 0 01.81-2.42 2.72 2.72 0 012.08-.85 2.1 2.1 0 011 .28 1.71 1.71 0 01.76.74zm-1.64.36a1.52 1.52 0 00-1.17.51 2.26 2.26 0 000 2.76 1.52 1.52 0 001.17.51 1.48 1.48 0 001-.39 1.67 1.67 0 00.52-.94 3.44 3.44 0 000-1.11 1.73 1.73 0 00-.52-.95 1.48 1.48 0 00-1-.39zm9.62 5.01h-1.38v-3.26a1.9 1.9 0 00-.35-1.2 1.13 1.13 0 00-1-.47 1.24 1.24 0 00-1 .5 1.92 1.92 0 00-.4 1.24v3.19h-1.36v-6.25H131l.09.85a2.5 2.5 0 011.83-.94 2.11 2.11 0 011.68.82 3.47 3.47 0 01.67 2.25zm1.5-7.83l1.37-.16v1.8h1.53v1.33h-1.54V362a1 1 0 00.2.66.65.65 0 00.52.23 1.45 1.45 0 00.67-.19l.38 1.31a2.88 2.88 0 01-1.14.27 1.77 1.77 0 01-1.45-.55 2.47 2.47 0 01-.54-1.73v-2.7h-1V358h1z"/></g><g class="cls-12"><path class="cls-13" d="M449.19 231.47a2.91 2.91 0 011.26.27 2.6 2.6 0 01.91.71 3.2 3.2 0 01.53 1 3.51 3.51 0 01.19 1.15 3.47 3.47 0 01-.19 1.15 3.09 3.09 0 01-.53 1 2.6 2.6 0 01-.91.71 2.91 2.91 0 01-1.26.27H447v2.61h-1.48v-8.86h3.71zm-2.19 1.59v3.14h2.23a1.29 1.29 0 001.06-.48 1.69 1.69 0 00.37-1.09 1.76 1.76 0 00-.38-1.08 1.26 1.26 0 00-1.05-.49zm10.09 1.94l.05-.86h1.32v6.24h-1.3l-.07-.91a1.7 1.7 0 01-.75.8 2.33 2.33 0 01-1 .3 2.65 2.65 0 01-2.06-.85 3.52 3.52 0 01-.79-2.47 3.38 3.38 0 01.81-2.41 2.69 2.69 0 012.08-.85 2.07 2.07 0 011.05.28 1.72 1.72 0 01.66.73zm-1.64.37a1.52 1.52 0 00-1.17.51 1.93 1.93 0 00-.47 1.37 2 2 0 00.47 1.39 1.52 1.52 0 001.17.51 1.46 1.46 0 001-.39 1.64 1.64 0 00.52-.94 3.44 3.44 0 000-1.11 1.64 1.64 0 00-.52-.95 1.46 1.46 0 00-1-.43zm4.16-1.27h1.27l.11.72a1.6 1.6 0 01.67-.71 2.24 2.24 0 01.89-.17 1.85 1.85 0 011.43.59l-.62 1.34a1.41 1.41 0 00-1-.4 1.37 1.37 0 00-1 .38 1.63 1.63 0 00-.39 1.2v3.29h-1.38zm5.79-1.59l1.38-.17v1.77h1.53v1.33h-1.54v2.7a1 1 0 00.19.66.67.67 0 00.53.22 1.33 1.33 0 00.66-.19l.38 1.32a2.88 2.88 0 01-1.14.27 1.75 1.75 0 01-1.45-.56 2.45 2.45 0 01-.54-1.72v-2.7h-1v-1.33h1zm9.38 7.83h-1.37v-3.26a2 2 0 00-.35-1.21 1.16 1.16 0 00-1-.47 1.25 1.25 0 00-1 .51 2 2 0 00-.39 1.24v3.19h-1.37v-6.25h1.23l.09.85a2.46 2.46 0 011.82-.94 2.06 2.06 0 011.68.82 3.4 3.4 0 01.67 2.24zm6.68-2.57h-4.33a1.43 1.43 0 00.51 1 1.69 1.69 0 001.15.37 2.34 2.34 0 00.83-.16 1.56 1.56 0 00.65-.42l.88 1a2.66 2.66 0 01-1.07.75 3.41 3.41 0 01-1.32.26 2.86 2.86 0 01-2.23-.9 3.49 3.49 0 01-.82-2.42 3.43 3.43 0 01.81-2.36 2.73 2.73 0 012.14-.91 2.58 2.58 0 012.19 1 4 4 0 01.61 2.79zm-4.31-1.28h3a1.35 1.35 0 00-.45-.9 1.52 1.52 0 00-1-.31 1.53 1.53 0 00-1.56 1.21zm5.37-2.39h1.27l.1.72a1.6 1.6 0 01.67-.71 2.28 2.28 0 01.89-.17 1.83 1.83 0 011.43.59l-.62 1.34a1.37 1.37 0 00-1-.4 1.41 1.41 0 00-1 .38 1.63 1.63 0 00-.39 1.2v3.29h-1.37z"/></g><path class="cls-14" d="M480.4 362.2l-40.9 6.2a6.85 6.85 0 01-7.9-5.8l-7.5-48.8a6.85 6.85 0 015.8-7.9l40.9-6.2a6.85 6.85 0 017.9 5.8l7.5 48.8a6.78 6.78 0 01-5.8 7.9z"/><path class="cls-8" d="M467.8 348.3l-8.2 1.2a1 1 0 00-.8 1.2l1.2 8.2a1 1 0 001.2.8l8.2-1.2a1 1 0 00.8-1.2l-1.2-8.2a1.16 1.16 0 00-1.2-.8zm.2 8.3l-6.2.9-.9-6.2 6.2-.9zm-12.4-6.5l-8.2 1.2a1 1 0 00-.8 1.2l1.2 8.2a1 1 0 001.2.8l8.2-1.2a1 1 0 00.8-1.2l-1.2-8.2a1.13 1.13 0 00-1.2-.8zm.3 8.4l-6.2.9-.9-6.2 6.2-.9zm-2.2-20.5l-8.2 1.2a1 1 0 00-.8 1.2l1.2 8.2a1 1 0 001.2.8l8.2-1.2a1 1 0 00.8-1.2l-1.2-8.2a1 1 0 00-1.2-.8zm.3 8.3l-6.2.9-.9-6.2 6.2-.9zm-10.6 5.7l-8.2 1.2a1 1 0 00-.8 1.2l1.2 8.2a1 1 0 001.2.8l8.2-1.2a1 1 0 00.8-1.2l-1.2-8.2a1 1 0 00-1.2-.8zm.3 8.3l-6.2.9-.9-6.2 6.2-.9zm33.2-34l-8.2 1.2a1 1 0 00-.8 1.2l.6 4a1 1 0 001.2.8l8.2-1.2a1 1 0 00.8-1.2l-.6-4a1.06 1.06 0 00-1.2-.8zm-.4 4.1l-6.2.9-.3-2 6.2-.9zm-10.6 5.7l-8.2 1.2a1 1 0 00-.8 1.2l1.2 8.2a1 1 0 001.2.8l8.2-1.2a1 1 0 00.8-1.2l-1.2-8.2a1 1 0 00-1.2-.8zm.3 8.3l-6.2.9-.9-6.2 6.2-.9zm-1.5-16.3l-8.2 1.2a1 1 0 00-.8 1.2l.6 4a1 1 0 001.2.8l8.2-1.2a1 1 0 00.8-1.2l-.6-4a1 1 0 00-1.2-.8zm-.4 4.2l-6.2.9-.3-2 6.2-.9z"/><path class="cls-8" d="M472.8 299.2l-44.7 6.8a5 5 0 00-4.2 5.8l8 52.7a5 5 0 005.8 4.2l44.7-6.8a5 5 0 004.2-5.8l-8-52.7a5.21 5.21 0 00-5.8-4.2zm11.8 57.3a3.06 3.06 0 01-2.5 3.5l-44.7 6.8a3.06 3.06 0 01-3.5-2.5l-8-52.7a3.06 3.06 0 012.5-3.5l44.7-6.8a3.06 3.06 0 013.5 2.5z"/><path class="cls-8" d="M473.6 304.6l-44.7 6.8a1 1 0 00-.8 1.2l2.5 16.3a1 1 0 001.2.8l8.2-1.2a1 1 0 00-.4-2l-7.2 1.1-2.2-14.3 42.7-6.5 2.2 14.3-31.5 4.8a1 1 0 10.4 2l32.5-5a1 1 0 00.8-1.2l-2.5-16.3a1.16 1.16 0 00-1.2-.8z"/><path class="cls-8" d="M466.5 311.8l4-.6a1 1 0 00-.4-2l-4 .6a1 1 0 00-.8 1.2 1 1 0 001.2.8zm1.2 8l4-.6a1 1 0 00-.4-2l-4 .6a1 1 0 00-.8 1.2 1 1 0 001.2.8zm-1.6-3.5a1 1 0 002-.4l-.4-2.7a1 1 0 10-2 .4z"/><path class="cls-2" d="M430.5 487.9l-.7-5.7 6.8-8.4 6.6 5.2-6.9 8.7-5.8.2z"/><path class="cls-2" d="M442.9 478.9l-44 5.2a6.81 6.81 0 01-7.5-5.9l-3.4-28.7a6.81 6.81 0 015.9-7.5l44-5.2a6.81 6.81 0 017.5 5.9l3.4 28.7a6.75 6.75 0 01-5.9 7.5z"/><path class="cls-3" d="M426.5 460.5a1.17 1.17 0 00-1.1-.9l-15.8 1.9a1 1 0 10.2 2l15.8-1.9a1.17 1.17 0 00.9-1.1z"/><path class="cls-8" d="M407 448.7a1.17 1.17 0 00-1.1-.9L396 449a1 1 0 00.2 2l9.9-1.2a.9.9 0 00.9-1.1z"/><path class="cls-3" d="M410.2 467.4a1 1 0 00.2 2l5.9-.7a1 1 0 00-.2-2z"/><path class="cls-8" d="M426.7 479.5l-30.7 3.6a3 3 0 01-3.3-2.6l-4-33.7a3 3 0 012.6-3.3l49.5-5.8a3 3 0 013.3 2.6l2.9 23.8a1 1 0 002-.2l-2.8-23.8a5 5 0 00-5.5-4.4l-49.5 5.8a5 5 0 00-4.4 5.5l4 33.7a5 5 0 005.5 4.4l30.7-3.6a1.17 1.17 0 00.9-1.1 1.4 1.4 0 00-1.2-.9z"/><path class="cls-8" d="M435.6 444.4a1.17 1.17 0 00-.9 1.1c0 .5.6.9 1.1.9l2-.2a1.17 1.17 0 00.9-1.1c0-.5-.6-.9-1.1-.9zm-9.7 3.1a1 1 0 00-.2-2l-2 .2a1 1 0 00.2 2zm6-.7a1 1 0 00-.2-2l-2 .2a1 1 0 00.2 2zm4.5 12.5a1.17 1.17 0 00-1.1-.9l-5.9.7a1 1 0 00.2 2l5.9-.7a1 1 0 00.9-1.1zm-16.1 8.9l11.9-1.4a1 1 0 00-.2-2l-11.9 1.4a1.17 1.17 0 00-.9 1.1 1 1 0 001.1.9z"/><path class="cls-3" d="M403.4 469.7l.5 1.3a.93.93 0 01-.6 1.2 3 3 0 01-1 .2 6 6 0 01-3.9-.7 6.22 6.22 0 01-2.2-3l-1.1.1-.1-1.7.9-.1v-.9l-.9.1-.2-1.8 1.1-.1a6.26 6.26 0 011.5-3.4 5.92 5.92 0 015.3-1.5l-.4 2.2a2 2 0 00-1.1 0 3.42 3.42 0 00-3.1 2.5l2.6-.3a.87.87 0 011 .9.86.86 0 01-.8.8l-3.1.4v.5c0 .2 0 .3.1.4l2.5-.3a.92.92 0 011 .9.86.86 0 01-.8.8l-2 .2a3.5 3.5 0 003.7 1.7 2.11 2.11 0 001.1-.4zm67.6 0l.5 1.3a.93.93 0 01-.6 1.2 3 3 0 01-1 .2 6 6 0 01-3.9-.7 6.22 6.22 0 01-2.2-3l-1.1.1-.2-1.8.9-.1v-.9l-.9.1-.2-1.8 1.1-.1a6.26 6.26 0 011.5-3.4 5.92 5.92 0 015.3-1.5l-.4 2.2a2 2 0 00-1.1 0 3.42 3.42 0 00-3.1 2.5l2.6-.3a.87.87 0 011 .9.86.86 0 01-.8.8l-3.1.4v.5c0 .2 0 .3.1.4l2.5-.3a.92.92 0 011 .9.86.86 0 01-.8.8l-2 .2a3.5 3.5 0 003.7 1.7 1.38 1.38 0 001.2-.3z"/><path class="cls-14" d="M276.3 141.1l1-3.3h5.4v-4.1h1.5v-3.5h1.8l.5-24.2-2.1-.4-.1-2.5-2-2.2.3-7.7s-7 .1-7.2 0-.3-1.5-.3-1.5l37.4-24.1 37.4 24.1-.7 1.5-7.1-.1.3 8.8-1.3.5-.4 3.2-1.6.7.1 23.6 1.4.9.1 3 1.5.1-.2 4-12.8-.4-.1-3 1.6-.4.1-3.4 2-1.3-.1-23.6-2.2-.8v-2.8l-1.2-1.5-.1-2.7-10.7.3v3.8l-1.3 1.1-.1 2.6h-1.5l.1 23.8 1.8 1.1v2.6l1.4 1.2.1 3.4h-13.3l1.5-4.3.5-3.5 1.8-.9-.3-23-1.8-1.5v-2.4l-1.3-.8-.2-2.7-10.5-.5.1 3.4-1.2 1.1-.3 2.8-1.7.5-.2 23.5 2 1.1v2.8l1.8.5-.2 2.6-.1.9 52.5-.1.5 2.5-1.9 2.4h-68.5z"/><path class="cls-8" d="M350.1 90.5l-25.4-16.4a1.08 1.08 0 10-1.2 1.8L348.6 92h-5.8l-28.5-18.4a3.07 3.07 0 00-3.2 0l-28.7 18.5h-5.8l36-23.2 5.1 3.3a1.08 1.08 0 101.2-1.8l-5.1-3.3a2.11 2.11 0 00-2.4 0L275 90.5a2.09 2.09 0 00-.9 2.3 2.13 2.13 0 002 1.5h5.5v7.1a1.83 1.83 0 001.4 1.8v1.9a1.79 1.79 0 001.8 1.8h.2v13.4a1.1 1.1 0 102.2 0v-14.5a1.11 1.11 0 00-1.1-1.1h-.9v-1.5h7.7v1.5h-.9a1.11 1.11 0 00-1.1 1.1V130a1.11 1.11 0 001.1 1.1h.9v1.6h-7.7v-1.6h.9a1.11 1.11 0 001.1-1.1v-2.9a1.1 1.1 0 10-2.2 0v1.7h-.2a1.79 1.79 0 00-1.8 1.8v1.9a1.83 1.83 0 00-1.4 1.8v2.2h-3.9a2.22 2.22 0 00-2.2 2.2v2.3a2.22 2.22 0 002.2 2.2h69.6a2.22 2.22 0 002.2-2.2v-2.3a2.22 2.22 0 00-2.2-2.2h-3.9v-2.2a1.83 1.83 0 00-1.4-1.8v-1.9a1.79 1.79 0 00-1.8-1.8h-.2v-22h.2a1.79 1.79 0 001.8-1.8v-1.9a1.83 1.83 0 001.4-1.8v-7h5.5a2.13 2.13 0 002-1.5 1.91 1.91 0 00-.8-2.3zm-38-14.9a.6.6 0 01.8 0l25.7 16.5h-52.2zm-28.3 18.7h57.5V97h-57.4v-2.7zm34.8 38.3v-1.9a1.79 1.79 0 00-1.8-1.8h-.2v-22h.2a1.79 1.79 0 001.8-1.8v-2a1.83 1.83 0 001.4-1.8v-2.2h8.4v2.2a1.83 1.83 0 001.4 1.8v1.9a1.79 1.79 0 001.8 1.8h.2v22h-.2a1.79 1.79 0 00-1.8 1.8v1.9a1.83 1.83 0 00-1.4 1.8v2.2H320v-2.2a1.63 1.63 0 00-1.4-1.7zm-23.4 0v-1.9a1.79 1.79 0 00-1.8-1.8h-.2v-22h.2a1.79 1.79 0 001.8-1.8v-2a1.83 1.83 0 001.4-1.8v-2.2h8.4v2.2a1.83 1.83 0 001.4 1.8v1.9a1.79 1.79 0 001.8 1.8h.2v22h-.2a1.79 1.79 0 00-1.8 1.8v1.9a1.83 1.83 0 00-1.4 1.8v2.2h-8.4v-2.2a1.72 1.72 0 00-1.4-1.7zm20.4-1.6h.9v1.6h-7.7V131h.9a1.11 1.11 0 001.1-1.1v-24.2a1.11 1.11 0 00-1.1-1.1h-.9v-1.5h7.7v1.5h-.9a1.11 1.11 0 00-1.1 1.1v24.2a1.11 1.11 0 001.1 1.1zm-8-30h-.3v-1.8h10.6v1.8h-10.3zm-.4 33.8c.1 0 .2.1.3.1h9.9a.37.37 0 00.3-.1v1.8h-10.6v-1.8zm-23-33.8h-.3v-1.8h10.6v1.8h-10.3zm-.4 33.8c.1 0 .2.1.3.1h9.9a.37.37 0 00.3-.1v1.8h-10.6v-1.8zm63.6 3.9v2.3h-69.6v-2.3zm-6.5-3.8a.37.37 0 00.3-.1v1.8h-10.6v-1.8c.1 0 .2.1.3.1zm-7.9-30.2h-.9v-1.5h7.7v1.5h-.8a1.11 1.11 0 00-1.1 1.1V130a1.11 1.11 0 001.1 1.1h.9v1.6h-7.7v-1.6h.9a1.11 1.11 0 001.1-1.1v-24.2a1.28 1.28 0 00-1.2-1.1zm8.3-3.7h-10.6v-1.8h10.6v1.8z"/><path class="cls-8" d="M307.3 83h10.5v7.2h-10.5z"/><path class="cls-2" d="M310.7 83h3.6v7.2h-3.6z"/><path class="cls-11" d="M183.9 118.6s22.5-36.2 67.7-28.8"/><path d="M231.9 497.7l-40.8-2.5a5.73 5.73 0 01-5.4-6.1l3.9-63.6a5.73 5.73 0 016.1-5.4l40.8 2.5a5.73 5.73 0 015.4 6.1l-3.9 63.6a5.67 5.67 0 01-6.1 5.4z" fill="#fafafa" stroke="#6f7592" stroke-width="3" stroke-miterlimit="10"/><path class="cls-13" d="M209 431.6l-11-.7a.81.81 0 01-.8-.9.81.81 0 01.9-.8l11 .7a.81.81 0 01.8.9.77.77 0 01-.9.8zm-6.9 8.9l-4.6-.3a.81.81 0 01-.8-.9.81.81 0 01.9-.8l4.6.3a.81.81 0 01.8.9.77.77 0 01-.9.8zm11.7-4l-16-1a.81.81 0 01-.8-.9.81.81 0 01.9-.8l16 1a.81.81 0 01.8.9.88.88 0 01-.9.8zm12.4 13.2l-29.1-1.8a.81.81 0 01-.8-.9.81.81 0 01.9-.8l29.1 1.8a.81.81 0 01.8.9.82.82 0 01-.9.8zm3.5 11.1l-33.2-2a.81.81 0 01-.8-.9.81.81 0 01.9-.8l33.2 2a.81.81 0 01.8.9 1 1 0 01-.9.8zm1.6 5.9l-35.2-2.1a.81.81 0 01-.8-.9.81.81 0 01.9-.8l35.2 2.1a.81.81 0 01.8.9.88.88 0 01-.9.8zm-9.8 5.2l-25.8-1.6a.81.81 0 01-.8-.9.81.81 0 01.9-.8l25.8 1.6a.81.81 0 01.8.9 1 1 0 01-.9.8z"/><path class="cls-8" d="M228.6 478.1l-33.2-2a.81.81 0 01-.8-.9.81.81 0 01.9-.8l33.2 2a.81.81 0 01.8.9.77.77 0 01-.9.8zm-7.8 5.4l-25.8-1.6a.81.81 0 01-.8-.9.81.81 0 01.9-.8l25.8 1.6a.81.81 0 01.8.9 1 1 0 01-.9.8zm7.1 6.2l-33.2-2a.81.81 0 01-.8-.9.81.81 0 01.9-.8l33.2 2a.81.81 0 01.8.9.82.82 0 01-.9.8z"/><path class="cls-13" d="M233.8 455.6l-37.1-2.2a.81.81 0 01-.8-.9.81.81 0 01.9-.8l37.1 2.2a.81.81 0 01.8.9.77.77 0 01-.9.8z"/><path class="cls-13" transform="rotate(-86.54 232.786 433.607)" d="M231.31 431.31h3v4.6h-3z"/><path class="cls-13" d="M233 430.4l-3.3 1.5c-.1 0 0 .1 0 .1l6.4.4c.1 0 .1-.1 0-.1l-3.1-1.9z"/><path d="M195.2 469.4l-2.4-46.9a4.58 4.58 0 014.3-4.8l43.2-2.2a4.58 4.58 0 014.8 4.3l3.3 66.1a4.58 4.58 0 01-4.3 4.8l-43.2 2.2a4.58 4.58 0 01-4.8-4.3l-.6-11.4" fill="#fafafa" stroke-linecap="round" stroke-linejoin="round" stroke="#6f7592" stroke-width="3"/><path class="cls-3" d="M213 427.6l-11 .6a.88.88 0 01-.9-.8.88.88 0 01.8-.9l11-.6a.88.88 0 01.9.8.88.88 0 01-.8.9zm-5.9 9.6l-4.6.2a.88.88 0 01-.9-.8.88.88 0 01.8-.9l4.6-.2a.88.88 0 01.9.8.88.88 0 01-.8.9zm11.1-5.3l-16 .8a.88.88 0 01-.9-.8.88.88 0 01.8-.9l16-.8a.88.88 0 01.9.8.81.81 0 01-.8.9z"/><path class="cls-8" d="M232 443.7l-29.1 1.5a.88.88 0 01-.9-.8.88.88 0 01.8-.9l29.1-1.5a.88.88 0 01.9.8 1 1 0 01-.8.9zm4.7 10.5l-33.3 1.7a.88.88 0 01-.9-.8.88.88 0 01.8-.9l33.3-1.7a.88.88 0 01.9.8.82.82 0 01-.8.9zm2.2 5.7l-35.2 1.8a.88.88 0 01-.9-.8.88.88 0 01.8-.9l35.2-1.8a.88.88 0 01.9.8.77.77 0 01-.8.9zm-9.1 6.3l-25.8 1.3a.88.88 0 01-.9-.8.88.88 0 01.8-.9l25.8-1.3a.88.88 0 01.9.8.88.88 0 01-.8.9zm7.8 5.4l-33.3 1.7a.88.88 0 01-.9-.8.88.88 0 01.8-.9l33.3-1.7a.88.88 0 01.9.8.88.88 0 01-.8.9zm-7.3 6.2l-25.8 1.3a.88.88 0 01-.9-.8.88.88 0 01.8-.9l25.8-1.3a.88.88 0 01.9.8.77.77 0 01-.8.9zm7.8 5.4l-33.3 1.7a.88.88 0 01-.9-.8.88.88 0 01.8-.9l33.3-1.7a.88.88 0 01.9.8.77.77 0 01-.8.9zm2.1-34.5l-37.1 1.9a.88.88 0 01-.9-.8.88.88 0 01.8-.9l37.1-1.9a.88.88 0 01.9.8.81.81 0 01-.8.9z"/><path class="cls-14" d="M130.3 189.9l-3.4-2.2-3.7-43.2 1.7-2.2 39.9-3.4 3 2.4v7.5l-7 .7 2.2 27.4 7.4-.1.1 8.3-1.6 1.6-18.5 1.5.5 7.5-5.7-1.9-4.4 2.6-.6-7.1-9.9.6z"/><path class="cls-8" d="M168 149.5a.85.85 0 00.8-1l-.5-6.4a4.5 4.5 0 00-4.9-4.1l-36.8 3a4.46 4.46 0 00-4.2 4.9l3.3 40.8a4.58 4.58 0 004.9 4.2l9-.7.5 6.3a.75.75 0 00.5.7 1.39 1.39 0 00.9 0l4.3-2.6 4.6 1.9a.6.6 0 00.4.1c.2 0 .3-.1.5-.2a.91.91 0 00.4-.8l-.5-6.3 16.3-1.4a4.61 4.61 0 004.2-5l-.5-6.4a.85.85 0 00-1-.8l-6.4.5-2.1-26.1zm-1.5-7.2l.4 5.5-5.5.4-.4-5.4a2.85 2.85 0 012.5-3 2.73 2.73 0 013 2.5zm-17.4 38.5l-.3.3a6.7 6.7 0 01-4 1.8 6.37 6.37 0 01-4.4-1.3 6.84 6.84 0 01-2.5-4.6 6.42 6.42 0 0112.8-1 6 6 0 01-1.6 4.8zm.6 13.4l-3.7-1.5a.75.75 0 00-.8.1l-3.4 2.1-.9-10.8a8.28 8.28 0 007.9-.6zm.9-12.2a8.09 8.09 0 002-6.1 8.23 8.23 0 00-16.4 1.4 8.12 8.12 0 002.9 5.6l.5 5.5-9 .7a2.86 2.86 0 01-3-2.6l-3.3-40.8a2.7 2.7 0 012.5-2.9l33.2-2.7a4.52 4.52 0 00-.7 2.8l3.3 40.7a4.47 4.47 0 001.2 2.7l-12.7 1.1zm18.8-4.5l.4 5.5a2.79 2.79 0 01-2.5 3 2.7 2.7 0 01-2.9-2.5l-.4-5.5z"/><path class="cls-8" d="M144 172a4.56 4.56 0 104.9 4.2 4.58 4.58 0 00-4.9-4.2zm.6 7.3a2.76 2.76 0 01-.5-5.5 2.78 2.78 0 013 2.5 2.72 2.72 0 01-2.5 3zm10.4-22l-24.3 2a.91.91 0 00.2 1.8l24.3-2a.85.85 0 00.8-1 .89.89 0 00-1-.8zm-3.3 3.9l-17 1.4a.85.85 0 00-.8 1 .89.89 0 001 .8l17-1.4a.85.85 0 00.8-1 1.08 1.08 0 00-1-.8z"/><path class="cls-13" d="M154.7 153.6l-3.6.3a.91.91 0 00.2 1.8l3.6-.3a.85.85 0 00.8-1 1 1 0 00-1-.8z"/><path class="cls-8" d="M130.6 157.5l17-1.4a.85.85 0 00.8-1 .89.89 0 00-1-.8l-17 1.4a.85.85 0 00-.8 1 1 1 0 001 .8z"/><path class="cls-3" d="M133.2 152.2a.66.66 0 00.6.1 1 1 0 00.7-.4l1.9-2.9 2.3 2.5a1.08 1.08 0 00.7.3 1 1 0 00.7-.4l1.9-2.9 2.3 2.5a1.08 1.08 0 00.7.3 1.27 1.27 0 00.7-.4l1.9-2.9 2.3 2.5a.92.92 0 101.4-1.2l-3.1-3.4a1.08 1.08 0 00-.7-.3 1.27 1.27 0 00-.7.4l-1.9 2.9-2.3-2.5a1.08 1.08 0 00-.7-.3 1 1 0 00-.7.4l-1.9 2.9-2.3-2.5a1.08 1.08 0 00-.7-.3 1 1 0 00-.7.4l-2.5 3.9a.85.85 0 00.1 1.3z"/><path class="cls-14" d="M138.3 177.3l-2.6-3.2 9.9-42.2 2.3-1.6 39 9.2 2.1 3.2-2.3 7.2-6.9-1.6-6.3 26.7 7 2.3-2.5 7.8-2 1-18.1-4.2-1.8 7.3-4.9-3.6-4.9 1.1 1.6-6.9-9.6-2.5z"/><path class="cls-8" d="M186.7 150.5a.92.92 0 001.1-.7l1.5-6.2a4.49 4.49 0 00-3.4-5.4l-36-8.5a4.53 4.53 0 00-5.5 3.3l-9.4 39.8a4.62 4.62 0 003.4 5.6l8.7 2.1-1.5 6.2a1 1 0 00.2.9.9.9 0 00.9.2l4.9-1.1 3.8 3.2a.52.52 0 00.4.2h.5a.88.88 0 00.6-.7l1.5-6.2 16 3.8a4.51 4.51 0 005.5-3.4l1.5-6.2a.92.92 0 00-.7-1.1l-6.2-1.5 6-25.5zm.8-7.3l-1.3 5.3-5.3-1.3 1.3-5.3a2.63 2.63 0 013.3-2 2.89 2.89 0 012 3.3zM159 174.5a.76.76 0 00-.4.2 6.4 6.4 0 01-4.3.5 6.74 6.74 0 01-3.8-2.6 6.64 6.64 0 01-1-5.1 6.42 6.42 0 0112.5 2.9 6.58 6.58 0 01-3 4.1zm-3.5 12.9l-3.1-2.6a.78.78 0 00-.8-.2l-3.9.9 2.5-10.5a8.18 8.18 0 003.7 1.9 7.76 7.76 0 004-.1zM160 176a8.1 8.1 0 003.8-5.2 8.22 8.22 0 00-16-3.8 8.46 8.46 0 001 6.2l-1.3 5.4-8.7-2.1a2.73 2.73 0 01-2-3.4l9.4-39.8a2.7 2.7 0 013.3-2l32.4 7.7a4.58 4.58 0 00-1.5 2.5l-9.4 39.7a4.78 4.78 0 00.3 2.9l-12.4-2.9zm19.3 1.6l-1.3 5.3a2.81 2.81 0 01-3.3 2.1 2.67 2.67 0 01-2-3.3l1.3-5.3z"/><path class="cls-8" d="M156.8 164.5a4.57 4.57 0 103.4 5.5 4.56 4.56 0 00-3.4-5.5zm-1.6 7.1a2.63 2.63 0 01-2-3.3 2.67 2.67 0 013.3-2 2.63 2.63 0 012 3.3 2.72 2.72 0 01-3.3 2zm16.7-17.7l-23.7-5.6a.92.92 0 00-.4 1.8l23.7 5.6a.92.92 0 10.4-1.8zm-4.4 2.7l-16.6-3.9a.92.92 0 00-.4 1.8l16.6 3.9a.92.92 0 001.1-.7 1 1 0 00-.7-1.1zm5.3-6.2l-3.6-.8a.92.92 0 10-.4 1.8l3.6.8a.92.92 0 001.1-.7 1 1 0 00-.7-1.1zm-24.2-3.9l16.6 3.9a.92.92 0 00.4-1.8l-16.6-3.9a.92.92 0 00-.4 1.8z"/><path class="cls-3" d="M152.7 142.3a.55.55 0 00.5.3.78.78 0 00.8-.2l2.7-2.2 1.4 3.1c.1.3.3.4.6.5a.78.78 0 00.8-.2l2.7-2.2 1.4 3.1c.1.3.3.4.6.5a.78.78 0 00.8-.2l2.7-2.2 1.4 3.1a.92.92 0 001.7-.7l-1.8-3.9c-.1-.3-.3-.4-.6-.5a.78.78 0 00-.8.2l-2.7 2.2-1.4-3.1c-.1-.3-.3-.4-.6-.5a.78.78 0 00-.8.2l-2.7 2.2-1.4-3.1c-.1-.3-.3-.4-.6-.5a.78.78 0 00-.8.2l-3.6 2.9c-.5 0-.6.6-.3 1z"/><path class="cls-3" transform="rotate(-8.6 476.465 346.12)" d="M472.64 336.7h7.3v18.6h-7.3z"/><path class="cls-8" d="M478.1 334.3l-8.2 1.2a1 1 0 00-.8 1.2l3.1 20.3a1 1 0 001.2.8l8.2-1.2a1 1 0 00.8-1.2l-1.9-12.3a1 1 0 10-2 .4l1.7 11.3-6.2.9-2.8-18.3 6.2-.9.5 3a1 1 0 102-.4l-.6-4a1.1 1.1 0 00-1.2-.8z"/><path class="cls-3" transform="rotate(-8.72 438.276 345.607)" d="M434.89 342.18h6.8v6.8h-6.8z"/><path class="cls-8" d="M441.6 339.8l-8.2 1.2a1 1 0 00-.8 1.2l1.2 8.2a1 1 0 001.2.8l8.2-1.2a1 1 0 00.8-1.2l-1.2-8.2a1.16 1.16 0 00-1.2-.8zm.2 8.4l-6.2.9-.9-6.2 6.2-.9z"/><path class="cls-3" d="M439.7 469.8l2.6-3.1 2.7-.1 4 3.7v1.8l-2.7 3-6.6-5.3z"/><path class="cls-8" d="M448.3 468.2l-2.2-1.7a3.83 3.83 0 00-5.4.6l-11.4 14.5a1 1 0 00-.2.7l.7 5.9a1.17 1.17 0 001.1.9l5.9-.7a1 1 0 00.7-.4l11.4-14.5a3.63 3.63 0 00-.6-5.3zm-8.4 3.1l1.8 1.4-7.6 9.6-1.8-1.4zm-8.3 15.7l-.5-4.5 5.1 4zm5.8-2.1l-1.8-1.4 7.6-9.6 1.8 1.4zm9.9-12.6l-1.1 1.4-5.1-4 1.1-1.4a1.72 1.72 0 012.6-.3l2.2 1.7a1.72 1.72 0 01.3 2.6z"/><circle id="SVGID" cx="464.5" cy="195.3" r="27.8" fill="#ccc"/><g class="cls-18"><circle class="cls-5" cx="464.5" cy="195.3" r="27.8"/></g><g class="cls-18"><path class="cls-2" d="M453.3 189l-7.8-6.4 3.2-12.8 19.7-6.6 9.4 6.2 4.6 13.6-6.3 7 .1 1.6-2.2 1.2-2.4 2.4.1 4.7.9 3.6 1.9 3-3.3 1.7-3.4.5H463l-4.8-1.3-2.1-1.5-.2-.2 1.3-2.3.9-3.1v-6L456 192l-1.1-1.7-1.6-1.3z"/></g><g class="cls-18"><path class="cls-19" d="M484.1 176.9c-3.8-3.8-1-21.8-19.1-21.5-12.4.2-16.9 6.7-22 20.9-4.6 13 9.9 15.1 12.4 15.3l-.6-1.2c-.6-1.8-1.3-3.8-1.9-5.8h-.7c-1.3-.2-2.4-2-2.9-3.5-.7-1.1-1-2.2.1-2.9a.31.31 0 01.2-.1 2 2 0 01.8-.4l.2-.2a1 1 0 011.2.2 9.16 9.16 0 011.9-5.5c2.3-2.9 6.1-4.7 9.7-5.4 8.3-1.5 14.9 2.4 14.6 10.7v.6a.37.37 0 00.3-.1 1.48 1.48 0 01.7-.1 2.62 2.62 0 01.9.5 1.64 1.64 0 01.7 1.1 1.09 1.09 0 01.1.5 3.13 3.13 0 01-.4 1.9c-.5 1.7-1.5 3.4-3.4 3.4-.2.8-.5 1.6-.7 2.4a21.72 21.72 0 01-1.9 4.1h.4c11 .4 13.2-11.1 9.4-14.9z"/><path class="cls-3" d="M493.9 217.3c-5.2-6.2-15.3-7.7-15.3-7.7-.9 3.4-6.1 5.6-6.1 5.6-4.8.2-7-5.2-7-5.2s-3.3 4.9-6.8 4.7c-2.2-.1-5.4-6.2-5.4-6.2s-3.6 1.6-6.6 2.6 0-.1-5.6 2.3c-5 2.2-6.7 8.1-7 9.4h61.8"/><path class="cls-8" d="M492.7 215.9a18.19 18.19 0 00-8.7-5.2c-3.3-1.1-7-2-9.4-4.8a10.65 10.65 0 01-2.4-5.9c-.1-1.7-.1-3.3-.1-5 2.6-1.8 4.2-5.1 5.1-8.4a38.94 38.94 0 00.8-15.2c-.1-.5-.9-.3-.8.2a40.44 40.44 0 01-.7 14.3c-1.1 4.5-3.6 9.7-8.8 10-.5 0-.5.9 0 .8a9.56 9.56 0 003.6-1.2v3.8a11.93 11.93 0 002.6 6.9 13.93 13.93 0 01-8 2.1h-.8c-3-.1-6.4-.8-8.8-2.7a11.58 11.58 0 002.1-6.3c.1-1.5 0-2.9 0-4.4a9.68 9.68 0 003.3 1.4c.5.1.6-.7.1-.8-4.2-.8-6.8-4.8-8.1-8.5a37.75 37.75 0 01-1.8-12.1c0-.5-.8-.4-.8.1a38.14 38.14 0 001.9 12.6 14.26 14.26 0 004.5 6.7 52.33 52.33 0 01-.1 5.6 10.65 10.65 0 01-2.4 5.9c-2.4 2.8-6.1 3.7-9.4 4.8a19.9 19.9 0 00-8.7 5.2 20.28 20.28 0 00-3.8 6.9h.8a21.69 21.69 0 011.5-3.5 15.87 15.87 0 018-7.1c3.2-1.3 6.6-1.9 9.6-3.7.1 3.2 2 5.9 5.4 6.1a6.7 6.7 0 006.8-4.7 6.17 6.17 0 005.6 5.2c3.8.4 6.3-2.4 8.2-5.2 2.2.9 4.6 1.4 6.8 2.3a15.82 15.82 0 018 7.1"/><path class="cls-14" d="M474.5 207a11.6 11.6 0 002.1 1.6 19.83 19.83 0 002 1.1c-1.6 2.4-3.5 4.6-6.5 4.8a5.36 5.36 0 01-5.8-5.1c2.8-.2 5.9-.7 8.2-2.4zm-18.6-.6c2.5 1.9 5.8 2.6 9 2.8a6.07 6.07 0 01-5.8 4.7c-3.3 0-5-2.8-4.9-5.8.5-.6 1.1-1.1 1.7-1.7z"/><path class="cls-20" d="M474.4 182.8c2.6 1.6-2.6 4.5-4.2 2.6s2.8-3.5 4.2-2.6zm-18.5.5c-2.6 1.7 2.7 4.7 4.3 2.7s-2.8-3.7-4.3-2.7z"/><path class="cls-8" d="M467.8 190.2a7.07 7.07 0 01-5.7-.1c-.5-.3-1 .4-.5.7a7.62 7.62 0 006.6.2c.5-.2.1-1-.4-.8z"/><path class="cls-9" d="M480.5 178.1c-.8-1.1-2.1-.4-2.8.3-.3.3.1.9.4.6 1.3-1.3 2.1-.4 2.3 1a5.87 5.87 0 01-.4 2.3c-.5 1.4-1.4 3.2-3.1 3.1-.5 0-.5.7-.1.7 2.4.2 3.7-2.5 4.1-4.5a3.6 3.6 0 00-.4-3.5zm-31.1-.5c.8-1.1 2.1-.4 2.8.3.3.3-.1.9-.4.6-1.3-1.3-2.1-.4-2.3 1a5.87 5.87 0 00.4 2.3c.5 1.4 1.4 3.2 3.1 3.1.5 0 .5.7.1.7-2.4.2-3.7-2.5-4.1-4.5a3.6 3.6 0 01.4-3.5z"/><circle class="cls-14" cx="465.5" cy="215" r="1.2"/><circle class="cls-14" cx="465.5" cy="220.2" r="1.2"/><path class="cls-19" d="M450.5 176.2s14.8-1.2 21.5-8.4l6.4 9.9s4.4-20.4-13.7-20.1c-16.6.2-14.2 18.6-14.2 18.6z"/></g><path class="cls-3" d="M484.1 176.9c-3.8-3.8-1-21.8-19.1-21.5-12.4.2-16.9 6.7-22 20.9-4.6 13 9.9 15.1 12.4 15.3l-.6-1.2c-.6-1.8-1.3-3.8-1.9-5.8h-.7c-1.3-.2-2.4-2-2.9-3.5-.7-1.1-1-2.2.1-2.9a.31.31 0 01.2-.1 2 2 0 01.8-.4l.2-.2a1 1 0 011.2.2 9.16 9.16 0 011.9-5.5c2.3-2.9 6.1-4.7 9.7-5.4 8.3-1.5 14.9 2.4 14.6 10.7v.6a.37.37 0 00.3-.1 1.48 1.48 0 01.7-.1 2.62 2.62 0 01.9.5 1.64 1.64 0 01.7 1.1 1.09 1.09 0 01.1.5 3.13 3.13 0 01-.4 1.9c-.5 1.7-1.5 3.4-3.4 3.4-.2.8-.5 1.6-.7 2.4a21.72 21.72 0 01-1.9 4.1h.4c11 .4 13.2-11.1 9.4-14.9z"/><path class="cls-3" d="M450.5 176.2s14.8-1.2 21.5-8.4l6.4 9.9s4.4-20.4-13.7-20.1c-16.6.2-14.2 18.6-14.2 18.6z"/><g class="cls-21"><path class="cls-8" d="M492.7 215.9a18.19 18.19 0 00-8.7-5.2c-3.3-1.1-7-2-9.4-4.8a10.65 10.65 0 01-2.4-5.9c-.1-1.7-.1-3.3-.1-5 2.6-1.8 4.2-5.1 5.1-8.4a38.94 38.94 0 00.8-15.2c-.1-.5-.9-.3-.8.2a40.44 40.44 0 01-.7 14.3c-1.1 4.5-3.6 9.7-8.8 10-.5 0-.5.9 0 .8a9.56 9.56 0 003.6-1.2v3.8a11.93 11.93 0 002.6 6.9 13.93 13.93 0 01-8 2.1h-.8c-3-.1-6.4-.8-8.8-2.7a11.58 11.58 0 002.1-6.3c.1-1.5 0-2.9 0-4.4a9.68 9.68 0 003.3 1.4c.5.1.6-.7.1-.8-4.2-.8-6.8-4.8-8.1-8.5a37.75 37.75 0 01-1.8-12.1c0-.5-.8-.4-.8.1a38.14 38.14 0 001.9 12.6 14.26 14.26 0 004.5 6.7 52.33 52.33 0 01-.1 5.6 10.65 10.65 0 01-2.4 5.9c-2.4 2.8-6.1 3.7-9.4 4.8a19.9 19.9 0 00-8.7 5.2 20.28 20.28 0 00-3.8 6.9h.8a21.69 21.69 0 011.5-3.5 15.87 15.87 0 018-7.1c3.2-1.3 6.6-1.9 9.6-3.7.1 3.2 2 5.9 5.4 6.1a6.7 6.7 0 006.8-4.7 6.17 6.17 0 005.6 5.2c3.8.4 6.3-2.4 8.2-5.2 2.2.9 4.6 1.4 6.8 2.3a15.82 15.82 0 018 7.1"/></g><g class="cls-21"><path class="cls-20" d="M474.4 182.8c2.6 1.6-2.6 4.5-4.2 2.6s2.8-3.5 4.2-2.6z"/></g><g class="cls-21"><path class="cls-20" d="M455.9 183.3c-2.6 1.7 2.7 4.7 4.3 2.7s-2.8-3.7-4.3-2.7z"/></g><g class="cls-21"><path class="cls-8" d="M480.5 178.1c-.8-1.1-2.1-.4-2.8.3-.3.3.1.9.4.6 1.3-1.3 2.1-.4 2.3 1a5.87 5.87 0 01-.4 2.3c-.5 1.4-1.4 3.2-3.1 3.1-.5 0-.5.7-.1.7 2.4.2 3.7-2.5 4.1-4.5a3.6 3.6 0 00-.4-3.5z"/></g><g class="cls-21"><path class="cls-8" d="M449.4 177.6c.8-1.1 2.1-.4 2.8.3.3.3-.1.9-.4.6-1.3-1.3-2.1-.4-2.3 1a5.87 5.87 0 00.4 2.3c.5 1.4 1.4 3.2 3.1 3.1.5 0 .5.7.1.7-2.4.2-3.7-2.5-4.1-4.5a3.6 3.6 0 01.4-3.5z"/></g><g class="cls-22"><circle class="cls-5" cx="109.5" cy="318.3" r="27.8"/></g><g class="cls-22"><path class="cls-2" d="M79.5 348l2-6.7 1.9-2.8 2.8-2.2 3.5-1.6 5.6-1.9 3.6-1.5 2.4-2.3 1.6-3.6.4-6.7-2.8-3.1-1.6-3.9-.9-2.9-2.4-1.1-1.2-1.7-.4-2.9.2-1.8 1.1-1.4 4.5-10.5 18.6-1.2 3.4 10.4.3 1.7 1.4-.1.8 1 .3 2.3-.5 2.6-1.3 1.9-1.6.8h-.4l-1.1 4.4-2 3.9-2.3 2.2.3 4.8.3 2.2 2.3 3.6 2.2 1.7 3.2 1.5 5.3 1.6 5.6 3.4 2.4 2.8 1 2.3.7 2.2-29.2 8.9-30-6.3z"/></g><g class="cls-22"><path class="cls-3" d="M109.4 332.3l-2 4 1.4.7h3.4l1.5-1.5-3-3.6-1.3.4z"/><path d="M97.4 303c.8-2.7.8-9.7 4.3-10.6 1.5-.4 6.5 3.7 13.4 0 2.8-1.5 5.6 8.1 6.1 9.4l.2-1.2 1.3-1s5.4-19.5-14-19.1S95 299.8 95 299.8s2.1-.3 2.4 3.2z" fill="#9043ff"/><path class="cls-8" d="M135.3 338.4c-2.1-2.4-5.6-3.8-8.6-4.8-2.4-.8-4.9-1.4-7-2.9-.1-.1-.2-.2-.3-.2a7.41 7.41 0 01-1.3-1.2 9.61 9.61 0 01-2.2-5.3c-.1-1.5-.1-3-.1-4.5 2.4-1.7 3.9-4.7 4.7-7.6a34.31 34.31 0 001-11.5c-.2.1-.5.2-.7.3a34.36 34.36 0 01-.9 10.6c-1 4.1-3.3 8.6-8 8.9a.4.4 0 000 .8 9 9 0 003.3-.9v3.5a13 13 0 00.9 4c-2.1 1.5-4 3.2-6.2 4.5-2.6-1.3-5.2-2.3-7.8-3.6a11.07 11.07 0 001.3-4.8c.1-1.3 0-2.7 0-4a8.62 8.62 0 002.8 1.1c.5.1.6-.7.1-.7-3.8-.7-6-4.1-7.1-7.6a34.09 34.09 0 01-1.6-11c0-.5-.7-.4-.7.1a34.58 34.58 0 001.8 11.5 13 13 0 004.1 6.1 43.41 43.41 0 01-.1 5.1 9.32 9.32 0 01-2.2 5.3c-2.2 2.5-5.5 3.4-8.6 4.3s-6.5 2.3-8.6 4.8c-1.4 1.6-2.5 2.6-3.2 5.6h.7c.3 0 .7-1.7 1.2-2.5 1.6-3 4.8-5.1 8-6.4 2.9-1.2 6.1-1.7 8.8-3.4.1 0 .1-.1.2-.1 2.1 2.5 5.4 3.4 7.8 5.6a.36.36 0 00.6-.2 37.42 37.42 0 002.7-4.2.1.1 0 01.1.1.1.1 0 00.1.1c.9 1.3 2 2.5 3 3.8 0 .1.1.1.2.1a.6.6 0 00.4-.1c1.9-1.7 3.6-3.7 5.5-5.5.2.1.3.2.5.3 2.7 1.7 5.9 2.2 8.8 3.4 3.1 1.3 6.3 3.5 8 6.4.5.8.8 2.5 1.2 2.5h.7a10.15 10.15 0 00-3.3-5.8zm-28.4-2.1c-2.3-1.9-5.4-2.9-7.4-5.2a10 10 0 002.2-2.4c2.5 1.3 5.2 2.4 7.7 3.6a33.36 33.36 0 01-2.5 4zm6.8-.3c-.9-1.2-1.8-2.3-2.7-3.4l-.1-.1c0-.1 0-.2-.2-.3 2-1.2 3.8-2.8 5.8-4.2a9.55 9.55 0 002.4 2.9c-1.9 1.6-3.5 3.4-5.2 5.1z"/><path class="cls-8" d="M113.6 313.5a10 10 0 01-8.1-.4c-.4-.2-.8.4-.4.6a10.36 10.36 0 008.6.5c.5-.2.3-.9-.1-.7z"/><path class="cls-9" d="M121.3 300.4c-.4.3 0 .9.4.6 2.2-1.7 2.6.7 2.6 2.5 0 2.1-1 4.6-3.3 4.9-.4 0-.5.8 0 .7 3.1-.3 4.1-3.5 4.1-6.2-.2-2.5-1.5-4.3-3.8-2.5zm-24 0c.4.3 0 .9-.4.6-2.2-1.7-2.6.7-2.6 2.5 0 2.1 1 4.6 3.3 4.9.4 0 .5.8 0 .7-3.1-.3-4.1-3.5-4.1-6.2.2-2.5 1.5-4.3 3.8-2.5z"/><path class="cls-3" d="M108.8 337l-.8 2.7v6.3h5v-6.3l-.8-2.7h-3.4z"/></g><g class="cls-22"><path class="cls-3" d="M117.6 300.2a4.5 4.5 0 00-6 2.9 2.35 2.35 0 00-.2.8 4.22 4.22 0 00-1.9-.3c-.6 0-1.3.3-2 .3a4.78 4.78 0 00-9.2-.8c-1.9 5.4 7 8.1 9 2.7a3.55 3.55 0 00.2-1c.5 0 .9-.2 1.4-.2a3.59 3.59 0 012.5.3c.3 4.2 7.4 5.7 9.2 1a4.57 4.57 0 00-3-5.7zm-11.2 5.2a3.32 3.32 0 01-2 2.3c-2.8 1.2-6.1-1-5.4-4.1a3.69 3.69 0 014.7-2.6 3.44 3.44 0 012.7 4.4zm13.3 0a3.32 3.32 0 01-2 2.3c-2.8 1.2-6.1-1-5.4-4.1a3.69 3.69 0 014.7-2.6 3.44 3.44 0 012.7 4.4z"/></g><path class="cls-3" d="M97.4 303c.8-2.7.8-9.7 4.3-10.6 1.5-.4 6.5 3.7 13.4 0 2.8-1.5 5.6 8.1 6.1 9.4l.2-1.2 1.3-1s5.4-19.5-14-19.1S95 299.8 95 299.8s2.1-.3 2.4 3.2z"/><path class="cls-8" d="M121.3 300.4c-.4.3 0 .9.4.6 2.2-1.7 2.6.7 2.6 2.5 0 2.1-1 4.6-3.3 4.9-.4 0-.5.8 0 .7 3.1-.3 4.1-3.5 4.1-6.2-.2-2.5-1.5-4.3-3.8-2.5zm-24 0c.4.3 0 .9-.4.6-2.2-1.7-2.6.7-2.6 2.5 0 2.1 1 4.6 3.3 4.9.4 0 .5.8 0 .7-3.1-.3-4.1-3.5-4.1-6.2.2-2.5 1.5-4.3 3.8-2.5z"/></svg>